<svg width="35" height="23" viewBox="0 0 35 23" fill="none" xmlns="http://www.w3.org/2000/svg">
<path d="M7.15918 13.8749C7.15918 8.78768 7.15918 6.24405 8.61145 4.66366C10.0637 3.08325 12.4011 3.08325 17.0758 3.08325C21.7506 3.08325 24.0879 3.08325 25.5403 4.66366C26.9925 6.24405 26.9925 8.78768 26.9925 13.8749V23.1249C26.9925 28.2121 26.9925 30.7557 25.5403 32.3362C24.0879 33.9166 21.7506 33.9166 17.0758 33.9166C12.4011 33.9166 10.0637 33.9166 8.61145 32.3362C7.15918 30.7557 7.15918 28.2121 7.15918 23.1249V13.8749Z" fill="#097B09" stroke="#097B09" stroke-width="1.12" stroke-linecap="round"/>
<path d="M12.8262 3.0835L12.9523 3.90678C13.2255 5.6909 13.3621 6.58297 13.9244 7.12581C14.5109 7.69206 15.3423 7.7085 17.0762 7.7085C18.81 7.7085 19.6415 7.69206 20.228 7.12581C20.7902 6.58297 20.9268 5.6909 21.2001 3.90678L21.3262 3.0835" stroke="white" stroke-width="1.12" stroke-linejoin="round"/>
</svg>
