<svg width="45" height="44" viewBox="0 0 45 44" fill="none" xmlns="http://www.w3.org/2000/svg">
<path d="M27.2625 23.9507C32.6223 22.001 36.4567 19.5416 32.4903 14.4724C32.7625 4.25522 15.5558 2.30731 11.2401 13.9151C10.7524 16.1508 10.9101 20.9725 12.6032 24.8426C13.2238 26.3047 12.7407 32.2731 10.5553 29.5754C9.52593 28.1802 8.5781 28.1225 8.17201 28.2719C6.20851 31.8927 11.2777 34.9764 12.3859 34.9984C15.1533 38.2141 17.5101 37.8135 19.5103 37.962" stroke="#32B8E8" stroke-linecap="round" stroke-linejoin="round"/>
<path d="M29.8762 22.8681C34.4687 29.9191 32.1257 34.4154 26.3534 35.8821M17.1602 23.5795C18.0567 24.4164 19.3565 24.2523 20.2612 23.6299C20.4363 21.9579 21.7893 22.0166 22.0212 23.7371C23.1148 23.7151 24.2579 23.5841 24.4724 24.3678C24.5971 25.2066 23.8903 25.6961 22.8252 25.5503C22.8747 27.2315 22.0322 27.1746 20.1338 27.0096C19.5087 27.2856 18.9385 27.3983 18.3656 27.5221M21.419 19.636C26.0124 21.4372 30.1347 21.0596 32.5886 17.1921" stroke="#32B8E8" stroke-linecap="round" stroke-linejoin="round"/>
<path d="M23.5113 18.3746C24.0763 18.3746 24.5343 17.8505 24.5343 17.204C24.5343 16.5575 24.0763 16.0334 23.5113 16.0334C22.9463 16.0334 22.4883 16.5575 22.4883 17.204C22.4883 17.8505 22.9463 18.3746 23.5113 18.3746Z" stroke="#32B8E8" stroke-linecap="round" stroke-linejoin="round"/>
<path d="M30.6142 16.5908C31.085 16.5908 31.4667 16.0917 31.4667 15.4761C31.4667 14.8605 31.085 14.3615 30.6142 14.3615C30.1434 14.3615 29.7617 14.8605 29.7617 15.4761C29.7617 16.0917 30.1434 16.5908 30.6142 16.5908Z" stroke="#32B8E8" stroke-linecap="round" stroke-linejoin="round"/>
<path d="M19.3295 36.6685C25.6288 49.2452 32.3425 20.0127 19.8116 30.9907M32.205 26.7942C42.545 20.3665 34.6598 38.775 30.5 34.21M24.1942 6.02254C20.4249 2.7427 18.0049 4.01137 16.3531 7.55887C9.26539 6.06929 9.46981 11.8672 11.239 13.915C8.15439 16.1453 7.48248 18.3755 11.3526 20.6058C9.86306 21.2979 8.33223 23.7536 12.603 25.5118C11.5195 26.3817 10.0638 27.1902 12.4893 28.634M34.5562 14.5512H36.9671M35.7616 13.1707V15.852" stroke="#32B8E8" stroke-linecap="round" stroke-linejoin="round"/>
</svg>
