<svg width="24" height="24" viewBox="0 0 24 24" fill="none" xmlns="http://www.w3.org/2000/svg">
<path d="M9.00684 17C9.00684 18.1046 8.11141 19 7.00684 19C5.90227 19 5.00684 18.1046 5.00684 17C5.00684 15.8954 5.90227 15 7.00684 15C8.11141 15 9.00684 15.8954 9.00684 17Z" stroke="#097B09" stroke-width="1.5"/>
<path d="M19.0068 17C19.0068 18.1046 18.1114 19 17.0068 19C15.9022 19 15.0068 18.1046 15.0068 17C15.0068 15.8954 15.9022 15 17.0068 15C18.1114 15 19.0068 15.8954 19.0068 17Z" stroke="#097B09" stroke-width="1.5"/>
<path d="M2.00683 10H18.0068M2.00683 10C2.00683 10.78 1.98684 13.04 2.01083 15.26C2.0468 15.98 2.16671 16.58 5.00854 17M2.00683 10C2.22267 8.26 3.16195 6.2 3.64158 5.42M9.00683 10V5M14.9969 17H9.0015M2.02282 5H12.239C12.239 5 12.7786 5 13.2582 5.048C14.1576 5.132 14.913 5.54 15.6684 6.56C16.4683 7.64 17.0833 9.008 17.8987 9.74C19.2537 10.9564 21.8317 10.58 21.9756 13.16C22.0116 14.48 22.0116 15.92 21.9516 16.16C21.8553 16.8667 21.3104 16.9821 20.6326 17C20.0444 17.0156 19.3353 16.9721 18.9899 17" stroke="#097B09" stroke-width="1.5" stroke-linecap="round"/>
</svg>
