<svg width="23" height="23" viewBox="0 0 23 23" fill="none" xmlns="http://www.w3.org/2000/svg">
<path opacity="0.3" d="M11.4642 3.85449C7.28496 3.85449 3.88281 7.25664 3.88281 11.4359C3.88281 15.6151 7.28496 19.0173 11.4642 19.0173C15.6435 19.0173 19.0456 15.6151 19.0456 11.4359C19.0456 7.25664 15.6435 3.85449 11.4642 3.85449ZM15.2549 13.8904L13.9187 15.2266L11.4642 12.7721L9.00973 15.2266L7.67351 13.8904L10.128 11.4359L7.67351 8.98141L9.00973 7.64519L11.4642 10.0997L13.9187 7.64519L15.2549 8.98141L12.8004 11.4359L15.2549 13.8904Z" fill="#FF5050"/>
<path d="M13.9175 7.64503L11.4631 10.0995L9.0086 7.64503L7.67237 8.98125L10.1269 11.4357L7.67237 13.8902L9.0086 15.2264L11.4631 12.7719L13.9175 15.2264L15.2538 13.8902L12.7993 11.4357L15.2538 8.98125L13.9175 7.64503ZM11.4631 1.95898C6.22243 1.95898 1.98633 6.19509 1.98633 11.4357C1.98633 16.6764 6.22243 20.9125 11.4631 20.9125C16.7037 20.9125 20.9398 16.6764 20.9398 11.4357C20.9398 6.19509 16.7037 1.95898 11.4631 1.95898ZM11.4631 19.0171C7.28383 19.0171 3.88168 15.615 3.88168 11.4357C3.88168 7.25648 7.28383 3.85433 11.4631 3.85433C15.6423 3.85433 19.0445 7.25648 19.0445 11.4357C19.0445 15.615 15.6423 19.0171 11.4631 19.0171Z" fill="#FF5050"/>
</svg>
