<svg width="17" height="17" viewBox="0 0 17 17" fill="none" xmlns="http://www.w3.org/2000/svg">
<path d="M6.375 10.625C6.375 8.62155 6.375 7.61983 6.9974 6.9974C7.61983 6.375 8.62155 6.375 10.625 6.375H11.3333C13.3368 6.375 14.3385 6.375 14.9609 6.9974C15.5833 7.61983 15.5833 8.62155 15.5833 10.625V11.3333C15.5833 13.3368 15.5833 14.3385 14.9609 14.9609C14.3385 15.5833 13.3368 15.5833 11.3333 15.5833H10.625C8.62155 15.5833 7.61983 15.5833 6.9974 14.9609C6.375 14.3385 6.375 13.3368 6.375 11.3333V10.625Z" fill="#F5F6F4" stroke="#097B09" stroke-width="1.0625" stroke-linecap="round" stroke-linejoin="round"/>
<path d="M12.0419 6.37484C12.0402 4.28023 12.0086 3.19528 11.3988 2.45239C11.2811 2.30893 11.1496 2.17738 11.0061 2.05964C10.2224 1.4165 9.05814 1.4165 6.72949 1.4165C4.40086 1.4165 3.23654 1.4165 2.45288 2.05964C2.30941 2.17737 2.17787 2.30893 2.06013 2.45239C1.41699 3.23606 1.41699 4.40037 1.41699 6.729C1.41699 9.05765 1.41699 10.2219 2.06013 11.0056C2.17786 11.1491 2.30941 11.2806 2.45288 11.3983C3.19577 12.0081 4.28072 12.0397 6.37533 12.0414" stroke="#097B09" stroke-width="1.0625" stroke-linecap="round" stroke-linejoin="round"/>
</svg>
