<svg width="24" height="23" viewBox="0 0 24 23" fill="none" xmlns="http://www.w3.org/2000/svg">
<path d="M17 13.3416C17 13.0247 17 12.8663 17.052 12.7252C17.2032 12.3149 17.6018 12.1557 18.0011 11.989C18.45 11.8015 18.6744 11.7078 18.8968 11.6913C19.1493 11.6726 19.4022 11.7225 19.618 11.8335C19.9041 11.9806 20.1036 12.2603 20.3079 12.4877C21.2512 13.5381 21.7229 14.0633 21.8955 14.6425C22.0348 15.1098 22.0348 15.5985 21.8955 16.0659C21.6438 16.9106 20.8485 17.6187 20.2598 18.2741C19.9587 18.6093 19.8081 18.777 19.618 18.8748C19.4022 18.9858 19.1493 19.0357 18.8968 19.017C18.6744 19.0005 18.45 18.9068 18.0011 18.7193C17.6018 18.5526 17.2032 18.3935 17.052 17.9832C17 17.842 17 17.6836 17 17.3667V13.3416Z" stroke="#141B34" stroke-width="1.47"/>
<path d="M9.5 19.9375C10.8807 21.1597 13.1193 21.1597 14.5 19.9375" stroke="#141B34" stroke-width="1.47" stroke-linecap="round" stroke-linejoin="round"/>
<path d="M7 13.3416C7 12.9427 6.98778 12.5842 6.63591 12.3037C6.50793 12.2016 6.33825 12.1308 5.99891 11.9891C5.55001 11.8017 5.32556 11.708 5.10316 11.6915C4.43591 11.642 4.07692 12.0595 3.69213 12.4878C2.74875 13.5381 2.27706 14.0633 2.10446 14.6424C1.96518 15.1098 1.96518 15.5985 2.10446 16.0658C2.3562 16.9105 3.15152 17.6185 3.74021 18.2739C4.11129 18.687 4.46577 19.0641 5.10316 19.0168C5.32556 19.0003 5.55001 18.9066 5.99891 18.7191C6.33825 18.5775 6.50793 18.5066 6.63591 18.4046C6.98778 18.1241 7 17.7656 7 17.3666V13.3416Z" stroke="#141B34" stroke-width="1.47"/>
<path d="M2 15.3541V11.6874C2 6.62481 6.47715 2.52075 12 2.52075C17.5228 2.52075 22 6.62481 22 11.6874L22.0001 15.3541" stroke="#141B34" stroke-width="1.47" stroke-linecap="round" stroke-linejoin="round"/>
</svg>
