<svg width="44" height="44" viewBox="0 0 44 44" fill="none" xmlns="http://www.w3.org/2000/svg">
<g clip-path="url(#clip0_2708_3686)">
<rect width="44" height="44" fill="black"/>
<path d="M40.0087 13.4328C38.8882 10.8124 37.2651 8.43684 35.2311 6.4405C33.1948 4.42721 30.7879 2.82721 28.1434 1.72884C25.393 0.584978 22.4432 -0.00261258 19.4644 1.91198e-06H3.35675C3.21045 -0.00219476 3.06518 0.0248182 2.92945 0.0794592C2.79372 0.1341 2.67025 0.215271 2.56628 0.318219C2.4623 0.421168 2.37991 0.543825 2.32393 0.679009C2.26795 0.814193 2.2395 0.959187 2.24025 1.1055V8.00617C2.24025 8.30317 2.35758 8.57817 2.56842 8.78717L10.2024 16.346C10.3076 16.4518 10.4331 16.5352 10.5715 16.591C10.7098 16.6468 10.8581 16.6738 11.0072 16.6705H19.3672C20.8449 16.6705 22.2272 17.2443 23.2631 18.2838C24.2842 19.3087 24.8324 20.6598 24.8086 22.088C24.7554 24.9682 22.3464 27.3112 19.4351 27.3112H7.07842C6.93155 27.3094 6.7858 27.337 6.64977 27.3924C6.51375 27.4478 6.3902 27.5299 6.28642 27.6338C6.08071 27.8429 5.96379 28.1234 5.96008 28.4167V35.3173C5.96008 35.6143 6.07558 35.8893 6.28642 36.1002L13.8746 43.615C13.9857 43.7358 14.1205 43.8324 14.2707 43.8986C14.4209 43.9649 14.5831 43.9994 14.7472 44H19.4626C22.441 44.0012 25.3902 43.4124 28.1397 42.2675C30.7822 41.1645 33.1884 39.5644 35.2274 37.554C37.2582 35.5553 38.8815 33.1812 40.0069 30.5635C41.1674 27.852 41.7596 24.97 41.7596 22.0018C41.7596 19.0337 41.1711 16.1535 40.0069 13.442L40.0087 13.4328ZM4.47508 7.54967V3.63367L9.87425 8.6845L9.87608 12.8957L4.47508 7.54967ZM13.5959 40.2068L8.19675 34.859V30.9412L13.5959 35.992V40.2068ZM9.92192 29.5148H19.4369C23.5582 29.5148 26.9664 26.202 27.0397 22.1265C27.0584 21.1279 26.8743 20.1359 26.4987 19.2104C26.1231 18.2849 25.5637 17.4452 24.8544 16.742C24.1351 16.0183 23.279 15.4449 22.3361 15.0549C21.3932 14.6649 20.3821 14.4663 19.3617 14.4705H12.1109V9.56267H19.4369C22.7937 9.56267 25.9507 10.857 28.3267 13.2037C29.5173 14.3737 30.4577 15.7734 31.0911 17.3177C31.7246 18.8621 32.0377 20.519 32.0117 22.188C31.9856 23.8571 31.6209 25.5034 30.9396 27.0272C30.2582 28.5511 29.2745 29.9207 28.0481 31.053C25.7083 33.2272 22.6309 34.4327 19.4369 34.4263H15.1707L9.92192 29.5148ZM37.9517 29.6982C36.9394 32.0534 35.4793 34.1897 33.6526 35.9883C31.8194 37.8007 29.653 39.2413 27.2726 40.2307C24.7983 41.2622 22.1432 41.7901 19.4626 41.7835H15.8271V36.6245H19.3397C23.2722 36.6245 26.9683 35.1542 29.7439 32.4922C31.1674 31.1391 32.3 29.51 33.0726 27.7045C33.8452 25.8989 34.2415 23.9548 34.2374 21.9908C34.2374 17.9997 32.6424 14.2725 29.7439 11.4895C26.9683 8.82384 23.2759 7.35717 19.3397 7.35717H11.7131L6.20208 2.20367H19.4644C22.1759 2.20367 24.8012 2.72617 27.2726 3.7565C29.6507 4.74938 31.8164 6.18885 33.6526 7.997C35.4795 9.79618 36.9396 11.9331 37.9517 14.289C38.9986 16.7273 39.5284 19.3178 39.5284 21.9927C39.5284 24.6675 38.9986 27.2598 37.9517 29.6982Z" fill="white"/>
</g>
<defs>
<clipPath id="clip0_2708_3686">
<rect width="44" height="44" fill="white"/>
</clipPath>
</defs>
</svg>
