<svg width="39" height="38" viewBox="0 0 39 38" fill="none" xmlns="http://www.w3.org/2000/svg">
<g clip-path="url(#clip0_2699_3298)">
<g clip-path="url(#clip1_2699_3298)">
<path d="M31.1797 -3H7.80469C2.10925 -3 -2.50781 1.61706 -2.50781 7.3125V30.6875C-2.50781 36.3829 2.10925 41 7.80469 41H31.1797C36.8751 41 41.4922 36.3829 41.4922 30.6875V7.3125C41.4922 1.61706 36.8751 -3 31.1797 -3Z" fill="#5865F2"/>
<mask id="mask0_2699_3298" style="mask-type:luminance" maskUnits="userSpaceOnUse" x="2" y="5" width="35" height="28">
<path d="M2.30469 5.76562H36.6797V32.3942H2.30469V5.76562Z" fill="white"/>
</mask>
<g mask="url(#mask0_2699_3298)">
<path d="M31.4044 8.13696C29.1757 7.11408 26.8238 6.38458 24.4075 5.9667C24.3856 5.96269 24.3629 5.96568 24.3428 5.97524C24.3226 5.9848 24.3059 6.00045 24.2951 6.01998C23.993 6.55726 23.6582 7.25851 23.4239 7.80954C20.7817 7.41389 18.1532 7.41389 15.5653 7.80954C15.3308 7.24614 14.984 6.55726 14.6804 6.01998C14.6693 6.00076 14.6525 5.98538 14.6324 5.97587C14.6123 5.96636 14.5898 5.96316 14.5679 5.9667C12.1513 6.38363 9.7993 7.11317 7.571 8.13696C7.55203 8.14522 7.53598 8.159 7.52494 8.1765C3.06857 14.8342 1.84791 21.3284 2.44672 27.7421C2.45037 27.7737 2.46645 27.8027 2.49141 27.8225C5.4315 29.9818 8.27964 31.2927 11.0748 32.1615C11.0966 32.1679 11.1198 32.1676 11.1413 32.1605C11.1629 32.1535 11.1818 32.14 11.1955 32.1219C11.8567 31.2189 12.4461 30.2669 12.9516 29.2657C12.9585 29.252 12.9625 29.237 12.9632 29.2216C12.9639 29.2063 12.9614 29.1909 12.9558 29.1766C12.9501 29.1623 12.9415 29.1494 12.9305 29.1386C12.9195 29.1279 12.9064 29.1196 12.8919 29.1143C11.9569 28.7596 11.0668 28.3273 10.2105 27.8362C10.1949 27.8271 10.1818 27.8142 10.1724 27.7987C10.1629 27.7833 10.1574 27.7658 10.1563 27.7477C10.1553 27.7296 10.1587 27.7116 10.1662 27.6951C10.1738 27.6787 10.1853 27.6643 10.1997 27.6534C10.3803 27.5183 10.5578 27.3792 10.7321 27.2361C10.7474 27.2235 10.7659 27.2154 10.7855 27.2127C10.8051 27.2101 10.8251 27.2129 10.8432 27.2209C16.469 29.7894 22.5594 29.7894 28.1187 27.2209C28.1368 27.2124 28.157 27.2092 28.1769 27.2116C28.1968 27.214 28.2157 27.222 28.2312 27.2347C28.4057 27.3786 28.5837 27.5182 28.7651 27.6534C28.7795 27.6642 28.7911 27.6785 28.7988 27.6949C28.8065 27.7112 28.81 27.7293 28.809 27.7473C28.8081 27.7654 28.8028 27.7829 28.7934 27.7985C28.7841 27.814 28.7711 27.8269 28.7556 27.8362C27.8989 28.3365 27.0014 28.7636 26.0728 29.1129C26.0584 29.1185 26.0454 29.127 26.0345 29.1379C26.0236 29.1489 26.0152 29.1619 26.0097 29.1764C26.0042 29.1908 26.0018 29.2062 26.0026 29.2216C26.0035 29.237 26.0075 29.252 26.0146 29.2657C26.5288 30.259 27.1152 31.2132 27.7691 32.1206C27.7824 32.1391 27.8012 32.1529 27.8229 32.1603C27.8445 32.1676 27.8678 32.168 27.8897 32.1615C30.6985 31.2927 33.5466 29.9818 36.4869 27.8225C36.4995 27.8132 36.5099 27.8013 36.5176 27.7877C36.5253 27.7741 36.5301 27.759 36.5316 27.7434C37.2483 20.3286 35.331 13.8876 31.4491 8.17787C31.4396 8.15926 31.4238 8.14472 31.4044 8.13696ZM13.7917 23.8369C12.0978 23.8369 10.7022 22.2819 10.7022 20.3722C10.7022 18.4625 12.0709 16.9076 13.7917 16.9076C15.5259 16.9076 16.9079 18.4763 16.8808 20.3722C16.8808 22.2819 15.5123 23.8369 13.7917 23.8369ZM25.2138 23.8369C23.52 23.8369 22.1245 22.2819 22.1245 20.3722C22.1245 18.4625 23.493 16.9076 25.2138 16.9076C26.948 16.9076 28.3301 18.4763 28.3031 20.3722C28.3031 22.2819 26.948 23.8369 25.2138 23.8369Z" fill="white"/>
</g>
</g>
</g>
<defs>
<clipPath id="clip0_2699_3298">
<rect width="38" height="38" fill="white" transform="translate(0.517578)"/>
</clipPath>
<clipPath id="clip1_2699_3298">
<rect width="44" height="44" fill="white" transform="translate(-2.50781 -3)"/>
</clipPath>
</defs>
</svg>
