<svg width="8" height="5" viewBox="0 0 8 5" fill="none" xmlns="http://www.w3.org/2000/svg">
<path d="M7.45638 1.08177L4.33138 4.20677C4.28783 4.25047 4.23608 4.28514 4.17911 4.3088C4.12213 4.33246 4.06104 4.34464 3.99935 4.34464C3.93765 4.34464 3.87657 4.33246 3.81959 4.3088C3.76261 4.28514 3.71086 4.25047 3.66732 4.20677L0.542317 1.08177C0.454257 0.99371 0.404785 0.874275 0.404785 0.749739C0.404785 0.625203 0.454257 0.505768 0.542317 0.417708C0.630377 0.329647 0.749812 0.280176 0.874348 0.280176C0.998884 0.280176 1.11832 0.329647 1.20638 0.417708L3.99974 3.21107L6.7931 0.417317C6.88116 0.329257 7.00059 0.279785 7.12513 0.279785C7.24966 0.279785 7.3691 0.329257 7.45716 0.417317C7.54522 0.505377 7.59469 0.624812 7.59469 0.749348C7.59469 0.873884 7.54522 0.993319 7.45716 1.08138L7.45638 1.08177Z" fill="#6E6D7A"/>
</svg>
