<svg width="18" height="18" viewBox="0 0 18 18" fill="none" xmlns="http://www.w3.org/2000/svg">
<path d="M3.00094 1.68031C2.44094 1.68031 1.96094 1.88031 1.56094 2.28031C1.16094 2.68031 0.960938 3.17031 0.960938 3.75031C0.960938 4.33031 1.16094 4.82031 1.56094 5.22031C1.96094 5.62031 2.44094 5.82031 3.00094 5.82031C3.56094 5.82031 4.04094 5.62031 4.44094 5.22031C4.84094 4.82031 5.04094 4.33031 5.04094 3.75031C5.04094 3.17031 4.84094 2.68031 4.44094 2.28031C4.04094 1.88031 3.56094 1.68031 3.00094 1.68031ZM3.00094 2.82031C3.24094 2.82031 3.46094 2.91031 3.66094 3.09031C3.86094 3.27031 3.96094 3.49031 3.96094 3.75031C3.96094 4.01031 3.86094 4.23031 3.66094 4.41031C3.46094 4.59031 3.24094 4.68031 3.00094 4.68031C2.76094 4.68031 2.54094 4.59031 2.34094 4.41031C2.14094 4.23031 2.04094 4.01031 2.04094 3.75031C2.04094 3.49031 2.14094 3.27031 2.34094 3.09031C2.54094 2.91031 2.76094 2.82031 3.00094 2.82031ZM3.00094 12.1803C2.44094 12.1803 1.96094 12.3803 1.56094 12.7803C1.16094 13.1803 0.960938 13.6703 0.960938 14.2503C0.960938 14.8303 1.16094 15.3203 1.56094 15.7203C1.96094 16.1203 2.44094 16.3203 3.00094 16.3203C3.56094 16.3203 4.04094 16.1203 4.44094 15.7203C4.84094 15.3203 5.04094 14.8303 5.04094 14.2503C5.04094 13.6703 4.84094 13.1803 4.44094 12.7803C4.04094 12.3803 3.56094 12.1803 3.00094 12.1803ZM3.00094 13.3203C3.24094 13.3203 3.46094 13.4103 3.66094 13.5903C3.86094 13.7703 3.96094 13.9903 3.96094 14.2503C3.96094 14.5103 3.86094 14.7303 3.66094 14.9103C3.46094 15.0903 3.24094 15.1803 3.00094 15.1803C2.76094 15.1803 2.54094 15.0903 2.34094 14.9103C2.14094 14.7303 2.04094 14.5103 2.04094 14.2503C2.04094 13.9903 2.14094 13.7703 2.34094 13.5903C2.54094 13.4103 2.76094 13.3203 3.00094 13.3203ZM9.00094 1.68031C8.44094 1.68031 7.96094 1.88031 7.56094 2.28031C7.16094 2.68031 6.96094 3.17031 6.96094 3.75031C6.96094 4.33031 7.16094 4.82031 7.56094 5.22031C7.96094 5.62031 8.44094 5.82031 9.00094 5.82031C9.56094 5.82031 10.0409 5.62031 10.4409 5.22031C10.8409 4.82031 11.0409 4.33031 11.0409 3.75031C11.0409 3.17031 10.8409 2.68031 10.4409 2.28031C10.0409 1.88031 9.56094 1.68031 9.00094 1.68031ZM9.00094 2.82031C9.24094 2.82031 9.46094 2.91031 9.66094 3.09031C9.86094 3.27031 9.96094 3.49031 9.96094 3.75031C9.96094 4.01031 9.86094 4.23031 9.66094 4.41031C9.46094 4.59031 9.24094 4.68031 9.00094 4.68031C8.76094 4.68031 8.54094 4.59031 8.34094 4.41031C8.14094 4.23031 8.04094 4.01031 8.04094 3.75031C8.04094 3.49031 8.14094 3.27031 8.34094 3.09031C8.54094 2.91031 8.76094 2.82031 9.00094 2.82031ZM9.00094 12.1803C8.44094 12.1803 7.96094 12.3803 7.56094 12.7803C7.16094 13.1803 6.96094 13.6703 6.96094 14.2503C6.96094 14.8303 7.16094 15.3203 7.56094 15.7203C7.96094 16.1203 8.44094 16.3203 9.00094 16.3203C9.56094 16.3203 10.0409 16.1203 10.4409 15.7203C10.8409 15.3203 11.0409 14.8303 11.0409 14.2503C11.0409 13.6703 10.8409 13.1803 10.4409 12.7803C10.0409 12.3803 9.56094 12.1803 9.00094 12.1803ZM9.00094 13.3203C9.24094 13.3203 9.46094 13.4103 9.66094 13.5903C9.86094 13.7703 9.96094 13.9903 9.96094 14.2503C9.96094 14.5103 9.86094 14.7303 9.66094 14.9103C9.46094 15.0903 9.24094 15.1803 9.00094 15.1803C8.76094 15.1803 8.54094 15.0903 8.34094 14.9103C8.14094 14.7303 8.04094 14.5103 8.04094 14.2503C8.04094 13.9903 8.14094 13.7703 8.34094 13.5903C8.54094 13.4103 8.76094 13.3203 9.00094 13.3203ZM15.0009 1.68031C14.4409 1.68031 13.9609 1.88031 13.5609 2.28031C13.1609 2.68031 12.9609 3.17031 12.9609 3.75031C12.9609 4.33031 13.1609 4.82031 13.5609 5.22031C13.9609 5.62031 14.4409 5.82031 15.0009 5.82031C15.5609 5.82031 16.0409 5.62031 16.4409 5.22031C16.8409 4.82031 17.0409 4.33031 17.0409 3.75031C17.0409 3.17031 16.8409 2.68031 16.4409 2.28031C16.0409 1.88031 15.5609 1.68031 15.0009 1.68031ZM15.0009 2.82031C15.2409 2.82031 15.4609 2.91031 15.6609 3.09031C15.8609 3.27031 15.9609 3.49031 15.9609 3.75031C15.9609 4.01031 15.8609 4.23031 15.6609 4.41031C15.4609 4.59031 15.2409 4.68031 15.0009 4.68031C14.7609 4.68031 14.5409 4.59031 14.3409 4.41031C14.1409 4.23031 14.0409 4.01031 14.0409 3.75031C14.0409 3.49031 14.1409 3.27031 14.3409 3.09031C14.5409 2.91031 14.7609 2.82031 15.0009 2.82031ZM15.0009 12.1803C14.4409 12.1803 13.9609 12.3803 13.5609 12.7803C13.1609 13.1803 12.9609 13.6703 12.9609 14.2503C12.9609 14.8303 13.1609 15.3203 13.5609 15.7203C13.9609 16.1203 14.4409 16.3203 15.0009 16.3203C15.5609 16.3203 16.0409 16.1203 16.4409 15.7203C16.8409 15.3203 17.0409 14.8303 17.0409 14.2503C17.0409 13.6703 16.8409 13.1803 16.4409 12.7803C16.0409 12.3803 15.5609 12.1803 15.0009 12.1803ZM15.0009 13.3203C15.2409 13.3203 15.4609 13.4103 15.6609 13.5903C15.8609 13.7703 15.9609 13.9903 15.9609 14.2503C15.9609 14.5103 15.8609 14.7303 15.6609 14.9103C15.4609 15.0903 15.2409 15.1803 15.0009 15.1803C14.7609 15.1803 14.5409 15.0903 14.3409 14.9103C14.1409 14.7303 14.0409 14.5103 14.0409 14.2503C14.0409 13.9903 14.1409 13.7703 14.3409 13.5903C14.5409 13.4103 14.7609 13.3203 15.0009 13.3203ZM2.46094 5.22031V12.7203C2.46094 12.8803 2.51094 13.0203 2.61094 13.1403C2.71094 13.2603 2.84094 13.3203 3.00094 13.3203C3.16094 13.3203 3.29094 13.2603 3.39094 13.1403C3.49094 13.0203 3.54094 12.9003 3.54094 12.7803V5.22031C3.54094 5.10031 3.49094 4.98031 3.39094 4.86031C3.29094 4.74031 3.16094 4.68031 3.00094 4.68031C2.84094 4.68031 2.71094 4.74031 2.61094 4.86031C2.51094 4.98031 2.46094 5.10031 2.46094 5.22031ZM8.46094 5.22031V12.7203C8.46094 12.8803 8.51094 13.0203 8.61094 13.1403C8.71094 13.2603 8.84094 13.3203 9.00094 13.3203C9.16094 13.3203 9.29094 13.2603 9.39094 13.1403C9.49094 13.0203 9.54094 12.9003 9.54094 12.7803V5.22031C9.54094 5.10031 9.49094 4.98031 9.39094 4.86031C9.29094 4.74031 9.16094 4.68031 9.00094 4.68031C8.84094 4.68031 8.71094 4.74031 8.61094 4.86031C8.51094 4.98031 8.46094 5.10031 8.46094 5.22031ZM14.4609 5.22031V8.22031C14.4609 8.30031 14.4409 8.36031 14.4009 8.40031C14.3609 8.44031 14.3209 8.46031 14.2809 8.46031H3.00094C2.84094 8.46031 2.71094 8.51031 2.61094 8.61031C2.51094 8.71031 2.46094 8.84031 2.46094 9.00031C2.46094 9.16031 2.51094 9.29031 2.61094 9.39031C2.71094 9.49031 2.84094 9.54031 3.00094 9.54031H14.2809C14.6409 9.54031 14.9409 9.42031 15.1809 9.18031C15.4209 8.94031 15.5409 8.62031 15.5409 8.22031V5.28031C15.5409 5.12031 15.4909 4.98031 15.3909 4.86031C15.2909 4.74031 15.1609 4.68031 15.0009 4.68031C14.8409 4.68031 14.7109 4.74031 14.6109 4.86031C14.5109 4.98031 14.4609 5.10031 14.4609 5.22031Z" fill="#99A1B7"/>
</svg>
