<svg width="44" height="44" viewBox="0 0 44 44" fill="none" xmlns="http://www.w3.org/2000/svg">
<g clip-path="url(#clip0_2708_4065)">
<path d="M44.0088 22C44.0088 9.84981 34.159 0 22.0088 0C9.8586 0 0.00878906 9.84981 0.00878906 22C0.00878906 32.9808 8.05391 42.0824 18.5713 43.7327V28.3594H12.9854V22H18.5713V17.1531C18.5713 11.6394 21.8558 8.59375 26.8811 8.59375C29.288 8.59375 31.8057 9.02344 31.8057 9.02344V14.4375H29.0316C26.2986 14.4375 25.4463 16.1334 25.4463 17.8733V22H31.5479L30.5725 28.3594H25.4463V43.7327C35.9637 42.0824 44.0088 32.9809 44.0088 22Z" fill="#1877F2"/>
<path d="M30.5725 28.3594L31.5479 22H25.4463V17.8733C25.4463 16.1332 26.2986 14.4375 29.0316 14.4375H31.8057V9.02344C31.8057 9.02344 29.288 8.59375 26.8809 8.59375C21.8558 8.59375 18.5713 11.6394 18.5713 17.1531V22H12.9854V28.3594H18.5713V43.7327C19.7084 43.9109 20.8578 44.0003 22.0088 44C23.1598 44.0003 24.3091 43.9109 25.4463 43.7327V28.3594H30.5725Z" fill="white"/>
</g>
<defs>
<clipPath id="clip0_2708_4065">
<rect width="44" height="44" fill="white" transform="translate(0.00878906)"/>
</clipPath>
</defs>
</svg>
