<svg width="45" height="44" viewBox="0 0 45 44" fill="none" xmlns="http://www.w3.org/2000/svg">
<path d="M40.4859 18.4095H39.0091V18.3334H22.5091V25.6667H32.8702C31.3586 29.9357 27.2969 33.0001 22.5091 33.0001C16.4344 33.0001 11.5091 28.0748 11.5091 22.0001C11.5091 15.9253 16.4344 11.0001 22.5091 11.0001C25.3132 11.0001 27.8643 12.0579 29.8067 13.7858L34.9923 8.60025C31.7179 5.54866 27.3381 3.66675 22.5091 3.66675C12.3845 3.66675 4.17578 11.8755 4.17578 22.0001C4.17578 32.1247 12.3845 40.3334 22.5091 40.3334C32.6337 40.3334 40.8424 32.1247 40.8424 22.0001C40.8424 20.7708 40.716 19.5709 40.4859 18.4095Z" fill="#FFC107"/>
<path d="M6.28906 13.4668L12.3125 17.8842C13.9423 13.8491 17.8895 11.0001 22.5086 11.0001C25.3126 11.0001 27.8637 12.0579 29.8061 13.7858L34.9917 8.60025C31.7174 5.54866 27.3376 3.66675 22.5086 3.66675C15.4667 3.66675 9.3599 7.64233 6.28906 13.4668Z" fill="#FF3D00"/>
<path d="M22.5088 40.3332C27.2443 40.3332 31.5471 38.521 34.8003 35.5739L29.1262 30.7724C27.224 32.2199 24.899 33.0025 22.5088 32.9999C17.7403 32.9999 13.6913 29.9593 12.166 25.7161L6.1875 30.3223C9.22167 36.2596 15.3835 40.3332 22.5088 40.3332Z" fill="#4CAF50"/>
<path d="M40.4855 18.4093H39.0088V18.3333H22.5088V25.6666H32.8699C32.1468 27.6983 30.8444 29.4737 29.1235 30.7733L29.1262 30.7715L34.8004 35.573C34.3989 35.9378 40.8421 31.1666 40.8421 21.9999C40.8421 20.7707 40.7156 19.5708 40.4855 18.4093Z" fill="#1976D2"/>
</svg>
