<svg width="18" height="18" viewBox="0 0 18 18" fill="none" xmlns="http://www.w3.org/2000/svg">
<path d="M5.31636 3.57231L4.56635 4.15772C3.42886 5.0456 2.86011 5.48954 2.55505 6.11549C2.25 6.74143 2.25 7.46452 2.25 8.91071V10.4791C2.25 13.3176 2.25 14.7369 3.12868 15.6187C4.00736 16.5005 5.42157 16.5005 8.25 16.5005H9.75C12.5784 16.5005 13.9927 16.5005 14.8713 15.6187C15.75 14.7369 15.75 13.3176 15.75 10.4791V8.91071C15.75 7.46452 15.75 6.74143 15.445 6.11549C15.1399 5.48954 14.5712 5.0456 13.4336 4.15772L12.6836 3.57231C10.9141 2.1911 10.0293 1.50049 9 1.50049C7.9707 1.50049 7.0859 2.1911 5.31636 3.57231Z" fill="#F5F6F8" stroke="#99A1B7" stroke-width="1.35" stroke-linejoin="round"/>
<path d="M6.75 15.3L6.75144 11.6978C6.75177 10.8603 6.75194 10.4415 6.86597 10.1112C7.01831 9.66987 7.31059 9.31923 7.67842 9.13671C7.95382 9 8.3028 9 9.00075 9C9.69893 9 10.048 9 10.3235 9.1368C10.6915 9.3195 10.9837 9.67023 11.136 10.1118C11.25 10.4423 11.25 10.8613 11.25 11.6991V15.3" stroke="#99A1B7" stroke-width="1.35"/>
</svg>
