<svg width="14" height="16" viewBox="0 0 14 16" fill="none" xmlns="http://www.w3.org/2000/svg">
<path fill-rule="evenodd" clip-rule="evenodd" d="M3.88225 1.8515C5.404 0.95075 6.1645 0.5 7 0.5C7.8355 0.5 8.596 0.95 10.1178 1.8515L10.6322 2.156C12.154 3.0575 12.9145 3.50825 13.3323 4.25C13.75 4.9925 13.75 5.8925 13.75 7.6955V8.3045C13.75 10.1068 13.75 11.0083 13.3323 11.75C12.9145 12.4917 12.154 12.9425 10.6322 13.8433L10.1178 14.1485C8.596 15.0492 7.8355 15.5 7 15.5C6.1645 15.5 5.404 15.05 3.88225 14.1485L3.36775 13.8433C1.846 12.9433 1.0855 12.4917 0.66775 11.75C0.25 11.0075 0.25 10.1075 0.25 8.3045V7.6955C0.25 5.8925 0.25 4.99175 0.66775 4.25C1.0855 3.50825 1.846 3.0575 3.36775 2.156L3.88225 1.8515ZM7.75 11C7.75 11.1989 7.67098 11.3897 7.53033 11.5303C7.38968 11.671 7.19891 11.75 7 11.75C6.80109 11.75 6.61032 11.671 6.46967 11.5303C6.32902 11.3897 6.25 11.1989 6.25 11C6.25 10.8011 6.32902 10.6103 6.46967 10.4697C6.61032 10.329 6.80109 10.25 7 10.25C7.19891 10.25 7.38968 10.329 7.53033 10.4697C7.67098 10.6103 7.75 10.8011 7.75 11ZM7 3.6875C7.14918 3.6875 7.29226 3.74676 7.39775 3.85225C7.50324 3.95774 7.5625 4.10082 7.5625 4.25V8.75C7.5625 8.89918 7.50324 9.04226 7.39775 9.14775C7.29226 9.25324 7.14918 9.3125 7 9.3125C6.85082 9.3125 6.70774 9.25324 6.60225 9.14775C6.49676 9.04226 6.4375 8.89918 6.4375 8.75V4.25C6.4375 4.10082 6.49676 3.95774 6.60225 3.85225C6.70774 3.74676 6.85082 3.6875 7 3.6875Z" fill="#097B09"/>
</svg>
