<svg width="44" height="44" viewBox="0 0 44 44" fill="none" xmlns="http://www.w3.org/2000/svg">
<g clip-path="url(#clip0_2708_3857)">
<path d="M33.6963 0H10.3213C4.62585 0 0.00878906 4.61706 0.00878906 10.3125V33.6875C0.00878906 39.3829 4.62585 44 10.3213 44H33.6963C39.3917 44 44.0088 39.3829 44.0088 33.6875V10.3125C44.0088 4.61706 39.3917 0 33.6963 0Z" fill="url(#paint0_radial_2708_3857)"/>
<path d="M33.6963 0H10.3213C4.62585 0 0.00878906 4.61706 0.00878906 10.3125V33.6875C0.00878906 39.3829 4.62585 44 10.3213 44H33.6963C39.3917 44 44.0088 39.3829 44.0088 33.6875V10.3125C44.0088 4.61706 39.3917 0 33.6963 0Z" fill="url(#paint1_radial_2708_3857)"/>
<path d="M22.0103 4.8125C17.3426 4.8125 16.7566 4.83295 14.9234 4.91631C13.0936 5.00019 11.8446 5.2898 10.7518 5.71484C9.62124 6.15381 8.66235 6.74111 7.70707 7.69673C6.75093 8.65219 6.16363 9.61108 5.72329 10.7412C5.29704 11.8343 5.00709 13.0838 4.92476 14.9127C4.84277 16.7461 4.82129 17.3322 4.82129 22.0002C4.82129 26.6681 4.84191 27.2522 4.9251 29.0854C5.00932 30.9152 5.29893 32.1642 5.72363 33.257C6.16295 34.3875 6.75024 35.3464 7.70587 36.3017C8.66098 37.2579 9.61987 37.8465 10.7496 38.2855C11.8432 38.7105 13.0924 39.0002 14.9219 39.084C16.7553 39.1674 17.3407 39.1878 22.0083 39.1878C26.6766 39.1878 27.2606 39.1674 29.0938 39.084C30.9236 39.0002 32.174 38.7105 33.2676 38.2855C34.3977 37.8465 35.3552 37.2579 36.3102 36.3017C37.2663 35.3464 37.8534 34.3875 38.2939 33.2575C38.7164 32.1642 39.0065 30.9148 39.0925 29.0857C39.1748 27.2525 39.1963 26.6681 39.1963 22.0002C39.1963 17.3322 39.1748 16.7465 39.0925 14.9131C39.0065 13.0833 38.7164 11.8345 38.2939 10.7417C37.8534 9.61108 37.2663 8.65219 36.3102 7.69673C35.3542 6.74077 34.3981 6.15347 33.2666 5.71502C32.1709 5.2898 30.9212 5.00002 29.0914 4.91631C27.258 4.83295 26.6743 4.8125 22.005 4.8125H22.0103ZM20.4684 7.90986C20.9261 7.90917 21.4368 7.90986 22.0103 7.90986C26.5996 7.90986 27.1434 7.92636 28.9556 8.00869C30.6314 8.08534 31.541 8.36533 32.1468 8.60063C32.949 8.91206 33.5208 9.28452 34.122 9.88625C34.7236 10.4878 35.0959 11.0607 35.4082 11.8628C35.6435 12.4678 35.9238 13.3774 36.0001 15.0532C36.0824 16.8651 36.1003 17.4092 36.1003 21.9962C36.1003 26.5832 36.0824 27.1275 36.0001 28.9393C35.9234 30.6151 35.6435 31.5246 35.4082 32.1298C35.0967 32.9319 34.7236 33.5031 34.122 34.1043C33.5205 34.7059 32.9493 35.0781 32.1468 35.3898C31.5417 35.6261 30.6314 35.9054 28.9556 35.982C27.1437 36.0644 26.5996 36.0822 22.0103 36.0822C17.4209 36.0822 16.8769 36.0644 15.0652 35.982C13.3894 35.9047 12.4799 35.6247 11.8735 35.3894C11.0715 35.0778 10.4985 34.7055 9.89693 34.104C9.29537 33.5024 8.92309 32.9309 8.61079 32.1284C8.37549 31.5233 8.09516 30.6137 8.01885 28.9379C7.93652 27.126 7.92002 26.5818 7.92002 21.9919C7.92002 17.402 7.93652 16.8608 8.01885 15.0489C8.09551 13.3731 8.37549 12.4635 8.61079 11.8577C8.9224 11.0555 9.29537 10.4827 9.8971 9.88109C10.4988 9.27953 11.0715 8.90708 11.8737 8.59495C12.4795 8.35862 13.3894 8.07933 15.0652 8.00233C16.6508 7.93066 17.2652 7.90917 20.4684 7.90556V7.90986ZM31.185 10.7637C30.0464 10.7637 29.1225 11.6866 29.1225 12.8255C29.1225 13.9642 30.0464 14.888 31.185 14.888C32.3237 14.888 33.2475 13.9642 33.2475 12.8255C33.2475 11.6868 32.3237 10.763 31.185 10.763V10.7637ZM22.0103 13.1735C17.136 13.1735 13.1839 17.1256 13.1839 22.0002C13.1839 26.8747 17.136 30.8249 22.0103 30.8249C26.8849 30.8249 30.8356 26.8747 30.8356 22.0002C30.8356 17.1258 26.8845 13.1735 22.01 13.1735H22.0103ZM22.0103 16.2709C25.1744 16.2709 27.7396 18.8358 27.7396 22.0002C27.7396 25.1642 25.1744 27.7295 22.0103 27.7295C18.8463 27.7295 16.2812 25.1642 16.2812 22.0002C16.2812 18.8358 18.8461 16.2709 22.0103 16.2709Z" fill="white"/>
</g>
<defs>
<radialGradient id="paint0_radial_2708_3857" cx="0" cy="0" r="1" gradientUnits="userSpaceOnUse" gradientTransform="translate(11.6963 47.3889) rotate(-90) scale(43.6073 40.5582)">
<stop stop-color="#FFDD55"/>
<stop offset="0.1" stop-color="#FFDD55"/>
<stop offset="0.5" stop-color="#FF543E"/>
<stop offset="1" stop-color="#C837AB"/>
</radialGradient>
<radialGradient id="paint1_radial_2708_3857" cx="0" cy="0" r="1" gradientUnits="userSpaceOnUse" gradientTransform="translate(-7.36138 3.16955) rotate(78.681) scale(19.4927 80.3495)">
<stop stop-color="#3771C8"/>
<stop offset="0.128" stop-color="#3771C8"/>
<stop offset="1" stop-color="#6600FF" stop-opacity="0"/>
</radialGradient>
<clipPath id="clip0_2708_3857">
<rect width="44" height="44" fill="white" transform="translate(0.00878906)"/>
</clipPath>
</defs>
</svg>
