<svg width="39" height="38" viewBox="0 0 39 38" fill="none" xmlns="http://www.w3.org/2000/svg">
<g clip-path="url(#clip0_2694_3268)">
<path d="M32.4032 32.3782H26.7728V23.5606C26.7728 21.4579 26.7352 18.7512 23.8444 18.7512C20.9119 18.7512 20.4632 21.0422 20.4632 23.4075V32.3776H14.8329V14.2451H20.238V16.7231H20.3137C20.8546 15.7982 21.6363 15.0374 22.5754 14.5216C23.5146 14.0057 24.576 13.7543 25.6467 13.794C31.3534 13.794 32.4055 17.5477 32.4055 22.431L32.4032 32.3782ZM8.4798 11.7666C6.67524 11.7669 5.21209 10.3042 5.2118 8.49965C5.2115 6.6951 6.67405 5.23195 8.47861 5.23165C10.2832 5.23121 11.7463 6.69391 11.7466 8.49846C11.7468 9.36505 11.4027 10.1962 10.79 10.8091C10.1774 11.422 9.34638 11.7664 8.4798 11.7666ZM11.2951 32.3783H5.65874V14.2451H11.2949L11.2951 32.3783ZM35.2101 0.0026436H2.82952C1.29913 -0.0145751 0.0440938 1.21137 0.0253906 2.74176V35.2574C0.0435 36.7886 1.29839 38.0157 2.82937 37.9997H35.2101C36.7444 38.0187 38.0042 36.7915 38.0254 35.2574V2.73924C38.0036 1.20588 36.7436 -0.0199189 35.2101 0.000120164" fill="#0A66C2"/>
</g>
<defs>
<clipPath id="clip0_2694_3268">
<rect width="38" height="38" fill="white" transform="translate(0.0253906)"/>
</clipPath>
</defs>
</svg>
