<svg width="14" height="14" viewBox="0 0 14 14" fill="none" xmlns="http://www.w3.org/2000/svg">
<path d="M6.41797 3.2085H12.2513" stroke="white" stroke-width="0.875" stroke-linecap="round"/>
<path d="M3.15 9.85418C3.77222 10.2709 4.08333 10.4793 4.08333 10.7918C4.08333 11.1044 3.77222 11.3128 3.15 11.7295C2.52778 12.1462 2.21667 12.3545 1.98333 12.1983C1.75 12.042 1.75 11.6253 1.75 10.7918C1.75 9.95837 1.75 9.54163 1.98333 9.38536C2.21667 9.22914 2.52778 9.43745 3.15 9.85418Z" stroke="white" stroke-width="0.875" stroke-linecap="round"/>
<path d="M3.15 2.2707C3.77222 2.68743 4.08333 2.89579 4.08333 3.20833C4.08333 3.52088 3.77222 3.72924 3.15 4.14596C2.52778 4.56269 2.21667 4.77105 1.98333 4.61478C1.75 4.45851 1.75 4.04178 1.75 3.20833C1.75 2.37488 1.75 1.95816 1.98333 1.80189C2.21667 1.64561 2.52778 1.85397 3.15 2.2707Z" stroke="white" stroke-width="0.875" stroke-linecap="round"/>
<path d="M6.41797 7H12.2513" stroke="white" stroke-width="0.875" stroke-linecap="round"/>
<path d="M6.41797 10.7915H12.2513" stroke="white" stroke-width="0.875" stroke-linecap="round"/>
</svg>
