<svg width="18" height="18" viewBox="0 0 18 18" fill="none" xmlns="http://www.w3.org/2000/svg">
<path d="M13.5005 8.24729C13.2064 7.64707 12.4116 6.76561 10.7782 6.80312C10.7782 6.80312 9.48285 6.74686 8.01847 6.74686C6.55414 6.74686 5.86858 6.78115 4.69552 6.80312C3.94456 6.78436 2.51774 6.95317 1.86066 8.50987C1.42886 9.82267 1.41008 12.5797 1.67292 13.9675C1.72924 14.6803 2.10472 15.6743 3.2687 16.1995C3.98211 16.5745 5.12732 16.4245 5.99092 16.4995M4.48901 6.14669C4.45146 4.36495 4.37636 2.95832 6.44149 1.79551C7.13613 1.51418 8.1687 1.27036 9.44535 1.87053C10.7782 2.677 10.9443 3.53048 11.0599 3.74604C11.379 4.59002 11.2101 5.79034 11.2476 6.27798" fill="#0D0D0D"/>
<path d="M13.5005 8.24729C13.2064 7.64707 12.4116 6.76561 10.7782 6.80312C10.7782 6.80312 9.48285 6.74686 8.01847 6.74686C6.55414 6.74686 5.86858 6.78115 4.69552 6.80312C3.94456 6.78436 2.51774 6.95317 1.86066 8.50987C1.42886 9.82267 1.41008 12.5797 1.67292 13.9675C1.72924 14.6803 2.10472 15.6743 3.2687 16.1995C3.98211 16.5745 5.12732 16.4245 5.99092 16.4995M4.48901 6.14669C4.45146 4.36495 4.37636 2.95832 6.44149 1.79551C7.13613 1.51418 8.1687 1.27036 9.44535 1.87053C10.7782 2.677 10.9443 3.53048 11.0599 3.74604C11.379 4.59002 11.2101 5.79034 11.2476 6.27798" stroke="#DD4848" stroke-width="1.22727" stroke-linecap="round"/>
<path d="M11.6255 14.8018C11.6255 15.7349 10.8688 16.4747 9.94189 16.4747C9.01504 16.4747 8.25049 15.7349 8.25049 14.8018C8.25049 13.8688 9.01504 13.1191 9.94189 13.1191C10.8688 13.1191 11.6255 13.8688 11.6255 14.8018Z" stroke="#DD4848" stroke-width="1.22727"/>
<path d="M11.4194 13.3429L12.9123 11.8859M12.9123 11.8859L13.9704 10.8677C14.2132 10.6609 14.7007 10.1766 15.2804 10.7314L16.5007 11.8859M12.9123 11.8859L14.1194 13.0449" stroke="#DD4848" stroke-width="1.22727" stroke-linecap="round"/>
</svg>
