<svg width="64" height="52" viewBox="0 0 64 52" fill="none" xmlns="http://www.w3.org/2000/svg">
<g clip-path="url(#clip0_2181_2575)">
<path d="M54 46.9C54 59 44.2 59 32 59C19.8 59 10 59 10 46.9C10 34.8 19.9 15 32 15C44.1 15 54 34.7 54 46.9Z" fill="#DBB471"/>
<path opacity="0.5" d="M54 46.9C54 42.8 52.9 37.8 50.9 33C51.3 36.1 50.5 41.6 41 43.7C27.5 46.6 34.5 50.4 29.2 50.9C24.7 51.3 12.7 49.5 10.3 42.7C10.1 44.2 9.90002 45.6 9.90002 47C10 59 19.9 59 32 59C44.1 59 54 59 54 46.9Z" fill="#89664C"/>
<path d="M34 55H31.7V59L41 64L62 57.5V54L54.2999 49.5L34 55Z" fill="#699635"/>
<path d="M32 52.7C32 52.7 34.4 56.6 41.2 60C41.2 60 51.8 59.5 62 52.7C62 52.7 56.1 49.8 54.4 46C54.4 46 50.4 51.6 32 52.7Z" fill="#83BF4F"/>
<path d="M27.5 54.9001L29.7 54.8L30 58.5L21.3 64L0.399976 59.5L0.0999756 56.2001L7.19998 51.3L27.5 54.9001Z" fill="#699635"/>
<path d="M29.2 52.6C29.2 52.6 27.1 56.5 20.8 60.2C20.8 60.2 10.5 60.5 0 55C0 55 5.6 51.8 6.9 48C6.9 48 11.3 53 29.2 52.6Z" fill="#83BF4F"/>
<path d="M24.2001 53.6999C24.2001 53.6999 23.9 54.4999 25.3 54.5999L21.6 57.6999C21.6 57.6999 19.4 57.4999 18.9 58.9999C18.9 58.9999 9.90005 57.9999 4.10005 55.4C4.10005 55.4 5.30005 54.4999 3.80005 53.8999C3.80005 53.8999 5.50005 52.6999 5.90005 51.5999C5.90005 51.5999 7.50005 51.7999 8.00005 50.5999C8.20005 50.4999 14.2001 54.0999 24.2001 53.6999Z" stroke="#699635" stroke-miterlimit="10"/>
<path d="M19 52.2C19 52.2 16.7 55.2 11.7 59.3L12 62L8.50005 61.2L8.30005 58.3C8.30005 58.3 13.4 53.6 14.5 51.3C14.4 51.3 16.2 51.9 19 52.2ZM42.1 51.5C42.1 51.5 43 53.9 49.8 58.3V61.2L53.7001 60V57C53.7001 57 49 53.7 46.2001 50.4L42.1 51.5Z" fill="#F9F3D9"/>
<path d="M36.4 48.3L34.2 48.2L34 52.3L42.9 58L63.8 52.3L63.9 48.7L56.6 43.6L36.4 48.3Z" fill="#699635"/>
<path d="M34.6 45.8C34.6 45.8 36.8 50 43.3 53.8C43.3 53.8 53.7 53.8 64 47.4C64 47.4 58.3 44.1 56.9 40C56.9 40 52.6 45.6 34.6 45.8Z" fill="#83BF4F"/>
<path d="M39.1 46.9C39.1 46.9 39.6 47.7 38 48L42.2 51.3C42.2 51.3 44.6 50.7 45.4 52.1C45.4 52.1 55.4 50.3 60 47.9C60 47.9 58.5 47.2 60 46.3C60 46.3 58.2 44.8 57.5 43.8C57.5 43.8 55.8 44.3 54.9 43.1C54.9 43.2 51.3 46.4 39.1 46.9Z" stroke="#699635" stroke-miterlimit="10"/>
<path d="M46.8 49.4C46.4 49.9 45.1 50.1 44 49.8C42.9 49.5 42.4 48.8 42.8 48.3C43.2 47.8 44.5 47.6 45.6 47.9C46.7 48.2 47.2 48.8 46.8 49.4Z" fill="#699635"/>
<path d="M44.8 45C44.8 45 47.2 48.2 52.3 52.5L52.2001 55.5L55.7001 54.5L55.8 51.3C55.8 51.3 50.6 46.3 49.3 43.9C49.4 43.9 47.7 44.6 44.8 45Z" fill="#F9F3D9"/>
<path d="M46 2C46 8.1 38.1 18 32 18C25.9 18 18 9.1 18 3C18 -3.1 18.9 3 25 3C25.9 3 30.1 0 32 0C33.3 0 37 3 39 3C44.3 3 46 -2.6 46 2Z" fill="#DBB471"/>
<path d="M30.1999 13.3C29.5999 13.7 26.6999 13.4 25.7999 14.1C24.5999 15 26.2999 17.1 25.0999 18.4C22.6999 20.8 20.7999 23.5 21.3999 25C22.3999 27.6 24.2999 20.2 25.9999 23C27.6999 25.8 27.3999 21.1 29.9999 23.5C32.5999 25.9 30.3999 19.2 32.8999 22.1C35.3999 25 35.4999 28.3 37.2999 28.3C39.3999 28.3 35.0999 20.4 37.8999 22.3C40.6999 24.2 43.7999 23.5 40.9999 20.6C40.0999 19.7 38.8999 18.1 37.4999 16.7C36.9999 16.2 37.3999 13.6 36.8999 13.2C36.2999 12.7 34.7999 14.3 34.1999 14C32.9999 13.4 33.3999 14.5 31.5999 14.8C30.3999 15.2 31.3999 12.5 30.1999 13.3Z" fill="#89664C"/>
<path d="M18.7 19.2C22.6 15.5 29.7 17.6 33.9 19.4C38 21.2 40.5 15.5 37.9 12.6C36.4 10.9 34 12.9 33.1 14.1C32.1 15.3 31.3 16.6 30.2 17.8C28.6 19.6 24.7 18.1 25.9 15.6C27.2 13 32.7 16 34.5 16.5C38 17.5 41.7 17.9 45.2 16.6C46.4 16.2 45.9 14.2 44.7 14.7C40.8 16.1 36.9 15.2 33.2 14C31.3 13.4 28.3 11.8 26.3 12.7C20.6 15.4 25.9 23.1 30.7 20.1C31.8 19.4 32.5 18.3 33.3 17.3C33.8 16.7 36.3 12.9 36.9 14.8C37.2 15.8 36.9 17.6 35.8 17.9C35.1 18.2 33.7 17.2 33 17C31.7 16.5 30.4 16.1 29 15.8C25.3 15 20.3 15.2 17.4 17.9C16.4 18.7 17.8 20.1 18.7 19.2Z" fill="#E8E8E8"/>
<path d="M44.8 0.5C43.8 1.3 42 3 39 3C37 3 33.3 0 32 0C30.1 0 25.9 3 25 3C21.7 3 19.9 1.3 19 0.6C19 0.6 20.1 5.1 23.5 7.4C26 9 25.7 7.1 27 5.3C28.3 3.5 29.2 2.6 31.5 7.1C32.7 9.6 35 0.3 36.8 3.3C40.1 8.8 41.3 5.8 44.8 0.5Z" fill="#89664C"/>
<path d="M52.4 52.4L52.2999 55.4L55.7999 54.4L55.9 51.2C55.9 51.3 53.8 52.1 52.4 52.4ZM49.7999 58.4V61.2999L53.7 60.0999V57.0999C53.6 56.9999 52.5999 57.6 49.7999 58.4ZM11.7 59.2L12 62L8.49995 61.2L8.29995 58.2999C8.19995 58.2999 9.59995 58.8 11.7 59.2Z" fill="#DBB471"/>
</g>
<defs>
<clipPath id="clip0_2181_2575">
<rect width="64" height="64" fill="white"/>
</clipPath>
</defs>
</svg>
