<svg width="34" height="33" viewBox="0 0 34 33" fill="none" xmlns="http://www.w3.org/2000/svg">
<path d="M27.5775 17.875C28.665 16.316 29.3027 14.4199 29.3027 12.375C29.3027 7.05926 24.9935 2.75 19.6777 2.75C14.362 2.75 10.0527 7.05925 10.0527 12.375C10.0527 13.8512 10.3851 15.2497 10.979 16.5" stroke="#097B09" stroke-width="1.40426" stroke-linecap="round" stroke-linejoin="round"/>
<path d="M4.55298 19.25H7.84586C8.25031 19.25 8.64921 19.3412 9.01096 19.5162L11.8187 20.8747C12.1804 21.0497 12.5793 21.1408 12.9838 21.1408H14.4174C15.8039 21.1408 16.928 22.2285 16.928 23.5703C16.928 23.6244 16.8909 23.6721 16.837 23.687L13.3432 24.6531C12.7164 24.8263 12.0454 24.766 11.4624 24.4838L8.46088 23.0317M16.928 22.6875L23.2431 20.7472C24.3626 20.3984 25.5727 20.812 26.274 21.7832C26.7811 22.4852 26.5746 23.4908 25.8359 23.917L15.502 29.8794C14.8447 30.2587 14.0693 30.3512 13.3463 30.1367L4.55298 27.5274" stroke="#097B09" stroke-width="1.61068" stroke-linecap="round" stroke-linejoin="round"/>
<path d="M19.678 8.25C18.1592 8.25 16.928 9.17341 16.928 10.3125C16.928 11.4516 18.1592 12.375 19.678 12.375C21.1968 12.375 22.428 13.2984 22.428 14.4375C22.428 15.5766 21.1968 16.5 19.678 16.5M19.678 8.25C20.8753 8.25 21.8939 8.82393 22.2715 9.625M19.678 8.25V6.875M19.678 16.5C18.4806 16.5 17.462 15.9261 17.0845 15.125M19.678 16.5V17.875" stroke="#097B09" stroke-width="1.40426" stroke-linecap="round"/>
</svg>
