<svg width="23" height="24" viewBox="0 0 23 24" fill="none" xmlns="http://www.w3.org/2000/svg">
<path d="M3.78271 9.34881H5.67405V3.6748H7.56538L10.7996 9.34881H15.1307V3.6748H17.0221V9.34881H18.9134V11.2401H17.0221V13.1315H18.9134V15.0228H17.0221V20.6968H15.1307L11.8871 15.0228H7.56538V20.6968H5.67405V15.0228H3.78271V13.1315H5.67405V11.2401H3.78271V9.34881ZM7.56538 9.34881H8.63399L7.56538 7.48584V9.34881ZM7.56538 11.2401V13.1315H10.7996L9.7215 11.2401H7.56538ZM15.1307 16.9141V15.0228H14.0432L15.1307 16.9141ZM11.8776 11.2401L12.9651 13.1315H15.1307V11.2401H11.8776Z" fill="white"/>
</svg>
