<svg width="45" height="44" viewBox="0 0 45 44" fill="none" xmlns="http://www.w3.org/2000/svg">
<g clip-path="url(#clip0_2702_3454)">
<path d="M44.0176 7.33887H36.6568C30.3318 7.33887 26.9401 7.70003 24.2854 10.9267C21.9499 8.90181 19.0341 7.66699 15.9547 7.39872C12.8753 7.13046 9.78986 7.84247 7.13939 9.433C4.48892 11.0235 2.40905 13.4112 1.19702 16.2547C-0.01501 19.0983 -0.297172 22.2522 0.39086 25.2657C1.07889 28.2792 2.7019 30.9982 5.02795 33.0339C7.35399 35.0697 10.264 36.3181 13.3422 36.6007C16.4203 36.8833 19.509 36.1857 22.1668 34.6075C24.8247 33.0293 26.9157 30.6514 28.1409 27.8135C33.9746 27.39 38.0226 23.9012 39.2968 18.3297C39.2968 18.3297 34.8986 19.4022 31.1751 18.3297C38.5414 16.9052 42.7856 12.7619 44.0176 7.33887ZM10.3026 21.9982C10.2997 21.2122 10.5082 20.4399 10.9062 19.7621C11.3043 19.0843 11.8773 18.526 12.5651 18.1457C13.253 17.7654 14.0305 17.5771 14.8162 17.6004C15.6019 17.6237 16.3668 17.8579 17.0309 18.2784C17.2261 16.9693 17.892 15.7763 18.9038 14.9231C19.9157 14.0698 21.204 13.615 22.5273 13.6437H22.5419C20.8553 16.9034 19.9624 19.789 18.8789 23.2925C18.5698 24.2961 17.9108 25.1554 17.0218 25.7142C16.1328 26.2731 15.0728 26.4944 14.0344 26.3379C12.9961 26.1814 12.0483 25.6575 11.3635 24.8615C10.6787 24.0655 10.3022 23.0501 10.3026 22V21.9982ZM14.6769 7.33887C11.7776 7.33887 8.94334 8.19862 6.53263 9.80941C4.12191 11.4202 2.24299 13.7097 1.13346 16.3883C0.0239297 19.067 -0.266374 22.0145 0.29926 24.8581C0.864893 27.7017 2.26106 30.3138 4.3112 32.3639C6.36135 34.4141 8.97339 35.8102 11.817 36.3759C14.6607 36.9415 17.6082 36.6512 20.2868 35.5417C22.9654 34.4321 25.2549 32.5532 26.8657 30.1425C28.4765 27.7318 29.3363 24.8975 29.3363 21.9982C29.3363 18.1103 27.7918 14.3816 25.0426 11.6325C22.2935 8.88333 18.5648 7.33887 14.6769 7.33887ZM14.6769 26.3945C13.8069 26.3945 12.9564 26.1365 12.233 25.6531C11.5097 25.1696 10.946 24.4825 10.6132 23.6786C10.2804 22.8748 10.1935 21.9902 10.3635 21.137C10.5335 20.2837 10.9528 19.5 11.5682 18.8851C12.1837 18.2701 12.9677 17.8516 13.8211 17.6823C14.6745 17.513 15.559 17.6006 16.3626 17.934C17.1662 18.2675 17.8528 18.8318 18.3356 19.5555C18.8185 20.2793 19.0758 21.13 19.0751 22C19.0756 22.5777 18.9621 23.1497 18.7412 23.6834C18.5204 24.2172 18.1964 24.7021 17.7879 25.1104C17.3793 25.5188 16.8943 25.8426 16.3605 26.0632C15.8266 26.2839 15.2545 26.3953 14.6769 26.3945Z" fill="#21C2E6"/>
</g>
<defs>
<clipPath id="clip0_2702_3454">
<rect width="44" height="44" fill="white" transform="translate(0.0175781)"/>
</clipPath>
</defs>
</svg>
