<svg width="14" height="14" viewBox="0 0 14 14" fill="none" xmlns="http://www.w3.org/2000/svg">
<path d="M12.25 1.3125C12.25 1.19647 12.2961 1.08519 12.3781 1.00314C12.4602 0.921094 12.5715 0.875 12.6875 0.875C12.8035 0.875 12.9148 0.921094 12.9969 1.00314C13.0789 1.08519 13.125 1.19647 13.125 1.3125C13.125 1.42853 13.0789 1.53981 12.9969 1.62186C12.9148 1.70391 12.8035 1.75 12.6875 1.75C12.5715 1.75 12.4602 1.70391 12.3781 1.62186C12.2961 1.53981 12.25 1.42853 12.25 1.3125ZM10.5 2.1875C10.5 2.07147 10.5461 1.96019 10.6281 1.87814C10.7102 1.79609 10.8215 1.75 10.9375 1.75C11.0535 1.75 11.1648 1.79609 11.2469 1.87814C11.3289 1.96019 11.375 2.07147 11.375 2.1875C11.375 2.30353 11.3289 2.41481 11.2469 2.49686C11.1648 2.57891 11.0535 2.625 10.9375 2.625C10.8215 2.625 10.7102 2.57891 10.6281 2.49686C10.5461 2.41481 10.5 2.30353 10.5 2.1875ZM9.18751 3.5C9.30354 3.5 9.41482 3.45391 9.49687 3.37186C9.57891 3.28981 9.62501 3.17853 9.62501 3.0625C9.62501 2.94647 9.57891 2.83519 9.49687 2.75314C9.41482 2.67109 9.30354 2.625 9.18751 2.625C9.07147 2.625 8.96019 2.67109 8.87815 2.75314C8.7961 2.83519 8.75001 2.94647 8.75001 3.0625C8.75001 3.17853 8.7961 3.28981 8.87815 3.37186C8.96019 3.45391 9.07147 3.5 9.18751 3.5ZM10.9375 3.5C10.8215 3.5 10.7102 3.54609 10.6281 3.62814C10.5461 3.71019 10.5 3.82147 10.5 3.9375C10.5 4.05353 10.5461 4.16481 10.6281 4.24686C10.7102 4.32891 10.8215 4.375 10.9375 4.375C11.0535 4.375 11.1648 4.32891 11.2469 4.24686C11.3289 4.16481 11.375 4.05353 11.375 3.9375C11.375 3.82147 11.3289 3.71019 11.2469 3.62814C11.1648 3.54609 11.0535 3.5 10.9375 3.5ZM12.6875 2.625C12.5715 2.625 12.4602 2.67109 12.3781 2.75314C12.2961 2.83519 12.25 2.94647 12.25 3.0625C12.25 3.17853 12.2961 3.28981 12.3781 3.37186C12.4602 3.45391 12.5715 3.5 12.6875 3.5C12.8035 3.5 12.9148 3.45391 12.9969 3.37186C13.0789 3.28981 13.125 3.17853 13.125 3.0625C13.125 2.94647 13.0789 2.83519 12.9969 2.75314C12.9148 2.67109 12.8035 2.625 12.6875 2.625ZM12.25 4.8125C12.25 4.69647 12.2961 4.58519 12.3781 4.50314C12.4602 4.42109 12.5715 4.375 12.6875 4.375C12.8035 4.375 12.9148 4.42109 12.9969 4.50314C13.0789 4.58519 13.125 4.69647 13.125 4.8125C13.125 4.92853 13.0789 5.03981 12.9969 5.12186C12.9148 5.20391 12.8035 5.25 12.6875 5.25C12.5715 5.25 12.4602 5.20391 12.3781 5.12186C12.2961 5.03981 12.25 4.92853 12.25 4.8125ZM9.61451 5.6315C9.60422 5.53637 9.56304 5.44724 9.49726 5.37775L7.87501 3.7555V2.1875C7.87501 2.07147 7.82891 1.96019 7.74687 1.87814C7.66482 1.79609 7.55354 1.75 7.43751 1.75H5.68838C5.57235 1.75 5.46107 1.79609 5.37902 1.87814C5.29698 1.96019 5.25088 2.07147 5.25088 2.1875V3.75638L3.62863 5.37775C3.56285 5.44724 3.52167 5.53637 3.51138 5.6315L3.50788 5.64638L3.50613 5.65425C3.50195 5.66483 3.49987 5.67612 3.50001 5.6875V11.5938C3.50001 12.439 4.18601 13.125 5.03126 13.125H8.09376C8.49987 13.125 8.88935 12.9637 9.17651 12.6765C9.46368 12.3893 9.62501 11.9999 9.62501 11.5938V5.6875C9.62442 5.67758 9.62296 5.66854 9.62063 5.66037L9.61888 5.65425L9.61451 5.6315ZM6.12588 2.625H7.00088V3.5H6.12588V2.625ZM5.86951 4.375H7.25726L8.13226 5.25H4.99451L5.86951 4.375Z" fill="#0D0D0D"/>
</svg>
