<svg width="15" height="19" viewBox="0 0 15 19" fill="none" xmlns="http://www.w3.org/2000/svg">
<g clip-path="url(#clip0_2181_1717)">
<path d="M12.7246 2.02975C11.9081 1.09916 10.4323 0.700195 8.54422 0.700195H3.06453C2.87772 0.700167 2.69702 0.7668 2.55495 0.888109C2.41288 1.00942 2.31876 1.17744 2.28951 1.36195L0.00787402 15.8327C-0.0374775 16.118 0.18348 16.3764 0.472698 16.3764H3.85567L4.70528 10.9875L4.67891 11.1563C4.73944 10.7753 5.06522 10.4944 5.451 10.4944H7.05858C10.2167 10.4944 12.6895 9.21164 13.4118 5.50096C13.4333 5.39121 13.4519 5.28439 13.4679 5.18004C13.3767 5.13176 13.3767 5.13176 13.4679 5.18004C13.683 3.80854 13.4664 2.87496 12.7246 2.02975Z" fill="#27346A"/>
<path d="M5.99973 4.68598C6.09219 4.64187 6.19336 4.61904 6.2958 4.61918H10.5918C11.1005 4.61918 11.575 4.65229 12.0086 4.72207C12.1299 4.74143 12.2506 4.76453 12.3705 4.79133C12.5405 4.82884 12.7084 4.87473 12.8738 4.92885C13.087 5.00004 13.2855 5.08295 13.468 5.18004C13.683 3.80801 13.4664 2.87496 12.7246 2.02975C11.9077 1.09916 10.4323 0.700195 8.54422 0.700195H3.06407C2.67823 0.700195 2.34998 0.981094 2.28951 1.36195L0.00787434 15.8321C-0.0374772 16.118 0.18348 16.376 0.47223 16.376H3.85567L5.61834 5.19809C5.63569 5.08822 5.67946 4.98421 5.7459 4.89501C5.81233 4.8058 5.89944 4.73407 5.99973 4.68598Z" fill="#27346A"/>
<path d="M13.4122 5.50085C12.6898 9.21101 10.2171 10.4943 7.05891 10.4943H5.45086C5.06508 10.4943 4.73924 10.7752 4.6793 11.1561L3.62233 17.8566C3.58284 18.1064 3.77596 18.3326 4.02862 18.3326H6.88037C7.04373 18.3326 7.20171 18.2743 7.32591 18.1682C7.45011 18.062 7.53236 17.9151 7.55789 17.7537L7.58567 17.6084L8.12315 14.202L8.15778 14.0138C8.1833 13.8524 8.26555 13.7055 8.38974 13.5994C8.51392 13.4932 8.67189 13.4349 8.83524 13.4349H9.26203C12.0246 13.4349 14.1877 12.3125 14.8198 9.06669C15.0836 7.71024 14.9471 6.57774 14.2491 5.78228C14.0374 5.54134 13.7745 5.34235 13.4682 5.17993C13.4517 5.28481 13.4337 5.3911 13.4122 5.50085Z" fill="#2790C3"/>
<path d="M12.7122 4.87853C12.5996 4.84565 12.4859 4.81653 12.3713 4.79123C12.2514 4.76485 12.1307 4.74191 12.0094 4.72244C11.5754 4.65218 11.1012 4.61902 10.592 4.61902H6.29658C6.19408 4.61885 6.09286 4.64186 6.00051 4.68634C5.90009 4.73426 5.81286 4.80595 5.7464 4.89518C5.67993 4.98442 5.63622 5.08851 5.61906 5.19845L4.70605 10.9874L4.67969 11.1561C4.73975 10.7752 5.06553 10.4943 5.45137 10.4943H7.05941C10.2175 10.4943 12.6903 9.21154 13.4126 5.50086C13.4341 5.39111 13.4522 5.28476 13.4688 5.17994C13.2859 5.08345 13.0878 4.99988 12.8746 4.92921C12.8208 4.91138 12.7667 4.89448 12.7123 4.87853" fill="#1F264F"/>
</g>
<defs>
<clipPath id="clip0_2181_1717">
<rect width="15" height="17.6953" fill="white" transform="translate(0 0.652344)"/>
</clipPath>
</defs>
</svg>
