<svg width="45" height="44" viewBox="0 0 45 44" fill="none" xmlns="http://www.w3.org/2000/svg">
<g clip-path="url(#clip0_2702_3399)">
<path d="M0.517578 22.0003C0.517578 31.009 5.93473 38.7482 13.6865 42.1508C13.6246 40.6146 13.6755 38.7704 14.0694 37.0989C14.4924 35.3129 16.9002 25.1109 16.9002 25.1109C16.9002 25.1109 16.1974 23.7062 16.1974 21.6301C16.1974 18.3698 18.087 15.9349 20.4403 15.9349C22.4414 15.9349 23.4082 17.4379 23.4082 19.2378C23.4082 21.2494 22.1252 24.2584 21.4654 27.0454C20.9142 29.3791 22.6355 31.2826 24.9377 31.2826C29.1061 31.2826 31.9135 25.9289 31.9135 19.5857C31.9135 14.7639 28.6659 11.1549 22.7591 11.1549C16.0855 11.1549 11.928 16.1317 11.928 21.6908C11.928 23.6075 12.4931 24.9592 13.3783 26.0059C13.7853 26.4866 13.8418 26.68 13.6945 27.232C13.589 27.6368 13.3467 28.6113 13.2463 28.9975C13.0999 29.5548 12.6483 29.754 12.1448 29.5482C9.07094 28.2934 7.63939 24.9272 7.63939 21.1432C7.63939 14.8937 12.9101 7.39991 23.3629 7.39991C31.7624 7.39991 37.2907 13.4781 37.2907 20.0026C37.2907 28.633 32.4927 35.0805 25.42 35.0805C23.0449 35.0805 20.8107 33.7966 20.0453 32.3383C20.0453 32.3383 18.7681 37.4072 18.4976 38.386C18.0311 40.0823 17.1181 41.7777 16.2833 43.099C18.3076 43.6976 20.4075 44.0014 22.5184 44.0012C34.6673 44.0012 44.5177 34.1512 44.5177 22.0003C44.5177 9.84998 34.6673 0 22.5184 0C10.3684 0 0.517578 9.84998 0.517578 22.0003Z" fill="#CB1F27"/>
</g>
<defs>
<clipPath id="clip0_2702_3399">
<rect width="44" height="44" fill="white" transform="translate(0.517578)"/>
</clipPath>
</defs>
</svg>
