<svg width="11" height="11" viewBox="0 0 11 11" fill="none" xmlns="http://www.w3.org/2000/svg">
<g clip-path="url(#clip0_6725_20261)">
<path d="M4.05176 6.75127C4.05176 5.47849 4.05176 4.8421 4.44716 4.44668C4.84259 4.05127 5.47898 4.05127 6.75176 4.05127H7.20176C8.47454 4.05127 9.11093 4.05127 9.50634 4.44668C9.90176 4.8421 9.90176 5.47849 9.90176 6.75127V7.20127C9.90176 8.47405 9.90176 9.11044 9.50634 9.50586C9.11093 9.90127 8.47454 9.90127 7.20176 9.90127H6.75176C5.47898 9.90127 4.84259 9.90127 4.44716 9.50586C4.05176 9.11044 4.05176 8.47405 4.05176 7.20127V6.75127Z" stroke="#097B09" stroke-linecap="round" stroke-linejoin="round"/>
<path d="M7.65132 4.05039C7.65024 2.7197 7.63013 2.03044 7.24277 1.55848C7.16798 1.46734 7.08441 1.38377 6.99329 1.30897C6.49541 0.900391 5.75574 0.900391 4.27637 0.900391C2.797 0.900391 2.05732 0.900391 1.55946 1.30897C1.46832 1.38377 1.38475 1.46734 1.30995 1.55848C0.901367 2.05634 0.901367 2.79603 0.901367 4.27539C0.901367 5.75477 0.901367 6.49443 1.30995 6.99231C1.38474 7.08344 1.46832 7.167 1.55946 7.24179C2.03141 7.62915 2.72068 7.64927 4.05137 7.65035" stroke="#097B09" stroke-linecap="round" stroke-linejoin="round"/>
</g>
<defs>
<clipPath id="clip0_6725_20261">
<rect width="10.8" height="10.8" fill="white"/>
</clipPath>
</defs>
</svg>
