<svg width="44" height="44" viewBox="0 0 44 44" fill="none" xmlns="http://www.w3.org/2000/svg">
<g clip-path="url(#clip0_2708_3710)">
<path d="M22 44C34.1503 44 44 34.1503 44 22C44 9.84974 34.1503 0 22 0C9.84974 0 0 9.84974 0 22C0 34.1503 9.84974 44 22 44Z" fill="#FF4500"/>
<path d="M36.6355 22.2097C36.6355 20.4263 35.1933 19.0099 33.4358 19.0099C32.6055 19.0088 31.8069 19.3283 31.2065 19.9017C29.0034 18.3279 25.987 17.3052 22.63 17.1741L24.0985 10.3024L28.872 11.325C28.9247 12.5316 29.9211 13.5022 31.1541 13.5022C32.4129 13.5022 33.4358 12.4795 33.4358 11.22C33.4358 9.96118 32.4131 8.93835 31.1541 8.93835C30.2624 8.93835 29.4752 9.46292 29.1081 10.2236L23.7841 9.09579C23.6267 9.06932 23.4692 9.09579 23.3642 9.17451C23.2331 9.25323 23.1545 9.3842 23.1286 9.54164L21.502 17.2C18.0925 17.3052 15.0236 18.3279 12.7944 19.928C12.194 19.3546 11.3953 19.0351 10.565 19.0364C8.78148 19.0364 7.36523 20.4786 7.36523 22.2361C7.36523 23.5474 8.15191 24.6488 9.2538 25.1475C9.20029 25.4682 9.17396 25.7928 9.17508 26.1179C9.17508 31.0484 14.9191 35.0616 22.0006 35.0616C29.0822 35.0616 34.8262 31.0748 34.8262 26.1179C34.8262 25.7929 34.7999 25.4684 34.7475 25.1475C35.8489 24.6488 36.6355 23.5209 36.6355 22.2097ZM14.6565 24.4913C14.6565 23.2325 15.6792 22.2097 16.9387 22.2097C18.1975 22.2097 19.2203 23.2323 19.2203 24.4913C19.2203 25.7503 18.1977 26.7735 16.9387 26.7735C15.6793 26.7993 14.6565 25.7503 14.6565 24.4913ZM27.4298 30.5501C25.8561 32.1239 22.866 32.229 22.0006 32.229C21.1089 32.229 18.1189 32.0975 16.571 30.5501C16.3354 30.3141 16.3354 29.9468 16.571 29.7108C16.8072 29.4752 17.1743 29.4752 17.4105 29.7108C18.4073 30.7077 20.5056 31.0484 22.0006 31.0484C23.4955 31.0484 25.6199 30.7075 26.5903 29.7108C26.8265 29.4752 27.1936 29.4752 27.4298 29.7108C27.6394 29.9468 27.6394 30.3141 27.4298 30.5501ZM27.0099 26.7994C25.7509 26.7994 24.7282 25.7768 24.7282 24.5178C24.7282 23.2588 25.7509 22.2361 27.0099 22.2361C28.2692 22.2361 29.2918 23.2588 29.2918 24.5178C29.2918 25.7501 28.2692 26.7994 27.0099 26.7994Z" fill="white"/>
</g>
<defs>
<clipPath id="clip0_2708_3710">
<rect width="44" height="44" fill="white"/>
</clipPath>
</defs>
</svg>
