<svg width="44" height="44" viewBox="0 0 44 44" fill="none" xmlns="http://www.w3.org/2000/svg">
<g clip-path="url(#clip0_2708_3683)">
<path d="M26.4975 24.8344C26.8491 24.5491 27.141 24.1974 27.3566 23.7993C27.5723 23.4012 27.7073 22.9646 27.7542 22.5142C27.801 22.0639 27.7586 21.6088 27.6295 21.1749C27.5004 20.7409 27.287 20.3367 27.0017 19.9852C26.8504 19.8012 26.6815 19.6323 26.4975 19.481C24.0775 17.4708 21.4223 15.7619 18.5903 14.3917C16.636 13.4567 14.4543 14.7584 14.1427 16.984C13.6623 20.3247 13.5762 23.7103 13.886 27.071C14.0987 29.326 16.2547 30.6717 18.2347 29.8064C21.1984 28.5322 23.977 26.8648 26.4957 24.849L26.4975 24.8344ZM39.2062 14.9344C41.0053 16.9055 42.0048 19.4767 42.0096 22.1454C42.0143 24.8142 41.0239 27.3888 39.2318 29.3664C32.8293 36.4329 24.4649 41.4296 15.2078 43.7177C12.8402 44.3102 10.3349 43.9565 8.22387 42.7317C6.11284 41.507 4.56235 39.5075 3.90166 37.158C1.10765 27.6247 1.51832 16.8447 4.21332 7.26554C5.62866 2.23671 10.3605 -0.922122 15.2317 0.240211C24.2608 2.39254 32.7308 7.93288 39.2062 14.9307V14.9344Z" fill="#11F328"/>
</g>
<defs>
<clipPath id="clip0_2708_3683">
<rect width="44" height="44" fill="white"/>
</clipPath>
</defs>
</svg>
