<svg width="15" height="17" viewBox="0 0 15 17" fill="none" xmlns="http://www.w3.org/2000/svg">
<path d="M14 7.63238V5.53576C14 4.35132 14 3.75909 13.7081 3.37271C13.4163 2.98632 12.7564 2.79874 11.4366 2.42357C10.5349 2.16726 9.74004 1.85846 9.10499 1.57654C8.23912 1.19218 7.80622 1 7.5 1C7.19378 1 6.76088 1.19218 5.89501 1.57654C5.25995 1.85846 4.46511 2.16725 3.56341 2.42357C2.24362 2.79874 1.58371 2.98632 1.29186 3.37271C1 3.75909 1 4.35132 1 5.53576V7.63238C1 11.695 4.65644 14.1325 6.48456 15.0973C6.92302 15.3287 7.14221 15.4444 7.5 15.4444C7.85779 15.4444 8.07698 15.3287 8.51544 15.0973C10.3435 14.1325 14 11.695 14 7.63238Z" fill="#F5F6F8" stroke="#99A1B7" stroke-width="1.18182" stroke-linecap="round"/>
<path d="M13.7372 3.49512L4.34863 12.8866" stroke="#99A1B7" stroke-width="1.18182" stroke-linecap="round" stroke-linejoin="round"/>
</svg>
