<svg width="45" height="44" viewBox="0 0 45 44" fill="none" xmlns="http://www.w3.org/2000/svg">
<path d="M29.7249 32.9322C30.1466 29.4873 27.9282 27.291 22.0707 25.421C19.2327 24.453 17.8962 23.1843 17.9274 21.4408C18.0466 19.5048 19.8487 18.095 22.2394 18.0492C24.1221 18.0695 25.9584 18.6363 27.5249 19.6808C27.7376 19.8128 27.8861 19.7908 28.0071 19.6075C28.1721 19.3435 28.5846 18.7037 28.7221 18.4708C28.8156 18.3242 28.8339 18.1298 28.5974 17.9575C28.2582 17.7063 27.3067 17.1967 26.7952 16.9822C25.3385 16.3656 23.7736 16.0453 22.1917 16.0398C18.6901 16.0545 15.9346 18.2673 15.7017 21.2208C15.5526 23.3548 16.6098 25.0824 18.8734 26.4037C19.3556 26.6823 21.9534 27.7163 22.9874 28.039C26.2397 29.051 27.9282 30.866 27.5304 32.9835C27.1692 34.903 25.1489 36.1442 22.3641 36.1808C20.1586 36.0965 18.1712 35.1963 16.6312 33.9992L16.3727 33.7975C16.1821 33.6508 15.9731 33.66 15.8466 33.8525C15.7549 33.9937 15.1572 34.8553 15.0069 35.0808C14.8657 35.2788 14.9427 35.3888 15.0894 35.5098C15.7311 36.047 16.5872 36.6337 17.1684 36.9307C18.7782 37.751 20.5491 38.2061 22.3549 38.2635C23.655 38.3253 24.953 38.1039 26.1591 37.6145C28.1666 36.762 29.4646 35.0588 29.7249 32.9322ZM22.4997 2.5685C18.7084 2.5685 15.6174 6.1435 15.4726 10.6168H29.5251C29.3766 6.14167 26.2874 2.56667 22.4997 2.56667M36.8932 43.9963L36.7466 43.9982L7.80922 43.9945C5.84022 43.9212 4.39372 42.3262 4.19572 40.3443L4.17739 39.9868L2.88122 11.5225C2.87273 11.4082 2.88764 11.2933 2.92505 11.1849C2.96246 11.0765 3.02158 10.9769 3.09879 10.8921C3.17601 10.8073 3.2697 10.7392 3.37414 10.6919C3.47859 10.6445 3.59158 10.619 3.70622 10.6168H12.8271C13.0489 4.708 17.2931 0 22.4997 0C27.7064 0 31.9469 4.70983 32.1706 10.615H41.2786C41.3926 10.6154 41.5055 10.6388 41.6102 10.6841C41.7149 10.7293 41.8094 10.7953 41.8879 10.8781C41.9664 10.9608 42.0273 11.0587 42.0669 11.1657C42.1065 11.2727 42.1239 11.3866 42.1182 11.5005L40.7011 40.0785L40.6882 40.3187C40.5159 42.3243 38.8934 43.9432 36.8932 43.9963Z" fill="#FF0000"/>
</svg>
