<svg width="45" height="44" viewBox="0 0 45 44" fill="none" xmlns="http://www.w3.org/2000/svg">
<path d="M39.8033 0H5.23186C2.62919 0 0.517578 2.11161 0.517578 4.71429V39.2857C0.517578 41.8884 2.62919 44 5.23186 44H39.8033C42.406 44 44.5176 41.8884 44.5176 39.2857V4.71429C44.5176 2.11161 42.406 0 39.8033 0ZM39.1649 30.9277C38.8211 31.7232 37.3872 32.3027 34.7649 32.7152C34.6274 32.9018 34.5194 33.6777 34.3426 34.2768C34.2345 34.6402 33.9792 34.8562 33.547 34.8562H33.5274C32.9185 34.8562 32.2703 34.5714 30.9935 34.5714C29.2649 34.5714 28.6658 34.9643 27.3203 35.917C25.8961 36.9286 24.531 37.7929 22.4881 37.7045C20.4256 37.8616 18.697 36.6045 17.7247 35.917C16.3694 34.9643 15.7801 34.5714 14.0515 34.5714C12.8238 34.5714 12.0479 34.8759 11.5176 34.8759C10.9872 34.8759 10.781 34.5518 10.7024 34.2866C10.5256 33.6875 10.4176 32.9018 10.2801 32.7152C8.92472 32.5089 5.88008 31.9786 5.81133 30.6134C5.79169 30.2598 6.03722 29.9455 6.39079 29.8866C10.9381 29.1402 12.981 24.475 13.0694 24.2786C13.0694 24.2688 13.0792 24.2589 13.089 24.2491C13.3345 23.758 13.3836 23.3455 13.2462 23.0214C12.9122 22.2455 11.4881 21.9705 10.889 21.725C9.33722 21.1161 9.12115 20.4089 9.21936 19.9277C9.37651 19.0929 10.6336 18.5723 11.3703 18.9161C11.9497 19.1911 12.4703 19.3286 12.9122 19.3286C13.2363 19.3286 13.4524 19.25 13.5604 19.1911C13.4229 16.8438 13.0988 13.4946 13.9337 11.6187C16.1435 6.67857 20.8185 6.28571 22.1935 6.28571C22.2524 6.28571 22.7926 6.27589 22.8515 6.27589C26.2595 6.27589 29.5301 8.02411 31.131 11.6089C31.9658 13.4848 31.6417 16.8241 31.5042 19.1812C31.6122 19.2402 31.789 19.3089 32.064 19.3187C32.4863 19.2991 32.9676 19.1616 33.5078 18.9062C33.9006 18.7196 34.4506 18.7491 34.8435 18.9062C35.4622 19.1321 35.8551 19.5741 35.8649 20.075C35.8747 20.7134 35.3051 21.2634 34.1756 21.7054C34.0381 21.7643 33.8711 21.8134 33.6944 21.8723C33.056 22.0786 32.0836 22.383 31.8283 23.0018C31.6908 23.3259 31.7497 23.7384 31.9854 24.2295C31.9953 24.2393 31.9953 24.2491 32.0051 24.2589C32.0935 24.4554 34.1363 29.1205 38.6837 29.867C39.0765 29.9652 39.381 30.4071 39.1649 30.9277Z" fill="#FFD100"/>
</svg>
