<svg width="44" height="44" viewBox="0 0 44 44" fill="none" xmlns="http://www.w3.org/2000/svg">
<g clip-path="url(#clip0_2699_3304)">
<path d="M22 0C9.84981 0 0 9.84998 0 22C0 34.1509 9.84998 44 22 44C34.151 44 44 34.1509 44 22C44 9.85084 34.151 0.00120312 21.9997 0.00120312L22 0ZM32.0889 31.7305C31.6948 32.3768 30.8488 32.5817 30.2026 32.185C25.0372 29.0299 18.5348 28.3152 10.8769 30.0649C10.5223 30.1456 10.1502 30.0822 9.84228 29.8886C9.5344 29.695 9.31603 29.387 9.23519 29.0324C9.19493 28.8569 9.18968 28.6752 9.21974 28.4976C9.24979 28.32 9.31456 28.1501 9.41035 27.9976C9.50613 27.8451 9.63104 27.713 9.77794 27.6088C9.92484 27.5047 10.0908 27.4305 10.2664 27.3905C18.6471 25.4758 25.8354 26.3001 31.6345 29.8442C32.2807 30.2409 32.4856 31.0843 32.0889 31.7305ZM34.7817 25.7402C34.2849 26.5471 33.2289 26.802 32.4225 26.3055C26.509 22.6707 17.4946 21.6179 10.5002 23.7411C9.59303 24.0151 8.635 23.5039 8.35966 22.5983C8.08638 21.6911 8.59787 20.7348 9.50348 20.4591C17.4931 18.0347 27.4258 19.2091 34.2169 23.3822C35.0233 23.8789 35.2782 24.9348 34.7817 25.7402ZM35.0128 19.5023C27.9223 15.2907 16.224 14.9033 9.45433 16.9582C8.36722 17.2879 7.21755 16.6741 6.88823 15.587C6.55875 14.4994 7.17183 13.3506 8.2598 13.02C16.0308 10.6609 28.9496 11.1169 37.1128 15.9631C38.0928 16.5433 38.4132 17.8062 37.8326 18.7827C37.2548 19.7606 35.9884 20.0829 35.0139 19.5023H35.0128Z" fill="#1ED760"/>
</g>
<defs>
<clipPath id="clip0_2699_3304">
<rect width="44" height="44" fill="white"/>
</clipPath>
</defs>
</svg>
