<svg width="24" height="24" viewBox="0 0 24 24" fill="none" xmlns="http://www.w3.org/2000/svg">
<path d="M14.25 6C14.4489 6 14.6397 5.92098 14.7803 5.78033C14.921 5.63968 15 5.44891 15 5.25C15 5.05109 14.921 4.86032 14.7803 4.71967C14.6397 4.57902 14.4489 4.5 14.25 4.5C14.0511 4.5 13.8603 4.57902 13.7197 4.71967C13.579 4.86032 13.5 5.05109 13.5 5.25C13.5 5.44891 13.579 5.63968 13.7197 5.78033C13.8603 5.92098 14.0511 6 14.25 6ZM16.5 3.75C16.5 3.55109 16.579 3.36032 16.7197 3.21967C16.8603 3.07902 17.0511 3 17.25 3C17.4489 3 17.6397 3.07902 17.7803 3.21967C17.921 3.36032 18 3.55109 18 3.75C18 3.94891 17.921 4.13968 17.7803 4.28033C17.6397 4.42098 17.4489 4.5 17.25 4.5C17.0511 4.5 16.8603 4.42098 16.7197 4.28033C16.579 4.13968 16.5 3.94891 16.5 3.75ZM16.5 6.75C16.5 6.55109 16.579 6.36032 16.7197 6.21967C16.8603 6.07902 17.0511 6 17.25 6C17.4489 6 17.6397 6.07902 17.7803 6.21967C17.921 6.36032 18 6.55109 18 6.75C18 6.94891 17.921 7.13968 17.7803 7.28033C17.6397 7.42098 17.4489 7.5 17.25 7.5C17.0511 7.5 16.8603 7.42098 16.7197 7.28033C16.579 7.13968 16.5 6.94891 16.5 6.75ZM19.5 2.25C19.5 2.05109 19.579 1.86032 19.7197 1.71967C19.8603 1.57902 20.0511 1.5 20.25 1.5C20.4489 1.5 20.6397 1.57902 20.7803 1.71967C20.921 1.86032 21 2.05109 21 2.25C21 2.44891 20.921 2.63968 20.7803 2.78033C20.6397 2.92098 20.4489 3 20.25 3C20.0511 3 19.8603 2.92098 19.7197 2.78033C19.579 2.63968 19.5 2.44891 19.5 2.25ZM19.5 5.25C19.5 5.05109 19.579 4.86032 19.7197 4.71967C19.8603 4.57902 20.0511 4.5 20.25 4.5C20.4489 4.5 20.6397 4.57902 20.7803 4.71967C20.921 4.86032 21 5.05109 21 5.25C21 5.44891 20.921 5.63968 20.7803 5.78033C20.6397 5.92098 20.4489 6 20.25 6C20.0511 6 19.8603 5.92098 19.7197 5.78033C19.579 5.63968 19.5 5.44891 19.5 5.25ZM19.5 8.25C19.5 8.05109 19.579 7.86032 19.7197 7.71967C19.8603 7.57902 20.0511 7.5 20.25 7.5C20.4489 7.5 20.6397 7.57902 20.7803 7.71967C20.921 7.86032 21 8.05109 21 8.25C21 8.44891 20.921 8.63968 20.7803 8.78033C20.6397 8.92098 20.4489 9 20.25 9C20.0511 9 19.8603 8.92098 19.7197 8.78033C19.579 8.63968 19.5 8.44891 19.5 8.25ZM14.9625 9.558C14.9715 9.589 14.978 9.621 14.982 9.654L14.9895 9.693C14.9965 9.711 15 9.73 15 9.75V19.875C15 20.5712 14.7234 21.2389 14.2312 21.7312C13.7389 22.2234 13.0712 22.5 12.375 22.5H7.125C6.42881 22.5 5.76113 22.2234 5.26884 21.7312C4.77656 21.2389 4.5 20.5712 4.5 19.875V9.75C4.5 9.73 4.5035 9.711 4.5105 9.693C4.5145 9.681 4.5175 9.668 4.5195 9.654C4.53713 9.49092 4.60773 9.33812 4.7205 9.219L7.5015 6.4395V3.75C7.5015 3.55109 7.58052 3.36032 7.72117 3.21967C7.86182 3.07902 8.05259 3 8.2515 3H11.25C11.4489 3 11.6397 3.07902 11.7803 3.21967C11.921 3.36032 12 3.55109 12 3.75V6.438L14.781 9.219C14.8699 9.31431 14.9325 9.43115 14.9625 9.558ZM10.5015 4.5H9.0015V6H10.5015V4.5ZM10.941 7.5H8.562L7.062 9H12.441L10.941 7.5ZM12.3765 21C12.6749 21 12.961 20.8815 13.172 20.6705C13.383 20.4595 13.5015 20.1734 13.5015 19.875V10.5H6.0015V19.875C6.0015 20.496 6.5055 21 7.1265 21H12.3765Z" fill="#097B09"/>
</svg>
