<svg width="18" height="17" viewBox="0 0 18 17" fill="none" xmlns="http://www.w3.org/2000/svg">
<path d="M7.68754 1.53933C8.10065 0.267923 9.89935 0.267921 10.3125 1.53933L11.3843 4.83824C11.5691 5.40683 12.0989 5.7918 12.6968 5.7918H16.1655C17.5023 5.7918 18.0581 7.50246 16.9766 8.28824L14.1704 10.3271C13.6867 10.6785 13.4843 11.3014 13.6691 11.87L14.741 15.1689C15.1541 16.4403 13.6989 17.4975 12.6174 16.7118L9.81114 14.6729C9.32747 14.3215 8.67253 14.3215 8.18886 14.6729L5.38264 16.7118C4.30111 17.4975 2.84593 16.4403 3.25904 15.1689L4.33092 11.87C4.51566 11.3014 4.31327 10.6785 3.8296 10.3271L1.02338 8.28824C-0.0581417 7.50247 0.497688 5.7918 1.83453 5.7918H5.3032C5.90105 5.7918 6.43091 5.40683 6.61566 4.83824L7.68754 1.53933Z" fill="#0B930B"/>
</svg>
