<svg width="39" height="38" viewBox="0 0 39 38" fill="none" xmlns="http://www.w3.org/2000/svg">
<g clip-path="url(#clip0_2694_3264)">
<path d="M19.5249 0.508789C14.5544 0.508789 9.78305 2.48499 6.27117 5.9992C2.7557 9.51483 0.780303 14.2827 0.779297 19.2544C0.779297 24.224 2.75637 28.9954 6.27117 32.5096C9.78305 36.0238 14.5544 38 19.5249 38C24.4954 38 29.2668 36.0238 32.7786 32.5096C36.2934 28.9954 38.2705 24.224 38.2705 19.2544C38.2705 14.2848 36.2934 9.51342 32.7786 5.9992C29.2668 2.48499 24.4954 0.508789 19.5249 0.508789Z" fill="url(#paint0_linear_2694_3264)"/>
<path d="M9.26445 19.0563C14.73 16.6757 18.3736 15.1061 20.1955 14.3477C25.4032 12.1823 26.484 11.8062 27.1899 11.7934C27.3452 11.791 27.6908 11.8293 27.9163 12.0117C28.1038 12.1654 28.1565 12.3734 28.1829 12.5194C28.2063 12.6653 28.2385 12.9977 28.2122 13.2572C27.931 16.2214 26.7096 23.4144 26.0886 26.7344C25.828 28.1392 25.3095 28.6102 24.8087 28.6561C23.7191 28.7563 22.8931 27.9368 21.8387 27.2458C20.1896 26.1641 19.2582 25.4911 17.656 24.4357C15.8049 23.2161 17.0058 22.5457 18.0602 21.4502C18.3356 21.1635 23.1333 16.8007 23.2241 16.405C23.2358 16.3555 23.2475 16.171 23.1362 16.0737C23.0278 15.9762 22.8667 16.0096 22.7496 16.036C22.5826 16.0734 19.9494 17.8156 14.8413 21.2622C14.0944 21.7759 13.4178 22.0263 12.8085 22.0132C12.1407 21.9988 10.852 21.6347 9.89419 21.3237C8.72259 20.942 7.78824 20.7402 7.87025 20.092C7.91126 19.7546 8.37697 19.4093 9.26445 19.0563Z" fill="white"/>
</g>
<defs>
<linearGradient id="paint0_linear_2694_3264" x1="1875.34" y1="0.508789" x2="1875.34" y2="3749.63" gradientUnits="userSpaceOnUse">
<stop stop-color="#2AABEE"/>
<stop offset="1" stop-color="#229ED9"/>
</linearGradient>
<clipPath id="clip0_2694_3264">
<rect width="37.4912" height="37.4912" fill="white" transform="translate(0.779297 0.508789)"/>
</clipPath>
</defs>
</svg>
