<svg width="22" height="23" viewBox="0 0 22 23" fill="none" xmlns="http://www.w3.org/2000/svg">
<path fill-rule="evenodd" clip-rule="evenodd" d="M0 11.6875C0 8.77012 1.15893 5.97223 3.22183 3.90933C5.28473 1.84643 8.08262 0.6875 11 0.6875C13.9174 0.6875 16.7153 1.84643 18.7782 3.90933C20.8411 5.97223 22 8.77012 22 11.6875C22 14.6049 20.8411 17.4028 18.7782 19.4657C16.7153 21.5286 13.9174 22.6875 11 22.6875C8.08262 22.6875 5.28473 21.5286 3.22183 19.4657C1.15893 17.4028 0 14.6049 0 11.6875ZM11 11.6576C11.0004 10.6327 11.4079 9.64981 12.1328 8.92519C12.8577 8.20056 13.8407 7.7935 14.8657 7.7935C15.2586 7.7935 15.5587 7.32207 15.2711 7.05493C14.3753 6.22412 13.2565 5.67272 12.0519 5.4683C10.8473 5.26388 9.60922 5.41532 8.48941 5.90406C7.36961 6.39281 6.41671 7.19762 5.7475 8.21987C5.07829 9.24212 4.72185 10.4374 4.72185 11.6592C4.72185 12.881 5.07829 14.0763 5.7475 15.0986C6.41671 16.1208 7.36961 16.9256 8.48941 17.4144C9.60922 17.9031 10.8473 18.0546 12.0519 17.8501C13.2565 17.6457 14.3753 17.0943 15.2711 16.2635C15.5587 15.9964 15.2586 15.5234 14.8657 15.5234C14.3579 15.5234 13.8551 15.4233 13.386 15.2289C12.9169 15.0346 12.4907 14.7497 12.1317 14.3906C11.7727 14.0314 11.488 13.6051 11.2938 13.1359C11.0996 12.6667 10.9998 12.1654 11 11.6576Z" fill="black"/>
</svg>
