<svg width="45" height="44" viewBox="0 0 45 44" fill="none" xmlns="http://www.w3.org/2000/svg">
<path d="M26.4386 22.5684C26.3982 23.3384 26.2241 24.0955 25.9252 24.805C25.6808 25.3458 25.278 25.7996 24.7702 26.1067C24.4292 26.29 24.0552 26.4092 23.6702 26.455C23.1133 26.5638 22.5405 26.5638 21.9836 26.455C21.6187 26.3565 21.2763 26.1884 20.9752 25.96C20.7934 25.7995 20.6453 25.6045 20.5394 25.3863C20.4336 25.1681 20.372 24.9311 20.3584 24.689C20.3447 24.4469 20.3793 24.2044 20.46 23.9757C20.5407 23.747 20.666 23.5366 20.8286 23.3567C21.1704 23.0215 21.5938 22.7814 22.0569 22.66C22.5556 22.5042 23.0744 22.4309 23.5969 22.44C24.0736 22.4119 24.5502 22.4119 25.0269 22.44C25.4706 22.4743 25.9106 22.5354 26.3469 22.6234L26.4386 22.5684Z" fill="black"/>
<path d="M31.9385 3.66675H13.6051C11.174 3.66675 8.84241 4.63252 7.12333 6.3516C5.40425 8.07069 4.43848 10.4023 4.43848 12.8334V31.1667C4.43848 33.5979 5.40425 35.9295 7.12333 37.6486C8.84241 39.3676 11.174 40.3334 13.6051 40.3334H31.9385C34.3696 40.3334 36.7012 39.3676 38.4203 37.6486C40.1394 35.9295 41.1051 33.5979 41.1051 31.1667V12.8334C41.1051 10.4023 40.1394 8.07069 38.4203 6.3516C36.7012 4.63252 34.3696 3.66675 31.9385 3.66675ZM14.5585 26.6384C14.8474 27.6032 15.2934 28.5137 15.8785 29.3334C16.7137 30.4871 17.8667 31.3726 19.1968 31.8817C20.0163 32.1861 20.8743 32.3841 21.7451 32.4684C22.6007 32.5515 23.4563 32.5515 24.3118 32.4684C25.3082 32.3904 26.2828 32.1359 27.1901 31.7167C28.2155 31.216 29.0935 30.458 29.7385 29.5167C30.1257 28.9634 30.3815 28.3289 30.4863 27.6617C30.5912 26.9945 30.5423 26.3122 30.3435 25.6667C30.1014 24.8506 29.5829 24.1441 28.8768 23.6684L28.5101 23.4117C28.5101 23.5767 28.5101 23.7234 28.4185 23.8701C28.2901 24.6951 28.0151 25.4871 27.6118 26.2167C27.2547 26.8703 26.751 27.4322 26.1403 27.8584C25.5296 28.2846 24.8284 28.5636 24.0918 28.6734C23.1227 28.8632 22.1219 28.8128 21.1768 28.5267C20.3928 28.3105 19.6787 27.8934 19.1051 27.3167C18.4764 26.677 18.0823 25.8436 17.9868 24.9517C17.895 24.197 18.0184 23.4316 18.3427 22.7439C18.6671 22.0562 19.1793 21.4743 19.8201 21.0651C20.4869 20.6231 21.2346 20.3178 22.0201 20.1667C22.7975 20.0384 23.5797 19.9834 24.3668 20.0017C24.9808 20.0183 25.5931 20.0734 26.2001 20.1667H26.3101C26.229 19.6651 26.0615 19.1813 25.8151 18.7367C25.6377 18.4401 25.4014 18.1829 25.1208 17.9811C24.8402 17.7793 24.5212 17.6372 24.1835 17.5634C23.3771 17.3158 22.5149 17.3158 21.7085 17.5634C21.1273 17.769 20.6222 18.1462 20.2601 18.6451V18.7734L18.4268 17.5084V17.3801C19.1907 16.2727 20.3536 15.504 21.6718 15.2351C22.796 14.9899 23.9646 15.0405 25.0635 15.3817C25.6796 15.5704 26.2501 15.8844 26.7391 16.304C27.2281 16.7236 27.6251 17.2398 27.9051 17.8201C28.2278 18.4782 28.446 19.1841 28.5468 19.9101C28.5981 20.2255 28.6287 20.544 28.6385 20.8634L29.1885 21.1201C30.0483 21.5767 30.8087 22.1999 31.4251 22.9534C32.0595 23.7362 32.4756 24.6712 32.6351 25.6667C32.7653 26.2681 32.8093 26.8859 32.7635 27.5001C32.6697 29.0264 32.0698 30.478 31.0585 31.6251C29.7802 33.1363 28.0412 34.1862 26.1085 34.6134C25.2578 34.7937 24.3927 34.898 23.5235 34.9251C22.734 34.9583 21.9431 34.9276 21.1585 34.8334C19.8857 34.6848 18.6466 34.3255 17.4918 33.7701C16.0035 33.0159 14.7391 31.8843 13.8251 30.4884C13.1496 29.4346 12.6366 28.285 12.3035 27.0784C12.0578 26.1691 11.8806 25.2463 11.7718 24.3101V22.0001C11.7718 21.2301 11.7718 20.4601 11.9001 19.6901C11.9756 18.8191 12.1166 17.9549 12.3218 17.1051C12.6016 16.0344 13.0338 15.0095 13.6051 14.0617C14.7517 12.0197 16.6228 10.4822 18.8485 9.75342C19.6473 9.48189 20.4698 9.28548 21.3051 9.16675C22.3529 9.04742 23.4108 9.04742 24.4585 9.16675C25.7243 9.2838 26.9626 9.60578 28.1251 10.1201C29.802 10.8597 31.2285 12.0697 32.2318 13.6034C32.9365 14.7098 33.4566 15.9234 33.7718 17.1967L31.6085 17.7834V17.6367C31.3643 16.7686 31.0068 15.9365 30.5451 15.1617C29.6051 13.6346 28.1477 12.496 26.4385 11.9534C25.5387 11.6481 24.6008 11.4692 23.6518 11.4217C22.9502 11.3639 22.2451 11.3639 21.5435 11.4217C20.4606 11.5278 19.4052 11.8258 18.4268 12.3017C17.1623 12.9621 16.1222 13.983 15.4385 15.2351C14.966 16.0932 14.6143 17.0124 14.3935 17.9667C14.2009 18.7433 14.0721 19.5342 14.0085 20.3317C13.9607 21.0949 13.9607 21.8603 14.0085 22.6234C14.0183 23.9798 14.2032 25.3293 14.5585 26.6384Z" fill="black"/>
<path d="M26.4386 22.5684C26.3982 23.3384 26.2241 24.0955 25.9252 24.805C25.6808 25.3458 25.278 25.7996 24.7702 26.1067C24.4292 26.29 24.0552 26.4092 23.6702 26.455C23.1133 26.5638 22.5405 26.5638 21.9836 26.455C21.6187 26.3565 21.2763 26.1884 20.9752 25.96C20.7934 25.7995 20.6453 25.6045 20.5394 25.3863C20.4336 25.1681 20.372 24.9311 20.3584 24.689C20.3447 24.4469 20.3793 24.2044 20.46 23.9757C20.5407 23.747 20.666 23.5366 20.8286 23.3567C21.1704 23.0215 21.5938 22.7814 22.0569 22.66C22.5556 22.5042 23.0744 22.4309 23.5969 22.44C24.0736 22.4119 24.5502 22.4119 25.0269 22.44C25.4706 22.4743 25.9106 22.5354 26.3469 22.6234L26.4386 22.5684Z" fill="black"/>
</svg>
