<svg width="40" height="44" viewBox="0 0 40 44" fill="none" xmlns="http://www.w3.org/2000/svg">
<path d="M29.3814 15.8432C32.2153 17.868 35.687 19.0593 39.4366 19.0593V11.8478C38.7269 11.8481 38.0191 11.7741 37.3249 11.6269V17.3034C33.5756 17.3034 30.1043 16.1122 27.2698 14.0876V28.8042C27.2698 36.1663 21.2986 42.134 13.9333 42.134C11.1851 42.134 8.63065 41.3036 6.50879 39.8793C8.93061 42.3544 12.308 43.8897 16.0443 43.8897C23.4103 43.8897 29.3817 37.9221 29.3817 30.5597V15.8432H29.3814ZM31.9865 8.56773C30.5381 6.9863 29.5871 4.94258 29.3814 2.6831V1.75562H27.3803C27.884 4.6273 29.6023 7.08068 31.9865 8.56773ZM11.1673 34.23C10.3581 33.1698 9.92068 31.8724 9.92273 30.5386C9.92273 27.1715 12.6539 24.4414 16.0236 24.4414C16.6514 24.4411 17.2756 24.5374 17.8741 24.7271V17.3544C17.1747 17.2586 16.4689 17.2178 15.7634 17.2328V22.9714C15.1645 22.7816 14.54 22.6853 13.9119 22.6858C10.5424 22.6858 7.81134 25.4156 7.81134 28.7831C7.81134 31.1643 9.1764 33.2258 11.1673 34.23Z" fill="#FF004F"/>
<path d="M27.27 14.0875C30.1047 16.1121 33.5757 17.3032 37.3251 17.3032V11.6268C35.2322 11.1812 33.3795 10.0882 31.9865 8.56773C29.6022 7.08053 27.8842 4.62715 27.3805 1.75562H22.1243V30.5594C22.1123 33.9173 19.3858 36.6362 16.0235 36.6362C14.0423 36.6362 12.282 35.6924 11.1672 34.2299C9.17661 33.2258 7.8114 31.1642 7.8114 28.7833C7.8114 25.4161 10.5424 22.686 13.9119 22.686C14.5575 22.686 15.1797 22.7864 15.7634 22.9715V17.233C8.52739 17.3824 2.70801 23.2918 2.70801 30.5595C2.70801 34.1876 4.15713 37.4765 6.50915 39.8796C8.63102 41.3036 11.1853 42.1343 13.9336 42.1343C21.2991 42.1343 27.2702 36.1662 27.2702 28.8042L27.27 14.0875Z" fill="black"/>
<path d="M37.3253 11.6266V10.0921C35.438 10.0948 33.588 9.56658 31.9867 8.56771C33.4041 10.1187 35.2706 11.1882 37.3253 11.6269M27.3805 1.75545C27.3326 1.48107 27.2957 1.20485 27.2701 0.92749V0H20.0125V28.8041C20.001 32.1617 17.2745 34.8806 13.912 34.8806C12.9587 34.882 12.0185 34.6592 11.1673 34.2302C12.282 35.6923 14.0423 36.6361 16.0235 36.6361C19.3857 36.6361 22.1125 33.9175 22.1244 30.5595V1.7556L27.3805 1.75545ZM15.7639 17.2328V15.5989C15.1575 15.5161 14.5461 15.4746 13.934 15.4748C6.56778 15.4748 0.59668 21.4427 0.59668 28.8041C0.59668 33.4194 2.9434 37.4868 6.50952 39.8793C4.15749 37.4763 2.70838 34.1872 2.70838 30.5594C2.70838 23.2918 8.5276 17.3823 15.7639 17.2328Z" fill="#00F2EA"/>
</svg>
