<svg width="40" height="41" viewBox="0 0 40 41" fill="none" xmlns="http://www.w3.org/2000/svg">
<g clip-path="url(#clip0_5217_20248)">
<path d="M31.9523 3.16309H13V11.1631H36V7.28163C36 5.01045 34.1842 3.16309 31.9523 3.16309Z" fill="#B3D6B3"/>
<path d="M22 12.1631H0V4.95361C0 2.31187 2.15818 0.163086 4.81124 0.163086H11.8454C12.5446 0.163086 13.2181 0.309849 13.83 0.585615C14.6846 0.969193 15.4188 1.60143 15.9337 2.42748L22 12.1631Z" fill="#0B930B"/>
<path d="M41 13.139V36.1881C41 38.3802 39.1951 40.1631 36.977 40.1631H4.02299C1.80489 40.1631 0 38.3802 0 36.1881V9.16309H36.977C39.1951 9.16309 41 10.9466 41 13.139Z" fill="#B5FAB5"/>
<path d="M40 13.139V36.1881C40 38.3802 38.2391 40.1631 36.0751 40.1631H20V9.16309H36.0751C38.2391 9.16309 40 10.9466 40 13.139Z" fill="#A3F8A3"/>
<path d="M30 24.6626C30 30.4526 25.2896 35.1631 19.5 35.1631C13.7104 35.1631 9 30.4526 9 24.6626C9 18.8735 13.7104 14.1631 19.5 14.1631C25.2896 14.1631 30 18.8735 30 24.6626Z" fill="#162A16"/>
<path d="M31 25.1626C31 31.2283 26.0653 36.1631 20 36.1631V14.1631C26.0653 14.1631 31 19.0978 31 25.1626Z" fill="#162A16"/>
<path d="M23.5625 25.2649C23.332 25.4559 23.0496 25.549 22.7698 25.549C22.4194 25.549 22.0712 25.4038 21.8276 25.1209L21.231 24.429V28.9588C21.231 29.6236 20.6796 30.1631 20 30.1631C19.3204 30.1631 18.769 29.6236 18.769 28.9588V24.429L18.1724 25.1209C17.7332 25.6293 16.9571 25.6942 16.4375 25.2649C15.9181 24.8361 15.8515 24.0765 16.2897 23.5681L18.7264 20.742C19.044 20.3745 19.5076 20.1631 20 20.1631C20.4924 20.1631 20.9559 20.3745 21.2736 20.742L23.7103 23.5681C24.1485 24.0765 24.0819 24.8361 23.5625 25.2649Z" fill="#0B930B"/>
<path d="M23.5625 25.2649C23.332 25.4559 23.0496 25.549 22.7698 25.549C22.4194 25.549 22.0712 25.4038 21.8276 25.1209L21.231 24.429V28.9588C21.231 29.6236 20.6796 30.1631 20 30.1631V20.1631C20.4924 20.1631 20.9559 20.3745 21.2736 20.742L23.7103 23.5681C24.1485 24.0765 24.0819 24.8361 23.5625 25.2649Z" fill="#0B930B"/>
</g>
<defs>
<clipPath id="clip0_5217_20248">
<rect width="40" height="40" fill="white" transform="translate(0 0.163086)"/>
</clipPath>
</defs>
</svg>
