<svg width="49" height="42" viewBox="0 0 49 42" fill="none" xmlns="http://www.w3.org/2000/svg">
<path d="M48.7075 9.71657C48.4918 14.4431 45.1968 20.9151 38.8242 29.1295C32.2352 37.71 26.6607 42.0001 22.1006 42C19.2766 42 16.8852 39.3878 14.9331 34.1617C13.6284 29.3713 12.3254 24.5812 11.0213 19.7909C9.57071 14.5676 8.01559 11.9526 6.35295 11.9526C5.99044 11.9526 4.72173 12.717 2.54968 14.2396L0.269531 11.2965C2.64314 9.20834 5.00066 7.10198 7.34187 4.97757C10.5316 2.21565 12.9263 0.763325 14.5221 0.616426C18.2938 0.253471 20.6152 2.83669 21.4865 8.36609C22.4281 14.3318 23.0795 18.0425 23.4458 19.4948C24.5328 24.4441 25.7288 26.9156 27.0359 26.9156C28.0502 26.9156 29.5739 25.3107 31.6053 22.1005C33.635 18.8894 34.722 16.4465 34.8689 14.7683C35.1576 11.9973 34.07 10.6084 31.6053 10.6084C30.4453 10.6084 29.2491 10.8759 28.0188 11.4046C30.4002 3.58828 34.9507 -0.207796 41.6675 0.00876572C46.6469 0.155096 48.9943 3.39103 48.7075 9.71657Z" fill="#32B8E8"/>
</svg>
