<svg width="24" height="24" viewBox="0 0 24 24" fill="none" xmlns="http://www.w3.org/2000/svg">
<path d="M19.0002 20.5C19.4257 20.309 19.7896 20.0612 20.109 19.7395C21.5002 18.3379 21.5002 16.0821 21.5002 11.5705C21.5002 7.05894 21.5002 4.80314 20.109 3.40157C18.7177 2 16.4785 2 12.0002 2C7.5219 2 5.28273 2 3.89148 3.40157C2.50024 4.80314 2.50024 7.05894 2.50024 11.5705C2.50024 16.0821 2.50024 18.3379 3.89148 19.7395C4.2108 20.0612 4.57477 20.309 5.00024 20.5" stroke="#097B09" stroke-width="1.5" stroke-linecap="round"/>
<path d="M2.50024 8.5H21.5002" stroke="#097B09" stroke-width="1.5" stroke-linejoin="round"/>
<path d="M7.00024 5.5H7.0096" stroke="#097B09" stroke-width="2" stroke-linecap="round" stroke-linejoin="round"/>
<path d="M10.9998 5.5H11.0091" stroke="#097B09" stroke-width="2" stroke-linecap="round" stroke-linejoin="round"/>
<path d="M10.2598 16.378C9.17984 16.378 8.71738 17.1575 8.59738 17.6373C8.47738 18.117 8.47738 19.856 8.54938 20.5755C8.78938 21.475 9.38938 21.8468 9.97738 21.9667C10.5173 22.0147 12.7973 21.9967 13.4573 21.9967C14.4173 22.0147 15.1373 21.6549 15.4373 20.5755C15.4973 20.2157 15.5573 18.2369 15.4073 17.6373C15.0893 16.6778 14.3602 16.378 13.7602 16.378M10.2598 16.378H13.7602M10.2598 16.378C10.2598 16.318 10.2584 15.5516 10.2598 15.1173C10.2611 14.7204 10.2262 14.3378 10.4158 13.9876C11.1262 12.5748 13.1662 12.7187 13.6702 14.1579C13.7575 14.3948 13.7628 14.7704 13.7602 15.1173C13.7569 15.5605 13.7602 16.378 13.7602 16.378" stroke="#097B09" stroke-width="1.5" stroke-linecap="round"/>
</svg>
