<svg width="45" height="44" viewBox="0 0 45 44" fill="none" xmlns="http://www.w3.org/2000/svg">
<path fill-rule="evenodd" clip-rule="evenodd" d="M32.9619 0.879926C33.1262 0.616187 33.3649 0.407052 33.648 0.27895C33.931 0.150848 34.2457 0.109527 34.5522 0.160212L42.6325 1.5085C43.0434 1.57702 43.4102 1.80586 43.6524 2.14472C43.8946 2.48358 43.9924 2.90473 43.9242 3.31564L42.5791 11.3991C42.5277 11.7055 42.3867 11.9898 42.1739 12.2161C41.961 12.4424 41.6858 12.6005 41.3831 12.6705C41.0804 12.7405 40.7637 12.7191 40.4731 12.6092C40.1826 12.4992 39.9311 12.3056 39.7505 12.0528L37.5694 9.00421L26.3368 16.1825C25.8578 16.489 25.2841 16.612 24.7216 16.5289C24.159 16.4457 23.6455 16.1619 23.2756 15.7299L17.0119 8.40707L5.29851 14.4256C4.74254 14.7115 4.09576 14.7649 3.50047 14.5739C2.90518 14.3829 2.41012 13.9633 2.12422 13.4074C1.83832 12.8514 1.78498 12.2046 1.97595 11.6093C2.16691 11.014 2.58654 10.519 3.14251 10.2331L16.5154 3.35964C16.9875 3.11709 17.5277 3.04099 18.0484 3.14366C18.5692 3.24633 19.0401 3.52176 19.3848 3.92535L25.5259 11.1068L34.8288 5.1605L33.0154 2.62421C32.8351 2.37129 32.7338 2.07062 32.7243 1.76017C32.7148 1.44971 32.7975 1.1434 32.9619 0.879926ZM12.3888 16.3114L3.26822 21.5285C2.90791 21.7343 2.60832 22.0316 2.39972 22.3903C2.19112 22.749 2.08091 23.1564 2.08022 23.5714V41.6428C2.08022 42.9439 3.13622 43.9999 4.43736 43.9999H12.3888V16.3114ZM16.3174 43.9999H27.8454V22.5908L22.6628 25.1805L17.4834 16.1165C17.2212 15.656 16.8116 15.2973 16.3205 15.0982L16.3174 43.9999ZM40.5802 43.9999H31.7739V20.6265L39.5274 16.7482C39.8867 16.5688 40.286 16.4842 40.6872 16.5024C41.0885 16.5207 41.4784 16.6411 41.82 16.8524C42.1616 17.0637 42.4436 17.3587 42.6391 17.7096C42.8347 18.0604 42.9373 18.4554 42.9374 18.8571V41.6428C42.9374 42.2679 42.689 42.8675 42.247 43.3095C41.8049 43.7516 41.2054 43.9999 40.5802 43.9999Z" fill="#5A3E85"/>
</svg>
