<svg width="45" height="44" viewBox="0 0 45 44" fill="none" xmlns="http://www.w3.org/2000/svg">
<g clip-path="url(#clip0_2708_3714)">
<path d="M1.61999 21.7367C1.61897 25.4336 2.58493 29.0433 4.42167 32.2249L1.44434 43.0956L12.5692 40.1787C15.6462 41.8537 19.0937 42.7314 22.5971 42.7317H22.6063C34.1716 42.7317 43.5861 33.3206 43.591 21.7532C43.5933 16.148 41.4124 10.8772 37.45 6.91177C33.4883 2.94666 28.2194 0.761835 22.6054 0.759277C11.0387 0.759277 1.62494 10.1698 1.62017 21.7367" fill="url(#paint0_linear_2708_3714)"/>
<path d="M0.870957 21.7299C0.869763 25.5597 1.87034 29.2985 3.77257 32.5941L0.688477 43.8545L12.2122 40.833C15.3874 42.5642 18.9623 43.4769 22.6 43.4783H22.6093C34.5896 43.4783 44.3423 33.7287 44.3474 21.7473C44.3494 15.9406 42.0901 10.4804 37.9862 6.37284C33.8817 2.26583 28.4243 0.0023876 22.6093 0C10.627 0 0.875732 9.74822 0.870957 21.7299ZM7.73376 32.0265L7.30348 31.3435C5.49471 28.4675 4.54001 25.144 4.54138 21.7312C4.54513 11.7724 12.65 3.67008 22.6162 3.67008C27.4425 3.67212 31.9783 5.55355 35.3898 8.96713C38.8012 12.3811 40.6783 16.9192 40.6771 21.7459C40.6727 31.7047 32.5677 39.8081 22.6093 39.8081H22.6022C19.3597 39.8064 16.1795 38.9356 13.4062 37.29L12.7462 36.8986L5.90776 38.6915L7.73376 32.0265Z" fill="url(#paint1_linear_2708_3714)"/>
<path d="M17.176 12.6453C16.7691 11.741 16.3409 11.7227 15.9539 11.7069C15.6371 11.6932 15.2748 11.6942 14.9129 11.6942C14.5507 11.6942 13.9622 11.8305 13.4647 12.3737C12.9667 12.9174 11.5635 14.2312 11.5635 16.9035C11.5635 19.5757 13.5099 22.1584 13.7812 22.5211C14.0529 22.8832 17.5388 28.5425 23.0596 30.7196C27.6479 32.5289 28.5816 32.1691 29.5774 32.0783C30.5734 31.9879 32.7911 30.7648 33.2435 29.4965C33.6963 28.2283 33.6963 27.1413 33.5606 26.9141C33.4248 26.6878 33.0626 26.5519 32.5194 26.2804C31.9762 26.0089 29.3057 24.6947 28.8079 24.5134C28.3099 24.3323 27.9478 24.2419 27.5856 24.7858C27.2234 25.3288 26.1832 26.5519 25.8662 26.9141C25.5495 27.2772 25.2325 27.3224 24.6895 27.0507C24.1459 26.7782 22.3967 26.2054 20.3214 24.3551C18.7067 22.9154 17.6165 21.1375 17.2997 20.5937C16.9828 20.0506 17.2657 19.7563 17.5381 19.4856C17.7821 19.2423 18.0814 18.8514 18.3533 18.5344C18.6241 18.2171 18.7145 17.9908 18.8956 17.6286C19.0769 17.266 18.9862 16.9488 18.8506 16.6771C18.7145 16.4055 17.659 13.7193 17.176 12.6453Z" fill="white"/>
</g>
<defs>
<linearGradient id="paint0_linear_2708_3714" x1="2108.78" y1="4234.4" x2="2108.78" y2="0.759277" gradientUnits="userSpaceOnUse">
<stop stop-color="#1FAF38"/>
<stop offset="1" stop-color="#60D669"/>
</linearGradient>
<linearGradient id="paint1_linear_2708_3714" x1="2183.63" y1="4385.45" x2="2183.63" y2="0" gradientUnits="userSpaceOnUse">
<stop stop-color="#F9F9F9"/>
<stop offset="1" stop-color="white"/>
</linearGradient>
<clipPath id="clip0_2708_3714">
<rect width="43.6589" height="44" fill="white" transform="translate(0.688477)"/>
</clipPath>
</defs>
</svg>
