<svg width="50" height="37" viewBox="0 0 50 37" fill="none" xmlns="http://www.w3.org/2000/svg">
<g clip-path="url(#clip0_2669_3483)">
<path d="M48.045 6.27994C47.7686 5.18269 47.2293 4.18235 46.4808 3.37856C45.7324 2.57476 44.8009 1.99554 43.7792 1.69858C40.0387 0.603027 24.9844 0.603027 24.9844 0.603027C24.9844 0.603027 9.92943 0.636189 6.18892 1.73174C5.16719 2.02872 4.23572 2.60797 3.48728 3.4118C2.73884 4.21564 2.19955 5.21601 1.9231 6.31331C0.79169 13.4508 0.352794 24.3266 1.95417 31.1785C2.23065 32.2758 2.76995 33.2761 3.51839 34.0799C4.26683 34.8837 5.19828 35.4629 6.21999 35.7599C9.96049 36.8554 25.0151 36.8554 25.0151 36.8554C25.0151 36.8554 40.0696 36.8554 43.8099 35.7599C44.8317 35.4629 45.7631 34.8837 46.5116 34.0799C47.2601 33.2761 47.7994 32.2758 48.0759 31.1785C49.2693 24.0309 49.637 13.1618 48.045 6.27994Z" fill="#FF0000"/>
<path d="M20.1924 26.4977L32.6811 18.7294L20.1924 10.9611V26.4977Z" fill="white"/>
</g>
<defs>
<clipPath id="clip0_2669_3483">
<rect width="48.2014" height="36.397" fill="white" transform="translate(0.908203 0.603027)"/>
</clipPath>
</defs>
</svg>
