<svg width="25" height="24" viewBox="0 0 25 24" fill="none" xmlns="http://www.w3.org/2000/svg">
<path d="M3.48242 18.4138V11.1909C3.48242 9.86228 3.48242 9.19798 4.08111 9.03265C4.67979 8.86733 5.38439 9.33706 6.79359 10.2765L19.5676 18.7926C20.9768 19.732 21.6814 20.2018 21.4334 20.6009C21.1854 21 20.189 21 18.1961 21H7.3617C5.53299 21 4.61863 21 4.05053 20.6213C3.48242 20.2425 3.48242 19.633 3.48242 18.4138Z" fill="#097B09" stroke="#097B09" stroke-width="1.69" stroke-linecap="round" stroke-linejoin="round"/>
<path d="M9.48242 11C11.6916 11 13.4824 9.20914 13.4824 7C13.4824 4.79086 11.6916 3 9.48242 3C7.27328 3 5.48242 4.79086 5.48242 7C5.48242 9.20914 7.27328 11 9.48242 11Z" stroke="#097B09" stroke-width="1.69" stroke-linecap="round" stroke-linejoin="round"/>
<path d="M22.335 14.2078L16.689 10.4097M16.689 10.4097C16.3455 10.7253 16.8146 11.7421 17.1745 13.1034M16.689 10.4097C16.9263 10.1861 17.6496 10.1779 19.368 9.98245" stroke="#097B09" stroke-width="1.69" stroke-linecap="round" stroke-linejoin="round"/>
</svg>
