<svg width="25" height="25" viewBox="0 0 25 25" fill="none" xmlns="http://www.w3.org/2000/svg">
<path d="M2.65918 14.5C2.65918 10.7288 2.65918 8.84315 3.83075 7.67157C5.00233 6.5 6.88794 6.5 10.6592 6.5H14.6592C18.4304 6.5 20.3161 6.5 21.4876 7.67157C22.6592 8.84315 22.6592 10.7288 22.6592 14.5C22.6592 18.2712 22.6592 20.1569 21.4876 21.3284C20.3161 22.5 18.4304 22.5 14.6592 22.5H10.6592C6.88794 22.5 5.00233 22.5 3.83075 21.3284C2.65918 20.1569 2.65918 18.2712 2.65918 14.5Z" fill="#097B09" stroke="#097B09" stroke-width="1.5" stroke-linecap="round"/>
<path d="M9.65918 3.5L12.6592 6.5L16.6592 2.5" stroke="#097B09" stroke-width="1.5" stroke-linecap="round" stroke-linejoin="round"/>
</svg>
