<svg width="43" height="43" viewBox="0 0 43 43" fill="none" xmlns="http://www.w3.org/2000/svg">
<rect x="0.757812" y="0.5" width="41.5" height="41.5" rx="20.75" fill="white"/>
<rect x="0.757812" y="0.5" width="41.5" height="41.5" rx="20.75" stroke="#E9EBF8" stroke-width="0.5"/>
<path d="M23.1426 13.8801H19.8672C16.7791 13.8801 15.2351 13.8801 14.2757 14.8395C13.3164 15.7988 13.3164 17.3428 13.3164 20.4309C13.3164 23.5189 13.3164 25.063 14.2757 26.0223C15.2351 26.9817 16.7791 26.9817 19.8672 26.9817H23.1426C26.2306 26.9817 27.7747 26.9817 28.734 26.0223C29.6934 25.063 29.6934 23.5189 29.6934 20.4309C29.6934 17.3428 29.6934 15.7988 28.734 14.8395C27.7747 13.8801 26.2306 13.8801 23.1426 13.8801Z" stroke="#08304C" stroke-width="1.22827" stroke-linecap="round"/>
<path d="M25.5219 24.1157C25.5219 23.3921 26.1084 22.8056 26.832 22.8056M22.9016 24.1157C22.9016 21.945 24.6613 20.1853 26.832 20.1853M20.2812 24.1157C20.2812 20.4978 23.2141 17.5649 26.832 17.5649" stroke="#08304C" stroke-width="1.22827" stroke-linecap="round"/>
<path d="M26.418 26.9818L27.2368 28.6195" stroke="#08304C" stroke-width="1.22827" stroke-linecap="round" stroke-linejoin="round"/>
<path d="M16.5923 26.9818L15.7734 28.6195" stroke="#08304C" stroke-width="1.22827" stroke-linecap="round" stroke-linejoin="round"/>
</svg>
