<svg width="21" height="21" viewBox="0 0 21 21" fill="none" xmlns="http://www.w3.org/2000/svg">
<path d="M12.1426 2.88086H8.86719C5.77912 2.88086 4.23509 2.88086 3.27574 3.8402C2.31641 4.79954 2.31641 6.34357 2.31641 9.43164C2.31641 12.5197 2.31641 14.0638 3.27574 15.0231C4.23509 15.9824 5.77912 15.9824 8.86719 15.9824H12.1426C15.2306 15.9824 16.7747 15.9824 17.734 15.0231C18.6934 14.0638 18.6934 12.5197 18.6934 9.43164C18.6934 6.34357 18.6934 4.79954 17.734 3.8402C16.7747 2.88086 15.2306 2.88086 12.1426 2.88086Z" stroke="#08304C" stroke-width="1.22827" stroke-linecap="round"/>
<path d="M14.5219 13.1152C14.5219 12.3916 15.1084 11.8051 15.832 11.8051M11.9016 13.1152C11.9016 10.9445 13.6613 9.18477 15.832 9.18477M9.28125 13.1152C9.28125 9.49732 12.2141 6.56445 15.832 6.56445" stroke="#08304C" stroke-width="1.22827" stroke-linecap="round"/>
<path d="M15.418 15.9824L16.2368 17.6201" stroke="#08304C" stroke-width="1.22827" stroke-linecap="round" stroke-linejoin="round"/>
<path d="M5.59229 15.9824L4.77344 17.6201" stroke="#08304C" stroke-width="1.22827" stroke-linecap="round" stroke-linejoin="round"/>
</svg>
