<svg width="19" height="20" viewBox="0 0 19 20" fill="none" xmlns="http://www.w3.org/2000/svg">
<path d="M11.0547 3.21484V5.53418M14.9202 4.76107L13.374 6.30729M16.4665 8.62663H14.1471" stroke="#08304C" stroke-width="1.15967" stroke-linecap="round" stroke-linejoin="round"/>
<path d="M7.3118 5.3117L7.00051 4.61128C6.79696 4.15331 6.69519 3.92431 6.54298 3.74907C6.35223 3.52945 6.10359 3.36787 5.82543 3.28276C5.60348 3.21484 5.3529 3.21484 4.85173 3.21484C4.11858 3.21484 3.752 3.21484 3.44429 3.35577C3.08181 3.52178 2.75444 3.88226 2.62402 4.25901C2.51329 4.57884 2.54501 4.90752 2.60844 5.56487C3.28362 12.5619 7.11973 16.398 14.1168 17.0732C14.7741 17.1367 15.1028 17.1684 15.4226 17.0576C15.7994 16.9272 16.1599 16.5998 16.3259 16.2374C16.4668 15.9296 16.4668 15.5631 16.4668 14.8299C16.4668 14.3287 16.4668 14.0781 16.3989 13.8562C16.3138 13.578 16.1522 13.3294 15.9326 13.1387C15.7573 12.9864 15.5283 12.8847 15.0703 12.6811L14.37 12.3698C13.8739 12.1494 13.626 12.0392 13.374 12.0153C13.1328 11.9923 12.8897 12.0262 12.6639 12.1141C12.4281 12.2059 12.2196 12.3796 11.8026 12.7271C11.3875 13.0729 11.18 13.2459 10.9264 13.3385C10.7017 13.4206 10.4045 13.4511 10.1677 13.4161C9.90068 13.3768 9.69611 13.2675 9.28714 13.0489C8.01452 12.3689 7.31279 11.6671 6.6327 10.3945C6.41413 9.98553 6.30484 9.78096 6.26548 9.51393C6.23059 9.27712 6.26101 8.97994 6.34313 8.7552C6.43576 8.5016 6.6087 8.29408 6.95457 7.87903C7.30203 7.46207 7.47577 7.2536 7.56762 7.01771C7.65552 6.79199 7.68936 6.54881 7.66642 6.30766C7.64245 6.05566 7.53224 5.80768 7.3118 5.3117Z" stroke="#08304C" stroke-width="1.15967" stroke-linecap="round"/>
</svg>
