<svg width="43" height="43" viewBox="0 0 43 43" fill="none" xmlns="http://www.w3.org/2000/svg">
<rect x="0.757812" y="0.5" width="41.5" height="41.5" rx="20.75" fill="white"/>
<rect x="0.757812" y="0.5" width="41.5" height="41.5" rx="20.75" stroke="#E9EBF8" stroke-width="0.5"/>
<path d="M23.0547 14.2136V16.533M26.9202 15.7598L25.374 17.3061M28.4665 19.6254H26.1471" stroke="#08304C" stroke-width="1.15967" stroke-linecap="round" stroke-linejoin="round"/>
<path d="M19.3118 16.3105L19.0005 15.6101C18.797 15.1521 18.6952 14.9231 18.543 14.7479C18.3522 14.5282 18.1036 14.3667 17.8254 14.2815C17.6035 14.2136 17.3529 14.2136 16.8517 14.2136C16.1186 14.2136 15.752 14.2136 15.4443 14.3546C15.0818 14.5206 14.7544 14.881 14.624 15.2578C14.5133 15.5776 14.545 15.9063 14.6084 16.5637C15.2836 23.5607 19.1197 27.3968 26.1168 28.072C26.7741 28.1354 27.1028 28.1671 27.4226 28.0564C27.7994 27.926 28.1599 27.5986 28.3259 27.2362C28.4668 26.9284 28.4668 26.5618 28.4668 25.8287C28.4668 25.3275 28.4668 25.0769 28.3989 24.855C28.3138 24.5768 28.1522 24.3282 27.9326 24.1374C27.7573 23.9852 27.5283 23.8835 27.0703 23.6799L26.37 23.3686C25.8739 23.1482 25.626 23.038 25.374 23.014C25.1328 22.9911 24.8897 23.0249 24.6639 23.1128C24.4281 23.2047 24.2196 23.3784 23.8026 23.7258C23.3875 24.0717 23.18 24.2447 22.9264 24.3373C22.7017 24.4194 22.4045 24.4499 22.1677 24.4149C21.9007 24.3756 21.6961 24.2663 21.2871 24.0477C20.0145 23.3677 19.3128 22.6659 18.6327 21.3933C18.4141 20.9843 18.3048 20.7797 18.2655 20.5127C18.2306 20.2759 18.261 19.9787 18.3431 19.754C18.4358 19.5004 18.6087 19.2929 18.9546 18.8778C19.302 18.4609 19.4758 18.2524 19.5676 18.0165C19.6555 17.7908 19.6894 17.5476 19.6664 17.3064C19.6425 17.0544 19.5322 16.8065 19.3118 16.3105Z" stroke="#08304C" stroke-width="1.15967" stroke-linecap="round"/>
</svg>
