<svg width="25" height="24" viewBox="0 0 25 24" fill="none" xmlns="http://www.w3.org/2000/svg">
<path d="M9.99121 17C9.99121 18.1046 9.09578 19 7.99121 19C6.88664 19 5.99121 18.1046 5.99121 17C5.99121 15.8954 6.88664 15 7.99121 15C9.09578 15 9.99121 15.8954 9.99121 17Z" stroke="#097B09" stroke-width="1.5"/>
<path d="M19.9912 17C19.9912 18.1046 19.0958 19 17.9912 19C16.8866 19 15.9912 18.1046 15.9912 17C15.9912 15.8954 16.8866 15 17.9912 15C19.0958 15 19.9912 15.8954 19.9912 17Z" stroke="#097B09" stroke-width="1.5"/>
<path d="M2.99121 10H18.9912H2.99121ZM2.99121 10C2.99121 10.78 2.97122 13.04 2.99521 15.26C3.03118 15.98 3.15109 16.58 5.99292 17M2.99121 10C3.20705 8.26 4.14633 6.2 4.62596 5.42L2.99121 10ZM9.99121 10V5V10ZM15.9813 17H9.98588H15.9813ZM3.0072 5H13.2234C13.2234 5 13.763 5 14.2426 5.048C15.142 5.132 15.8974 5.54 16.6528 6.56C17.4527 7.64 18.0677 9.008 18.8831 9.74C20.2381 10.9564 22.8161 10.58 22.96 13.16C22.996 14.48 22.996 15.92 22.936 16.16C22.8397 16.8667 22.2948 16.9821 21.617 17C21.0288 17.0156 20.3197 16.9721 19.9743 17" fill="#097B09"/>
<path d="M2.99121 10H18.9912M2.99121 10C2.99121 10.78 2.97122 13.04 2.99521 15.26C3.03118 15.98 3.15109 16.58 5.99292 17M2.99121 10C3.20705 8.26 4.14633 6.2 4.62596 5.42M9.99121 10V5M15.9813 17H9.98588M3.0072 5H13.2234C13.2234 5 13.763 5 14.2426 5.048C15.142 5.132 15.8974 5.54 16.6528 6.56C17.4527 7.64 18.0677 9.008 18.8831 9.74C20.2381 10.9564 22.8161 10.58 22.96 13.16C22.996 14.48 22.996 15.92 22.936 16.16C22.8397 16.8667 22.2948 16.9821 21.617 17C21.0288 17.0156 20.3197 16.9721 19.9743 17" stroke="#097B09" stroke-width="1.5" stroke-linecap="round"/>
</svg>
