<svg width="17" height="16" viewBox="0 0 17 16" fill="none" xmlns="http://www.w3.org/2000/svg">
<path d="M14.7738 8.04024C14.7738 11.3857 11.9383 14.0981 8.44157 14.0981C8.03042 14.0986 7.62041 14.0606 7.21654 13.9848C6.92585 13.9301 6.78049 13.9028 6.67902 13.9184C6.57754 13.9339 6.43374 14.0103 6.14614 14.1633C5.33255 14.596 4.38387 14.7488 3.4715 14.5791C3.81827 14.1525 4.0551 13.6408 4.1596 13.0921C4.22292 12.7565 4.06602 12.4305 3.83103 12.1919C2.7637 11.1081 2.10938 9.64761 2.10938 8.04024C2.10938 4.69486 4.94479 1.98242 8.44157 1.98242C11.9383 1.98242 14.7738 4.69486 14.7738 8.04024Z" stroke="#101010" stroke-width="0.949829" stroke-linejoin="round"/>
<path d="M8.44018 8.31641H8.44588M10.9702 8.31641H10.9759M5.91016 8.31641H5.91584" stroke="#101010" stroke-width="1.26644" stroke-linecap="round" stroke-linejoin="round"/>
</svg>
