<svg width="19" height="19" viewBox="0 0 19 19" fill="none" xmlns="http://www.w3.org/2000/svg">
<path d="M7.46484 11.6201C7.46484 9.44496 7.46484 8.35738 8.14059 7.6816C8.81636 7.00586 9.90394 7.00586 12.0791 7.00586H12.8481C15.0233 7.00586 16.1109 7.00586 16.7866 7.6816C17.4624 8.35738 17.4624 9.44496 17.4624 11.6201V12.3892C17.4624 14.5643 17.4624 15.6519 16.7866 16.3277C16.1109 17.0034 15.0233 17.0034 12.8481 17.0034H12.0791C9.90394 17.0034 8.81636 17.0034 8.14059 16.3277C7.46484 15.6519 7.46484 14.5643 7.46484 12.3892V11.6201Z" stroke="#6E6D7A" stroke-width="1.15356" stroke-linecap="round" stroke-linejoin="round"/>
<path d="M13.6176 7.00635C13.6158 4.73222 13.5814 3.55428 12.9194 2.74772C12.7916 2.59196 12.6488 2.44914 12.493 2.32131C11.6422 1.62305 10.3781 1.62305 7.84985 1.62305C5.32164 1.62305 4.05753 1.62305 3.2067 2.32131C3.05094 2.44913 2.90812 2.59196 2.78029 2.74772C2.08203 3.59855 2.08203 4.86266 2.08203 7.39087C2.08203 9.9191 2.08203 11.1832 2.78029 12.034C2.90811 12.1898 3.05094 12.3326 3.2067 12.4604C4.01326 13.1224 5.1912 13.1568 7.46533 13.1586" stroke="#6E6D7A" stroke-width="1.15356" stroke-linecap="round" stroke-linejoin="round"/>
</svg>
