<svg width="25" height="25" viewBox="0 0 25 25" fill="none" xmlns="http://www.w3.org/2000/svg">
<path d="M17.5235 3.53358L16.5689 3.27924C13.869 2.55986 12.519 2.20018 11.4555 2.81074C10.392 3.4213 10.0302 4.76367 9.30678 7.44841L8.28366 11.2452C7.5602 13.9299 7.19848 15.2723 7.8125 16.3298C8.42652 17.3874 9.77651 17.747 12.4765 18.4664L13.4311 18.7208C16.131 19.4401 17.481 19.7998 18.5445 19.1893C19.608 18.5787 19.9698 17.2363 20.6932 14.5516L21.7163 10.7548C22.4398 8.07005 22.8015 6.72768 22.1875 5.67016C21.5735 4.61264 20.2235 4.25295 17.5235 3.53358Z" fill="#097B09" stroke="#097B09" stroke-width="1.5"/>
<path d="M17.3535 7.933C17.3535 8.74708 16.6898 9.40703 15.8711 9.40703C15.0524 9.40703 14.3887 8.74708 14.3887 7.933C14.3887 7.11892 15.0524 6.45898 15.8711 6.45898C16.6898 6.45898 17.3535 7.11892 17.3535 7.933Z" stroke="white" stroke-width="1.5"/>
<path d="M12.5 21.4463L11.5477 21.7056C8.85403 22.4391 7.50722 22.8059 6.44619 22.1833C5.38517 21.5608 5.02429 20.1921 4.30253 17.4547L3.28182 13.5834C2.56006 10.846 2.19918 9.47729 2.81177 8.39902C3.34167 7.46629 4.5 7.50025 6 7.50013" stroke="#097B09" stroke-width="1.5" stroke-linecap="round"/>
</svg>
