<svg width="43" height="43" viewBox="0 0 43 43" fill="none" xmlns="http://www.w3.org/2000/svg">
<rect x="0.742188" y="0.5" width="41.5" height="41.5" rx="20.75" fill="white"/>
<rect x="0.742188" y="0.5" width="41.5" height="41.5" rx="20.75" stroke="#E9EBF8" stroke-width="0.5"/>
<path d="M18.4297 23.2949C20.0654 21.6592 22.928 21.6592 24.5637 23.2949" stroke="#08304C" stroke-width="1.22681" stroke-linecap="round" stroke-linejoin="round"/>
<path d="M26.8081 20.8413C23.7267 18.1151 19.4473 18.1151 16.1758 20.8413" stroke="#08304C" stroke-width="1.22681" stroke-linecap="round" stroke-linejoin="round"/>
<path d="M13.3164 18.3875C18.4819 14.0255 24.5083 14.0255 29.6738 18.3874" stroke="#08304C" stroke-width="1.22681" stroke-linecap="round" stroke-linejoin="round"/>
<path d="M21.4963 27.384C22.1739 27.384 22.7231 26.8348 22.7231 26.1572C22.7231 25.4797 22.1739 24.9304 21.4963 24.9304C20.8188 24.9304 20.2695 25.4797 20.2695 26.1572C20.2695 26.8348 20.8188 27.384 21.4963 27.384Z" stroke="#08304C" stroke-width="1.22681" stroke-linecap="round" stroke-linejoin="round"/>
</svg>
