<svg width="32" height="26" viewBox="0 0 32 26" fill="none" xmlns="http://www.w3.org/2000/svg">
<path d="M10.6628 8.50684C8.58711 8.54478 7.39455 8.72138 6.58796 9.54306C5.56055 10.5897 5.56055 12.2742 5.56055 15.6432V21.7689C5.56055 25.138 5.56055 26.8225 6.58796 27.8691C7.61535 28.9157 9.26894 28.9157 12.5761 28.9157C15.8832 28.9157 17.5369 28.9157 18.5642 27.8691C19.5917 26.8225 19.5917 25.138 19.5917 21.7689V18.0681" fill="#097B09"/>
<path d="M10.6628 8.50684C8.58711 8.54478 7.39455 8.72138 6.58796 9.54306C5.56055 10.5897 5.56055 12.2742 5.56055 15.6432V21.7689C5.56055 25.138 5.56055 26.8225 6.58796 27.8691C7.61535 28.9157 9.26894 28.9157 12.5761 28.9157C15.8832 28.9157 17.5369 28.9157 18.5642 27.8691C19.5917 26.8225 19.5917 25.138 19.5917 21.7689V18.0681" stroke="#097B09" stroke-width="1.09333" stroke-linecap="round"/>
<path d="M13.2139 5.76075C15.0456 4.27055 17.2333 3.40454 19.583 3.40454C21.9401 3.40454 24.1342 4.27603 25.9694 5.77487M23.0584 9.78232C22.0123 9.12999 20.832 8.76296 19.583 8.76296C18.3403 8.76296 17.1655 9.1263 16.1234 9.77251" stroke="#097B09" stroke-width="1.09333" stroke-linecap="round"/>
<path d="M19.5918 13.6091H19.5997" stroke="#097B09" stroke-width="2.55111" stroke-linecap="round" stroke-linejoin="round"/>
</svg>
