<svg width="23" height="22" viewBox="0 0 23 22" fill="none" xmlns="http://www.w3.org/2000/svg">
<path d="M11.168 20.1666C10.418 20.1666 9.70149 19.869 8.26849 19.2739C4.70147 17.7925 2.91797 17.0518 2.91797 15.8059V7.09916M11.168 20.1666C11.918 20.1666 12.6345 19.869 14.0675 19.2739C17.6345 17.7925 19.418 17.0518 19.418 15.8059V7.09916M11.168 20.1666V11.1546M2.91797 7.09916C2.91797 7.65271 3.65274 8.00226 5.1223 8.70136L7.80006 9.97527C9.4527 10.7615 10.2791 11.1546 11.168 11.1546M2.91797 7.09916C2.91797 6.54562 3.65274 6.19607 5.1223 5.49697L7.04297 4.58325M19.418 7.09916C19.418 7.65271 18.6832 8.00226 17.2137 8.70136L14.5359 9.97527C12.8832 10.7615 12.0569 11.1546 11.168 11.1546M19.418 7.09916C19.418 6.54562 18.6832 6.19607 17.2137 5.49697L15.293 4.58325M5.66797 12.0557L7.5013 12.957" stroke="#99A1B7" stroke-width="1.375" stroke-linecap="round" stroke-linejoin="round"/>
<path d="M11.1727 1.83325V8.24987M11.1727 8.24987C11.4138 8.25314 11.6517 8.08466 11.8273 7.87898L13.0026 6.47318M11.1727 8.24987C10.94 8.24673 10.7044 8.07913 10.5182 7.87898L9.33594 6.47318" stroke="#99A1B7" stroke-width="1.375" stroke-linecap="round"/>
</svg>
