<svg width="25" height="25" viewBox="0 0 25 25" fill="none" xmlns="http://www.w3.org/2000/svg">
<path d="M19.4922 21.2498C19.9177 21.0588 20.2816 20.811 20.601 20.4893C21.9922 19.0877 21.9922 16.8319 21.9922 12.3203C21.9922 7.8087 21.9922 5.5529 20.601 4.15133C19.2097 2.74976 16.9705 2.74976 12.4922 2.74976C8.01385 2.74976 5.77468 2.74976 4.38343 4.15133C2.99219 5.5529 2.99219 7.8087 2.99219 12.3203C2.99219 16.8319 2.99219 19.0877 4.38343 20.4893C4.70275 20.811 5.06672 21.0588 5.49219 21.2498" fill="#097B09"/>
<path d="M19.4922 21.2498C19.9177 21.0588 20.2816 20.811 20.601 20.4893C21.9922 19.0877 21.9922 16.8319 21.9922 12.3203C21.9922 7.8087 21.9922 5.5529 20.601 4.15133C19.2097 2.74976 16.9705 2.74976 12.4922 2.74976C8.01385 2.74976 5.77468 2.74976 4.38343 4.15133C2.99219 5.5529 2.99219 7.8087 2.99219 12.3203C2.99219 16.8319 2.99219 19.0877 4.38343 20.4893C4.70275 20.811 5.06672 21.0588 5.49219 21.2498" stroke="#097B09" stroke-width="1.5" stroke-linecap="round"/>
<path d="M2.99219 9.25024H21.9922" stroke="white" stroke-width="1.5" stroke-linejoin="round"/>
<path d="M7.49219 6.25024H7.50154" stroke="white" stroke-width="2" stroke-linecap="round" stroke-linejoin="round"/>
<path d="M11.4922 6.25024H11.5016" stroke="white" stroke-width="2" stroke-linecap="round" stroke-linejoin="round"/>
<path d="M11.4815 14.3005C10.5674 14.3005 10.176 14.9603 10.0744 15.3664C9.97284 15.7724 9.97284 17.2443 10.0338 17.8532C10.2369 18.6146 10.7447 18.9292 11.2424 19.0307C11.6994 19.0714 13.6292 19.0561 14.1878 19.0561C15.0004 19.0714 15.6098 18.7668 15.8637 17.8532C15.9145 17.5487 15.9652 15.8739 15.8383 15.3664C15.5691 14.5543 14.952 14.3005 14.4442 14.3005M11.4815 14.3005H14.4442M11.4815 14.3005C11.4815 14.2497 11.4803 13.601 11.4815 13.2335C11.4826 12.8975 11.4531 12.5737 11.6135 12.2773C12.2148 11.0815 13.9414 11.2033 14.368 12.4214C14.4419 12.6219 14.4464 12.9398 14.4442 13.2335C14.4414 13.6086 14.4442 14.3005 14.4442 14.3005" stroke="white" stroke-width="1.26959" stroke-linecap="round"/>
</svg>
