<svg width="23" height="23" viewBox="0 0 23 23" fill="none" xmlns="http://www.w3.org/2000/svg">
<path d="M6.02934 14.0224C5.67945 13.2359 5.48438 12.3609 5.48438 11.4388C5.48438 8.01436 8.17522 5.23828 11.4945 5.23828C14.8139 5.23828 17.5047 8.01436 17.5047 11.4388C17.5047 12.3609 17.3096 13.2359 16.9597 14.0224" stroke="#08304C" stroke-width="1.38696" stroke-linecap="round"/>
<path d="M11.4961 2.00195V2.92659" stroke="#08304C" stroke-width="1.38696" stroke-linecap="round" stroke-linejoin="round"/>
<path d="M20.741 11.25H19.8164" stroke="#08304C" stroke-width="1.38696" stroke-linecap="round" stroke-linejoin="round"/>
<path d="M3.17464 11.25H2.25" stroke="#08304C" stroke-width="1.38696" stroke-linecap="round" stroke-linejoin="round"/>
<path d="M18.0366 4.71094L17.3828 5.36476" stroke="#08304C" stroke-width="1.38696" stroke-linecap="round" stroke-linejoin="round"/>
<path d="M5.61476 5.36476L4.96094 4.71094" stroke="#08304C" stroke-width="1.38696" stroke-linecap="round" stroke-linejoin="round"/>
<path d="M13.8241 18.005C14.7584 17.7029 15.1331 16.8478 15.2385 15.9877C15.2699 15.7307 15.0585 15.5176 14.7996 15.5176L8.23917 15.5178C7.97139 15.5178 7.75634 15.745 7.78831 16.0109C7.89155 16.8693 8.15212 17.4964 9.14218 18.005M13.8241 18.005C13.8241 18.005 9.30515 18.005 9.14218 18.005M13.8241 18.005C13.7118 19.8035 13.1924 20.5157 11.5031 20.4958C9.69617 20.5291 9.28048 19.6488 9.14218 18.005" stroke="#08304C" stroke-width="1.38696" stroke-linecap="round" stroke-linejoin="round"/>
</svg>
