<svg width="25" height="25" viewBox="0 0 25 25" fill="none" xmlns="http://www.w3.org/2000/svg">
<path d="M6.58157 15.4993C6.20316 14.6487 5.99219 13.7024 5.99219 12.7052C5.99219 9.0016 8.90234 5.99927 12.4922 5.99927C16.0821 5.99927 18.9922 9.0016 18.9922 12.7052C18.9922 13.7024 18.7812 14.6487 18.4028 15.4993" fill="#097B09"/>
<path d="M6.58157 15.4993C6.20316 14.6487 5.99219 13.7024 5.99219 12.7052C5.99219 9.0016 8.90234 5.99927 12.4922 5.99927C16.0821 5.99927 18.9922 9.0016 18.9922 12.7052C18.9922 13.7024 18.7812 14.6487 18.4028 15.4993" stroke="#097B09" stroke-width="1.5" stroke-linecap="round"/>
<path d="M12.4922 2.49927V3.49927" stroke="#097B09" stroke-width="1.5" stroke-linecap="round" stroke-linejoin="round"/>
<path d="M22.4922 12.4993H21.4922" stroke="#097B09" stroke-width="1.5" stroke-linecap="round" stroke-linejoin="round"/>
<path d="M3.49219 12.4993H2.49219" stroke="#097B09" stroke-width="1.5" stroke-linecap="round" stroke-linejoin="round"/>
<path d="M19.5626 5.42798L18.8555 6.13509" stroke="#097B09" stroke-width="1.5" stroke-linecap="round" stroke-linejoin="round"/>
<path d="M6.12898 6.13607L5.42188 5.42896" stroke="#097B09" stroke-width="1.5" stroke-linecap="round" stroke-linejoin="round"/>
<path d="M15.0087 19.8057C16.0191 19.4789 16.4243 18.5541 16.5383 17.6239C16.5723 17.346 16.3437 17.1155 16.0637 17.1155L8.96855 17.1157C8.67895 17.1157 8.44638 17.3615 8.48096 17.649C8.59261 18.5774 8.87441 19.2556 9.94516 19.8057M15.0087 19.8057C15.0087 19.8057 10.1214 19.8057 9.94516 19.8057M15.0087 19.8057C14.8872 21.7507 14.3255 22.521 12.4985 22.4994C10.5443 22.5355 10.0947 21.5834 9.94516 19.8057" stroke="#097B09" stroke-width="1.5" stroke-linecap="round" stroke-linejoin="round"/>
</svg>
