<svg width="43" height="43" viewBox="0 0 43 43" fill="none" xmlns="http://www.w3.org/2000/svg">
<rect x="0.742188" y="0.5" width="41.5" height="41.5" rx="20.75" fill="white"/>
<rect x="0.742188" y="0.5" width="41.5" height="41.5" rx="20.75" stroke="#E9EBF8" stroke-width="0.5"/>
<path d="M16.0293 24.0231C15.6794 23.2366 15.4844 22.3616 15.4844 21.4396C15.4844 18.0151 18.1752 15.239 21.4945 15.239C24.8139 15.239 27.5047 18.0151 27.5047 21.4396C27.5047 22.3616 27.3096 23.2366 26.9597 24.0231" stroke="#08304C" stroke-width="1.38696" stroke-linecap="round"/>
<path d="M21.4961 12.0028V12.9274" stroke="#08304C" stroke-width="1.38696" stroke-linecap="round" stroke-linejoin="round"/>
<path d="M30.741 21.2493H29.8164" stroke="#08304C" stroke-width="1.38696" stroke-linecap="round" stroke-linejoin="round"/>
<path d="M13.1746 21.2493H12.25" stroke="#08304C" stroke-width="1.38696" stroke-linecap="round" stroke-linejoin="round"/>
<path d="M28.0366 14.7109L27.3828 15.3648" stroke="#08304C" stroke-width="1.38696" stroke-linecap="round" stroke-linejoin="round"/>
<path d="M15.6148 15.3656L14.9609 14.7118" stroke="#08304C" stroke-width="1.38696" stroke-linecap="round" stroke-linejoin="round"/>
<path d="M23.8241 28.005C24.7584 27.7029 25.1331 26.8478 25.2385 25.9877C25.2699 25.7307 25.0585 25.5176 24.7996 25.5176L18.2392 25.5178C17.9714 25.5178 17.7563 25.745 17.7883 26.0109C17.8916 26.8693 18.1521 27.4964 19.1422 28.005M23.8241 28.005C23.8241 28.005 19.3052 28.005 19.1422 28.005M23.8241 28.005C23.7118 29.8035 23.1924 30.5157 21.5031 30.4958C19.6962 30.5291 19.2805 29.6488 19.1422 28.005" stroke="#08304C" stroke-width="1.38696" stroke-linecap="round" stroke-linejoin="round"/>
</svg>
