<svg width="20" height="20" viewBox="0 0 20 20" fill="none" xmlns="http://www.w3.org/2000/svg">
<path d="M4.94294 9.49995C4.94294 6.61105 6.51741 4.08988 8.85507 2.74774C8.66437 2.73161 8.47143 2.72339 8.27656 2.72339C4.53397 2.72339 1.5 5.75736 1.5 9.49995C1.5 13.2425 4.53397 16.2765 8.27656 16.2765C8.47143 16.2765 8.66437 16.2683 8.85507 16.2522C6.51741 14.91 4.94294 12.3889 4.94294 9.49995Z" fill="#032B03"/>
<path fill-rule="evenodd" clip-rule="evenodd" d="M5.94678 9.49995C5.94678 6.53617 7.84942 4.01678 10.4999 3.09658C11.1964 2.85477 11.9445 2.72339 12.7233 2.72339C16.4659 2.72339 19.4999 5.75736 19.4999 9.49995C19.4999 13.2425 16.4659 16.2765 12.7233 16.2765C11.9631 16.2765 11.2321 16.1513 10.5499 15.9205L10.4999 15.9033C7.84943 14.9831 5.94678 12.4637 5.94678 9.49995ZM13.4763 6.97516C13.4763 6.55932 13.1392 6.22221 12.7233 6.22221C12.3075 6.22221 11.9704 6.55932 11.9704 6.97516V9.792C11.9704 10.2078 12.3075 10.5449 12.7233 10.5449C13.1392 10.5449 13.4763 10.2078 13.4763 9.792V6.97516ZM12.7233 12.8772C13.1392 12.8772 13.4763 12.5401 13.4763 12.1243C13.4763 11.7084 13.1392 11.3713 12.7233 11.3713C12.3075 11.3713 11.9704 11.7084 11.9704 12.1243C11.9704 12.5401 12.3075 12.8772 12.7233 12.8772Z" fill="#032B03"/>
</svg>
