<svg width="27" height="28" viewBox="0 0 27 28" fill="none" xmlns="http://www.w3.org/2000/svg">
<path d="M1.15723 14.0547C1.15723 19.4093 4.59073 23.9465 9.33224 25.6223V2.48706C4.59073 4.16294 1.15723 8.70007 1.15723 14.0547ZM25.6823 14.0547C25.6823 8.70007 22.2896 4.16294 17.5072 2.48706V25.6223C22.2896 23.9465 25.6823 19.4093 25.6823 14.0547Z" fill="#097B09"/>
<path d="M9.33203 25.6224C10.5992 26.072 11.9889 26.3173 13.4195 26.3173C14.8502 26.3173 16.2399 26.072 17.507 25.6224V2.48711C16.2399 2.03749 14.8502 1.79224 13.4195 1.79224C11.9889 1.79224 10.5992 2.03749 9.33203 2.48711V25.6224Z" fill="#F9F9F9"/>
</svg>
