<svg width="18" height="18" viewBox="0 0 18 18" fill="none" xmlns="http://www.w3.org/2000/svg">
<path opacity="0.987" fill-rule="evenodd" clip-rule="evenodd" d="M8.10689 1.49608C8.88463 1.40918 9.34485 1.40918 10.1805 1.49608C11.6598 1.71502 13.0311 2.39878 14.0961 3.44849C13.3764 4.12876 12.6662 4.81896 11.9656 5.5189C10.6239 4.38178 9.12636 4.11932 7.47289 4.7315C6.25997 5.28933 5.41535 6.19331 4.93905 7.44342C4.1607 6.86395 3.3925 6.27099 2.63478 5.6648C2.58212 5.63708 2.52197 5.62693 2.46313 5.63583C3.66676 3.31511 5.54766 1.93483 8.10582 1.49501" fill="#F44336"/>
<path opacity="0.997" fill-rule="evenodd" clip-rule="evenodd" d="M2.46004 5.63574C2.52083 5.62645 2.5784 5.6361 2.63275 5.66471C3.39047 6.2709 4.15868 6.86386 4.93703 7.44333C4.81455 7.93043 4.73734 8.42779 4.70639 8.9291C4.73285 9.41398 4.80973 9.88993 4.93703 10.3569L2.51797 12.2825C1.46453 10.0812 1.44522 7.86564 2.46004 5.63574Z" fill="#FFC107"/>
<path opacity="0.999" fill-rule="evenodd" clip-rule="evenodd" d="M13.9819 14.6147C13.2287 13.9504 12.4401 13.3273 11.6197 12.7481C12.4421 12.1674 12.9413 11.3707 13.1172 10.358H9.08691V7.55918C11.4112 7.53987 13.7344 7.55953 16.0566 7.61818C16.4971 10.0104 15.9883 12.1674 14.5301 14.089C14.3567 14.2733 14.173 14.4488 13.9819 14.6147Z" fill="#448AFF"/>
<path opacity="0.993" fill-rule="evenodd" clip-rule="evenodd" d="M4.937 10.3582C5.81666 12.5444 7.42937 13.565 9.77512 13.4198C10.4336 13.3436 11.0649 13.1135 11.6181 12.7482C12.4391 13.329 13.2265 13.9512 13.9803 14.6148C12.786 15.6881 11.2631 16.3249 9.66033 16.4214C9.29618 16.4505 8.93028 16.4505 8.56613 16.4214C5.83561 16.0995 3.81955 14.72 2.51794 12.2827L4.937 10.3582Z" fill="#43A047"/>
</svg>
