<svg width="23" height="22" viewBox="0 0 23 22" fill="none" xmlns="http://www.w3.org/2000/svg">
<path d="M17.9166 9.62492V9.16654C17.9166 5.70962 17.9165 3.9811 16.8426 2.90716C15.7687 1.83325 14.0402 1.83325 10.5833 1.83325C7.12643 1.83325 5.39793 1.83331 4.32399 2.90721C3.25008 3.98114 3.25006 5.70958 3.25004 9.16648L3.25 13.2916C3.24997 16.305 3.24996 17.8119 4.08222 18.826C4.23461 19.0117 4.40487 19.1819 4.59056 19.3343C5.60471 20.1666 7.11145 20.1666 10.1249 20.1666" stroke="#99A1B7" stroke-width="1.375" stroke-linecap="round" stroke-linejoin="round"/>
<path d="M6.91797 6.41675H14.2513M6.91797 10.0834H10.5846" stroke="#99A1B7" stroke-width="1.375" stroke-linecap="round" stroke-linejoin="round"/>
<path d="M17 16.9584L15.625 16.4542V14.2084M11.5 16.0417C11.5 18.3199 13.3468 20.1667 15.625 20.1667C17.9032 20.1667 19.75 18.3199 19.75 16.0417C19.75 13.7636 17.9032 11.9167 15.625 11.9167C13.3468 11.9167 11.5 13.7636 11.5 16.0417Z" stroke="#99A1B7" stroke-width="1.375" stroke-linecap="round" stroke-linejoin="round"/>
</svg>
