<svg width="23" height="22" viewBox="0 0 23 22" fill="none" xmlns="http://www.w3.org/2000/svg">
<path d="M2.65414 12.1123C2.33054 10.0064 2.16874 8.95358 2.56685 8.02018C2.96496 7.08678 3.84823 6.44815 5.61474 5.17089L6.93461 4.21659C9.13213 2.6277 10.2309 1.83325 11.4987 1.83325C12.7665 1.83325 13.8653 2.6277 16.0628 4.21659L17.3826 5.17089C19.1492 6.44815 20.0324 7.08678 20.4305 8.02018C20.8286 8.95358 20.6668 10.0064 20.3433 12.1123L20.0673 13.908C19.6086 16.8931 19.3792 18.3857 18.3086 19.2761C17.2381 20.1666 15.6728 20.1666 12.5426 20.1666H10.4548C7.32451 20.1666 5.75937 20.1666 4.68878 19.2761C3.6182 18.3857 3.38883 16.8931 2.93009 13.908L2.65414 12.1123Z" fill="#08304C"/>
<path d="M11.5 17.75V15" stroke="white" stroke-width="1.375" stroke-linecap="round"/>
</svg>
