<svg width="48" height="48" viewBox="0 0 48 48" fill="none" xmlns="http://www.w3.org/2000/svg">
<circle cx="24" cy="24" r="24" fill="#000D1D" fill-opacity="0.04"/>
<rect x="0.23716" y="0.182506" width="25.1607" height="18.6648" rx="2.4359" transform="matrix(0.978148 -0.207912 0.0495471 0.998772 9.81596 16.0158)" fill="black" stroke="black" stroke-width="0.461538"/>
<rect x="0.23716" y="0.182506" width="25.1607" height="18.6648" rx="2.4359" transform="matrix(0.978148 -0.207912 0.0495471 0.998772 8.86821 15.466)" fill="white" stroke="black" stroke-width="0.461538"/>
<path d="M13.8625 23.952L17.5765 23.1694" stroke="#EBE9E9" stroke-width="1.84615" stroke-linecap="round"/>
<path d="M14.084 27.9082L17.7258 27.1821" stroke="#EBE9E9" stroke-width="1.84615" stroke-linecap="round"/>
<path d="M13.5146 19.9391L30.2863 16.0613" stroke="#EBE9E9" stroke-width="1.84615" stroke-linecap="round"/>
<path d="M21.8659 20.5822L36.9279 17.3807C37.5512 17.2482 38.0826 17.6571 38.1141 18.2935L38.8337 32.7991C38.8652 33.4355 38.385 34.0586 37.7618 34.191L22.6999 37.3926C22.0766 37.525 21.5453 37.117 21.5136 36.4806L20.794 21.975C20.7625 21.3386 21.2426 20.7147 21.8659 20.5822Z" fill="white" stroke="black" stroke-width="0.461538"/>
<path d="M23.1429 23.6256C23.1176 23.1164 23.5014 22.6177 24.0001 22.5117L34.9222 20.1901C35.4209 20.0841 35.8456 20.411 35.8708 20.9202L36.3855 31.2946C36.4108 31.8038 36.027 32.3025 35.5283 32.4085L24.6062 34.7301C24.1075 34.8361 23.6828 34.5092 23.6576 34L23.1429 23.6256Z" fill="#026024"/>
<path d="M33.4301 25.1958L32.8929 25.31L32.4827 24.2677C32.2721 23.7372 31.7355 23.4539 31.1476 23.5788L28.046 24.238C27.4581 24.363 26.9601 24.8558 26.8064 25.4742L26.5071 26.6674L25.9698 26.7816C25.7367 26.8311 25.5539 27.0687 25.5657 27.3067L25.578 27.5552C25.5898 27.7932 25.7922 27.9489 26.0253 27.8994L26.1773 27.867C26.1158 28.2776 26.0856 28.7023 26.1062 29.1164L26.2104 31.2174C26.2222 31.4554 26.4246 31.6112 26.6577 31.5616L27.3672 31.4108C27.6003 31.3612 27.7832 31.1236 27.7714 30.8856L27.738 30.2129L32.0256 29.3015L32.059 29.9743C32.0708 30.2123 32.2731 30.368 32.5062 30.3185L33.2158 30.1676C33.4489 30.1181 33.6317 29.8805 33.6199 29.6425L33.5158 27.5414C33.4952 27.1275 33.4245 26.7346 33.3234 26.3482L33.4754 26.3159C33.7085 26.2663 33.8914 26.0287 33.8795 25.7907L33.8672 25.5423C33.8657 25.302 33.6633 25.1463 33.4301 25.1958L33.4301 25.1958ZM27.2894 26.9509L27.6301 25.5606C27.6908 25.3386 27.8762 25.1527 28.089 25.1075L31.1907 24.4482C31.4036 24.403 31.6033 24.5069 31.6846 24.6988L32.1547 25.9167C32.1781 25.9745 32.1405 26.0452 32.0797 26.0581L27.3766 27.0578C27.3157 27.0707 27.2722 27.0173 27.2894 26.9509L27.2894 26.9509ZM28.2973 28.8912L27.4357 29.0743C27.2938 29.1045 27.166 29.0062 27.1588 28.8613L27.1383 28.4473C27.13 28.2817 27.2658 28.1274 27.429 28.1136L28.2364 28.078C28.3489 28.075 28.4341 28.1406 28.4596 28.2397L28.5342 28.5062C28.5734 28.6756 28.4594 28.8567 28.2973 28.8912L28.2973 28.8912ZM32.4702 27.7323C32.4774 27.8772 32.3619 28.0272 32.22 28.0574L31.3584 28.2405C31.1962 28.275 31.0568 28.1478 31.0891 27.9736L31.136 27.6812C31.1512 27.5733 31.2383 27.4712 31.3386 27.4289L32.1327 27.1242C32.2933 27.0587 32.4419 27.1631 32.4501 27.3286L32.4702 27.7323Z" fill="white"/>
</svg>
