<svg width="19" height="19" viewBox="0 0 19 19" fill="none" xmlns="http://www.w3.org/2000/svg">
<path d="M7.90625 10.1609C8.0151 10.3392 8.14432 10.5079 8.29384 10.6635C9.22206 11.6295 10.6369 11.7806 11.7172 11.1166C11.9174 10.9935 12.1061 10.8425 12.2781 10.6635L14.7683 8.07183C15.8685 6.92678 15.8685 5.07027 14.7683 3.9252C13.668 2.78014 11.8842 2.78014 10.7839 3.9252L10.2355 4.49605" stroke="#141B34" stroke-width="1.15308" stroke-linecap="round"/>
<path d="M8.65116 13.9362L8.10245 14.5072C7.00223 15.6523 5.21839 15.6523 4.11815 14.5072C3.01791 13.3622 3.01791 11.5057 4.11815 10.3606L6.60835 7.76896C7.70858 6.62389 9.49245 6.62388 10.5926 7.76896C10.7422 7.92448 10.8713 8.09321 10.9801 8.2714" stroke="#141B34" stroke-width="1.15308" stroke-linecap="round"/>
</svg>
