<svg width="17" height="16" viewBox="0 0 17 16" fill="none" xmlns="http://www.w3.org/2000/svg">
<path d="M10.0198 10.1445H10.0255M6.85938 10.1445H6.86506" stroke="white" stroke-width="1.26644" stroke-linecap="round" stroke-linejoin="round"/>
<path d="M3.54458 12.2632C3.68698 13.3208 4.563 14.1494 5.62905 14.1984C6.52607 14.2396 7.43729 14.2611 8.44076 14.2611C9.44422 14.2611 10.3554 14.2396 11.2524 14.1984C12.3185 14.1494 13.1945 13.3208 13.3369 12.2632C13.4299 11.5729 13.5065 10.8656 13.5065 10.1452C13.5065 9.42487 13.4299 8.7175 13.3369 8.02729C13.1945 6.96963 12.3185 6.14105 11.2524 6.09204C10.3554 6.05081 9.44422 6.0293 8.44076 6.0293C7.43729 6.0293 6.52607 6.05081 5.62905 6.09204C4.563 6.14105 3.68698 6.96963 3.54458 8.02729C3.45165 8.7175 3.375 9.42487 3.375 10.1452C3.375 10.8656 3.45165 11.5729 3.54458 12.2632Z" fill="#101010" stroke="black" stroke-width="0.949829"/>
<path d="M5.59375 6.02824V4.44519C5.59375 2.87146 6.86951 1.5957 8.44324 1.5957C10.017 1.5957 11.2927 2.87146 11.2927 4.44519V6.02824" stroke="black" stroke-width="0.949829" stroke-linecap="round" stroke-linejoin="round"/>
</svg>
