<svg width="17" height="17" viewBox="0 0 17 17" fill="none" xmlns="http://www.w3.org/2000/svg">
<path d="M8.49996 11.6444C9.10238 11.6444 9.59074 11.1561 9.59074 10.5537C9.59074 9.95125 9.10238 9.46289 8.49996 9.46289C7.89754 9.46289 7.40918 9.95125 7.40918 10.5537C7.40918 11.1561 7.89754 11.6444 8.49996 11.6444Z" fill="white"/>
<path d="M12.702 6.41131V5.57482C12.702 3.76801 12.267 1.37231 8.49951 1.37231C4.73198 1.37231 4.297 3.76801 4.297 5.57482V6.41131C2.42327 6.64553 1.80762 7.59578 1.80762 9.93125V11.1759C1.80762 13.9196 2.6441 14.7561 5.38778 14.7561H11.6112C14.3549 14.7561 15.1914 13.9196 15.1914 11.1759V9.93125C15.1914 7.59578 14.5758 6.64553 12.702 6.41131ZM8.49951 12.5745C7.38197 12.5745 6.47856 11.6644 6.47856 10.5536C6.47856 9.43605 7.38866 8.53264 8.49951 8.53264C9.61037 8.53264 10.5205 9.44274 10.5205 10.5536C10.5205 11.6711 9.61706 12.5745 8.49951 12.5745ZM5.38778 6.35108C5.33425 6.35108 5.2874 6.35108 5.23387 6.35108V5.57482C5.23387 3.6141 5.78929 2.30918 8.49951 2.30918C11.2097 2.30918 11.7652 3.6141 11.7652 5.57482V6.35778C11.7116 6.35778 11.6648 6.35778 11.6112 6.35778H5.38778V6.35108Z" fill="white"/>
</svg>
