<svg width="25" height="25" viewBox="0 0 25 25" fill="none" xmlns="http://www.w3.org/2000/svg">
<path d="M10.75 8.84351H9.45711C9.00435 8.84351 8.57014 9.02337 8.25 9.34351M14.75 8.84351H16.0429C16.4956 8.84351 16.9299 9.02337 17.25 9.34351" stroke="#9CA3AF" stroke-width="1.5" stroke-linecap="round" stroke-linejoin="round"/>
<path d="M12.75 22.3435C18.2728 22.3435 22.75 17.8664 22.75 12.3435C22.75 6.82066 18.2728 2.34351 12.75 2.34351C7.22715 2.34351 2.75 6.82066 2.75 12.3435C2.75 17.8664 7.22715 22.3435 12.75 22.3435Z" stroke="#9CA3AF" stroke-width="1.5" stroke-linecap="round" stroke-linejoin="round"/>
<path d="M8.06313 18.2633C7.64597 16.897 7.64576 14.7932 8.06168 13.426C8.32009 12.5766 9.04788 12.3435 9.86765 12.3435H15.6323C16.451 12.3435 17.1784 12.5762 17.4372 13.4242C17.8543 14.7911 17.8543 16.8959 17.4372 18.2628C17.1784 19.1108 16.451 19.3435 15.6323 19.3435H9.86765C9.04936 19.3435 8.32194 19.111 8.06313 18.2633Z" stroke="#9CA3AF" stroke-width="1.5" stroke-linecap="round" stroke-linejoin="round"/>
<path d="M7.75 13.8435L2.75 12.3435M17.75 13.8435L22.75 12.3435M7.75 17.8435L4.25 17.3435M17.75 17.8435L21.25 17.3435" stroke="#9CA3AF" stroke-width="1.5" stroke-linecap="round" stroke-linejoin="round"/>
</svg>
