<svg width="28" height="28" viewBox="0 0 28 28" fill="none" xmlns="http://www.w3.org/2000/svg">
<path d="M22.89 15.149C23.7987 13.8464 24.3315 12.2621 24.3315 10.5535C24.3315 6.11186 20.7309 2.51123 16.2893 2.51123C11.8477 2.51123 8.24707 6.11185 8.24707 10.5535C8.24707 11.7869 8.52475 12.9554 9.021 14.0001" fill="#097B09"/>
<path d="M22.89 15.149C23.7987 13.8464 24.3315 12.2621 24.3315 10.5535C24.3315 6.11186 20.7309 2.51123 16.2893 2.51123C11.8477 2.51123 8.24707 6.11185 8.24707 10.5535C8.24707 11.7869 8.52475 12.9554 9.021 14.0001" stroke="#097B09" stroke-width="1.17333" stroke-linecap="round" stroke-linejoin="round"/>
<path d="M3.65234 16.2979H6.40373C6.74167 16.2979 7.07498 16.374 7.37724 16.5203L9.72325 17.6554C10.0255 17.8016 10.3588 17.8777 10.6968 17.8777H11.8946C13.0531 17.8777 13.9923 18.7866 13.9923 19.9077C13.9923 19.9529 13.9613 19.9928 13.9163 20.0052L10.997 20.8124C10.4734 20.9572 9.91264 20.9067 9.42551 20.671L6.91761 19.4576M13.9923 19.1701L19.269 17.5489C20.2044 17.2574 21.2155 17.603 21.8015 18.4145C22.2252 19.0011 22.0526 19.8413 21.4354 20.1974L12.8008 25.1793C12.2517 25.4962 11.6037 25.5735 10.9997 25.3943L3.65234 23.214" stroke="#097B09" stroke-width="1.34581" stroke-linecap="round" stroke-linejoin="round"/>
<path d="M16.29 5.10665C15.0209 5.10665 13.9922 5.87821 13.9922 6.82999C13.9922 7.78173 15.0209 8.55332 16.29 8.55332C17.559 8.55332 18.5877 9.32491 18.5877 10.2767C18.5877 11.2284 17.559 12 16.29 12M16.29 5.10665C17.2904 5.10665 18.1415 5.5862 18.457 6.25554M16.29 5.10665V3.95776M16.29 12C15.2895 12 14.4384 11.5204 14.1229 10.8511M16.29 12V13.1489" stroke="white" stroke-width="1.17333" stroke-linecap="round"/>
</svg>
