<svg width="48" height="48" viewBox="0 0 48 48" fill="none" xmlns="http://www.w3.org/2000/svg">
<ellipse cx="24" cy="24" rx="24" ry="24" fill="white" fill-opacity="0.04"/>
<rect x="0.23716" y="0.182506" width="25.1607" height="18.6648" rx="2.4359" transform="matrix(0.978148 -0.207912 0.0495471 0.998772 11.4651 17.4369)" fill="#E2E2E2" stroke="#E2E2E2" stroke-width="0.461538"/>
<rect x="0.23716" y="0.182506" width="25.1607" height="18.6648" rx="2.4359" transform="matrix(0.978148 -0.207912 0.0495471 0.998772 10.5174 16.8869)" fill="#0D0D0D" stroke="#E2E2E2" stroke-width="0.461538"/>
<path d="M13.1223 20.3324C13.0844 19.5686 13.6601 18.8206 14.4081 18.6616L23.3965 16.751C24.1445 16.592 24.7816 17.0823 24.8194 17.8461L25.3632 28.8076C25.4011 29.5714 24.8255 30.3194 24.0775 30.4784L15.0891 32.389C14.3411 32.548 13.704 32.0577 13.6661 31.2939L13.1223 20.3324Z" fill="#097B09"/>
<path d="M21.1456 22.5822C21.1806 23.4268 20.718 24.2512 20.0248 24.7191C21.2581 24.7647 22.2869 25.4667 22.7708 26.5596C22.9795 27.0308 22.573 27.5908 22.0398 27.6969L16.6081 28.7773C16.0747 28.8834 15.6289 28.4925 15.7958 27.9466C16.1827 26.6811 17.1367 25.5846 18.3452 25.0541C17.6249 24.8674 17.1022 24.239 17.0672 23.3944C17.0196 22.2425 17.8939 21.1272 19.0201 20.9032C20.1464 20.6792 21.098 21.4312 21.1456 22.5822Z" fill="white"/>
<path d="M27.6648 22.7572L30.877 22.0324" stroke="white" stroke-width="1.84615" stroke-linecap="round"/>
<path d="M27.886 26.481L31.0982 25.7563" stroke="white" stroke-width="1.84615" stroke-linecap="round"/>
<path d="M27.3169 19.0332L32.1836 17.9867" stroke="white" stroke-width="1.84615" stroke-linecap="round"/>
</svg>
