<svg width="12" height="13" viewBox="0 0 12 13" fill="none" xmlns="http://www.w3.org/2000/svg">
<path d="M3.98528 2.36035C3.88689 2.39712 3.79012 2.43722 3.69512 2.48052M9.66209 8.47834C9.7091 8.37659 9.75243 8.27278 9.79194 8.16713M8.64149 9.88747C8.72046 9.81374 8.79682 9.73725 8.87032 9.65809M7.15586 10.8109C7.24514 10.7772 7.33304 10.7408 7.41951 10.7018M5.72405 11.0968C5.61784 11.1005 5.5109 11.1005 5.40465 11.0968M3.71462 10.7042C3.79778 10.7416 3.88229 10.7766 3.96803 10.8091M2.28195 9.6833C2.34482 9.74995 2.4097 9.81466 2.47649 9.8774M1.3437 8.18553C1.37814 8.27646 1.41544 8.36602 1.45548 8.45405M1.05497 6.73242C1.05198 6.6367 1.05199 6.54038 1.05497 6.44453M1.34037 4.99921C1.3742 4.90929 1.41083 4.82074 1.45014 4.73366M2.27435 3.5007C2.34089 3.42983 2.40968 3.3611 2.48063 3.29464" stroke="white" stroke-width="0.689941" stroke-linecap="round" stroke-linejoin="round"/>
<path d="M6.3418 6.5C6.3418 6.88103 6.03289 7.18994 5.65186 7.18994C5.27082 7.18994 4.96191 6.88103 4.96191 6.5C4.96191 6.11897 5.27082 5.81006 5.65186 5.81006M6.3418 6.5C6.3418 6.11897 6.03289 5.81006 5.65186 5.81006M6.3418 6.5H7.4917M5.65186 5.81006V3.74023" stroke="white" stroke-width="0.689941" stroke-linecap="round"/>
<path d="M10.252 6.49976C10.252 3.95946 8.19262 1.90015 5.65234 1.90015" stroke="white" stroke-width="0.689941" stroke-linecap="round"/>
</svg>
