<svg width="17" height="17" viewBox="0 0 17 17" fill="none" xmlns="http://www.w3.org/2000/svg">
<path fill-rule="evenodd" clip-rule="evenodd" d="M3.32857 2.83248C2.5625 3.5979 2.5625 4.83067 2.5625 7.29557V9.91016C2.5625 12.3751 2.5625 13.6078 3.32857 14.3733C4.09465 15.1387 5.32677 15.1393 7.79167 15.1393H9.09896C11.5639 15.1393 12.7966 15.1393 13.5621 14.3733C14.3275 13.6072 14.3281 12.3751 14.3281 9.91016V7.29557C14.3281 4.83067 14.3281 3.5979 13.5621 2.83248C12.796 2.06706 11.5639 2.06641 9.09896 2.06641H7.79167C5.32677 2.06641 4.09399 2.06641 3.32857 2.83248ZM5.83073 6.80534C5.70071 6.80534 5.57602 6.85699 5.48408 6.94893C5.39214 7.04086 5.34049 7.16556 5.34049 7.29557C5.34049 7.42559 5.39214 7.55028 5.48408 7.64222C5.57602 7.73416 5.70071 7.78581 5.83073 7.78581H11.0599C11.1899 7.78581 11.3146 7.73416 11.4065 7.64222C11.4985 7.55028 11.5501 7.42559 11.5501 7.29557C11.5501 7.16556 11.4985 7.04086 11.4065 6.94893C11.3146 6.85699 11.1899 6.80534 11.0599 6.80534H5.83073ZM5.83073 9.41992C5.70071 9.41992 5.57602 9.47157 5.48408 9.56351C5.39214 9.65545 5.34049 9.78014 5.34049 9.91016C5.34049 10.0402 5.39214 10.1649 5.48408 10.2568C5.57602 10.3487 5.70071 10.4004 5.83073 10.4004H9.09896C9.22898 10.4004 9.35367 10.3487 9.44561 10.2568C9.53754 10.1649 9.58919 10.0402 9.58919 9.91016C9.58919 9.78014 9.53754 9.65545 9.44561 9.56351C9.35367 9.47157 9.22898 9.41992 9.09896 9.41992H5.83073Z" fill="black"/>
</svg>
