<svg width="17" height="16" viewBox="0 0 17 16" fill="none" xmlns="http://www.w3.org/2000/svg">
<path fill-rule="evenodd" clip-rule="evenodd" d="M5.90828 4.87663C5.90828 4.20487 6.17514 3.56062 6.65015 3.08561C7.12515 2.61061 7.7694 2.34375 8.44116 2.34375C9.11292 2.34375 9.75717 2.61061 10.2322 3.08561C10.7072 3.56062 10.974 4.20487 10.974 4.87663C10.974 5.54839 10.7072 6.19264 10.2322 6.66764C9.75717 7.14265 9.11292 7.40951 8.44116 7.40951C7.7694 7.40951 7.12515 7.14265 6.65015 6.66764C6.17514 6.19264 5.90828 5.54839 5.90828 4.87663ZM5.90828 8.67594C5.06858 8.67594 4.26327 9.00951 3.66952 9.60327C3.07576 10.197 2.74219 11.0023 2.74219 11.842C2.74219 12.3459 2.94233 12.829 3.29858 13.1853C3.65484 13.5416 4.13803 13.7417 4.64185 13.7417H12.2405C12.7443 13.7417 13.2275 13.5416 13.5837 13.1853C13.94 12.829 14.1401 12.3459 14.1401 11.842C14.1401 11.0023 13.8066 10.197 13.2128 9.60327C12.6191 9.00951 11.8137 8.67594 10.974 8.67594H5.90828Z" fill="black"/>
</svg>
