<svg width="21" height="20" viewBox="0 0 21 20" fill="none" xmlns="http://www.w3.org/2000/svg">
<path d="M8.48096 13.3333H4.3143V17.5M11.8143 6.66667H15.981V2.5M3.9668 7.5025C4.43413 6.3462 5.21643 5.34418 6.22482 4.61031C7.23321 3.87643 8.42723 3.44013 9.6712 3.35098C10.9152 3.26183 12.1592 3.52342 13.2619 4.10601C14.3647 4.68859 15.2819 5.56882 15.9093 6.64667M16.3293 12.4975C15.8621 13.654 15.0798 14.6562 14.0713 15.3903C13.0628 16.1243 11.8687 16.5607 10.6245 16.6499C9.38038 16.739 8.13619 16.4773 7.03337 15.8946C5.93054 15.3119 5.01332 14.4314 4.38596 13.3533" stroke="#097B09" stroke-width="1.66667" stroke-linecap="round" stroke-linejoin="round"/>
</svg>
