<svg width="23" height="22" viewBox="0 0 23 22" fill="none" xmlns="http://www.w3.org/2000/svg">
<path d="M10.457 6.1875C10.457 4.28902 8.91801 2.75 7.01953 2.75C5.12105 2.75 3.58203 4.28902 3.58203 6.1875C3.58203 8.08598 5.12105 9.625 7.01953 9.625C8.91801 9.625 10.457 8.08598 10.457 6.1875Z" stroke="#99A1B7" stroke-width="1.375" stroke-linecap="round" stroke-linejoin="round"/>
<path d="M20.082 15.8125C20.082 13.914 18.543 12.375 16.6445 12.375C14.746 12.375 13.207 13.914 13.207 15.8125C13.207 17.711 14.746 19.25 16.6445 19.25C18.543 19.25 20.082 17.711 20.082 15.8125Z" stroke="#99A1B7" stroke-width="1.375" stroke-linecap="round" stroke-linejoin="round"/>
<path d="M10.457 15.8125C10.457 13.914 8.91801 12.375 7.01953 12.375C5.12105 12.375 3.58203 13.914 3.58203 15.8125C3.58203 17.711 5.12105 19.25 7.01953 19.25C8.91801 19.25 10.457 17.711 10.457 15.8125Z" stroke="#99A1B7" stroke-width="1.375" stroke-linecap="round" stroke-linejoin="round"/>
<path d="M16.6445 2.75V9.625M20.082 6.1875H13.207" stroke="#99A1B7" stroke-width="1.375" stroke-linecap="round" stroke-linejoin="round"/>
</svg>
