<svg width="13" height="16" viewBox="0 0 13 16" fill="none" xmlns="http://www.w3.org/2000/svg">
<path d="M5.29253 10.2207L5.28875 10.2119C5.21284 10.194 5.13735 10.1743 5.06235 10.1528L5.05669 10.1509C4.33929 9.94471 3.67676 9.58143 3.11714 9.08745C2.50169 8.54452 2.02839 7.85928 1.73852 7.09148C1.44865 6.32367 1.35101 5.49661 1.45411 4.68241C1.55721 3.8682 1.85792 3.09159 2.33002 2.42027C2.80213 1.74894 3.43129 1.20331 4.16264 0.830923C4.894 0.458541 5.70535 0.270724 6.52595 0.283846C7.34655 0.296969 8.15148 0.510634 8.87055 0.906211C9.58963 1.30179 10.201 1.86727 10.6514 2.55334C11.1018 3.23941 11.3775 4.02525 11.4546 4.84233C11.4791 5.10207 11.2659 5.31401 11.0049 5.31401C10.7445 5.31401 10.5363 5.10207 10.5062 4.84296C10.423 4.12808 10.1526 3.44781 9.72229 2.87094C9.29196 2.29406 8.71696 1.84102 8.05541 1.5576C7.39386 1.27419 6.66921 1.17046 5.95471 1.25689C5.24022 1.34332 4.56121 1.61685 3.98632 2.04983C3.41143 2.48281 2.96104 3.05989 2.68068 3.72274C2.40031 4.38559 2.29992 5.11071 2.38963 5.8248C2.47935 6.53888 2.75601 7.21663 3.19163 7.78952C3.62725 8.36241 4.2064 8.81014 4.87053 9.08745L4.89569 9.09814C5.02147 9.14971 5.1506 9.1952 5.28309 9.23461C5.39441 8.96564 5.59557 8.7436 5.85229 8.60635C6.10901 8.4691 6.40538 8.42515 6.69088 8.48198C6.97638 8.53882 7.23333 8.69292 7.41792 8.91801C7.6025 9.1431 7.7033 9.42525 7.70312 9.71636C7.7034 10.0054 7.60411 10.2858 7.42194 10.5102C7.23977 10.7347 6.98586 10.8895 6.70291 10.9487C6.41997 11.0079 6.12527 10.9679 5.8684 10.8353C5.61153 10.7027 5.40816 10.4857 5.29253 10.2207ZM4.67243 11.0207C3.5552 10.6732 2.56458 10.0054 1.82348 9.10003C1.3642 9.15382 0.940666 9.37441 0.633314 9.71991C0.325961 10.0654 0.156193 10.5117 0.15625 10.9742V11.4238C0.15625 13.7621 2.80395 15.3765 6.44531 15.3765C10.0867 15.3765 12.7344 13.6734 12.7344 11.4238V10.9742C12.7344 10.4738 12.5356 9.99389 12.1818 9.64006C11.8279 9.28623 11.348 9.08745 10.8477 9.08745H8.55529C8.70364 9.58431 8.67183 10.1176 8.46545 10.5933C8.25907 11.069 7.89138 11.4565 7.4272 11.6876C6.96302 11.9188 6.43216 11.9786 5.92818 11.8566C5.42421 11.7346 4.97949 11.4385 4.67243 11.0207ZM9.58984 5.31401C9.58984 4.3631 9.16848 3.51094 8.50121 2.93423C8.16641 2.64541 7.77446 2.43045 7.35095 2.30337C6.92745 2.1763 6.4819 2.13996 6.0434 2.19674C5.6049 2.25353 5.18331 2.40215 4.80614 2.6329C4.42897 2.86366 4.1047 3.17137 3.85451 3.53593C3.60431 3.9005 3.43382 4.31374 3.35415 4.74866C3.27448 5.18359 3.28743 5.63042 3.39216 6.06C3.49688 6.48958 3.69102 6.89225 3.96191 7.24172C4.23279 7.59118 4.57434 7.87959 4.96424 8.08812C5.36944 7.7195 5.89753 7.51522 6.44531 7.51518C6.99331 7.51506 7.52165 7.71936 7.92702 8.08812C8.42946 7.8197 8.84956 7.41983 9.14243 6.93124C9.4353 6.44264 9.58994 5.88366 9.58984 5.31401Z" fill="black"/>
</svg>
