<svg width="17" height="16" viewBox="0 0 17 16" fill="none" xmlns="http://www.w3.org/2000/svg">
<g clip-path="url(#clip0_3237_20169)">
<path d="M9.19522 0.75V2H10.1802C10.4842 2 10.7832 2.08 11.0472 2.231L12.3372 2.967C12.3759 2.989 12.4172 3 12.4612 3H14.6952C14.8941 3 15.0849 3.07902 15.2255 3.21967C15.3662 3.36032 15.4452 3.55109 15.4452 3.75C15.4452 3.94891 15.3662 4.13968 15.2255 4.28033C15.0849 4.42098 14.8941 4.5 14.6952 4.5H14.2682L16.3792 9.192C16.4416 9.33081 16.4603 9.48531 16.4328 9.63499C16.4053 9.78467 16.3329 9.92244 16.2252 10.03L15.6952 9.5L16.2242 10.031L16.2232 10.033L16.2212 10.035L16.2152 10.041L16.2092 10.046L16.1992 10.056L16.1542 10.096C15.9429 10.2727 15.7142 10.4227 15.4682 10.546C15.0012 10.78 14.3252 11 13.4452 11C12.7447 11.0082 12.052 10.8527 11.4222 10.546C11.1767 10.4234 10.9465 10.2724 10.7362 10.096L10.6912 10.056L10.6752 10.041L10.6692 10.035L10.6652 10.031V10.03C10.5576 9.92244 10.4852 9.78467 10.4577 9.63499C10.4302 9.48531 10.4488 9.33081 10.5112 9.192L12.6232 4.5H12.4612C12.1562 4.5 11.8572 4.421 11.5932 4.269L10.3032 3.533C10.2655 3.5114 10.2227 3.50002 10.1792 3.5H9.19522V13H11.6952C11.8941 13 12.0849 13.079 12.2255 13.2197C12.3662 13.3603 12.4452 13.5511 12.4452 13.75C12.4452 13.9489 12.3662 14.1397 12.2255 14.2803C12.0849 14.421 11.8941 14.5 11.6952 14.5H5.19522C4.99631 14.5 4.80554 14.421 4.66489 14.2803C4.52424 14.1397 4.44522 13.9489 4.44522 13.75C4.44522 13.5511 4.52424 13.3603 4.66489 13.2197C4.80554 13.079 4.99631 13 5.19522 13H7.69522V3.5H6.71122C6.66772 3.50002 6.62498 3.5114 6.58722 3.533L5.29822 4.27C5.03322 4.42 4.73422 4.5 4.42922 4.5H4.26722L6.37922 9.192C6.4416 9.33081 6.46028 9.48531 6.43277 9.63499C6.40527 9.78467 6.33288 9.92244 6.22522 10.03L5.69522 9.5L6.22422 10.031L6.22322 10.033L6.22122 10.035L6.21522 10.041L6.19922 10.056L6.15422 10.096C5.94289 10.2727 5.71422 10.4227 5.46822 10.546C5.00122 10.78 4.32522 11 3.44522 11C2.74474 11.0082 2.05202 10.8527 1.42222 10.546C1.1767 10.4234 0.946454 10.2724 0.736219 10.096L0.691219 10.056L0.675219 10.041L0.669219 10.035L0.665219 10.031V10.03C0.557561 9.92244 0.485172 9.78467 0.457665 9.63499C0.430159 9.48531 0.448837 9.33081 0.511219 9.192L2.62322 4.5H2.19522C1.99631 4.5 1.80554 4.42098 1.66489 4.28033C1.52424 4.13968 1.44522 3.94891 1.44522 3.75C1.44522 3.55109 1.52424 3.36032 1.66489 3.21967C1.80554 3.07902 1.99631 3 2.19522 3H4.42922C4.47306 3.00015 4.51617 2.98877 4.55422 2.967L5.84222 2.23C6.10722 2.08 6.40622 2 6.71122 2H7.69522V0.75C7.69522 0.551088 7.77424 0.360322 7.91489 0.21967C8.05554 0.0790176 8.24631 0 8.44522 0C8.64413 0 8.8349 0.0790176 8.97555 0.21967C9.1162 0.360322 9.19522 0.551088 9.19522 0.75ZM12.1402 9.227C12.4252 9.362 12.8582 9.5 13.4452 9.5C14.0322 9.5 14.4652 9.362 14.7502 9.227L13.4452 6.327L12.1402 9.227ZM2.14022 9.227C2.42522 9.362 2.85822 9.5 3.44522 9.5C4.03222 9.5 4.46522 9.362 4.75022 9.227L3.44522 6.327L2.14022 9.227Z" fill="black"/>
</g>
<defs>
<clipPath id="clip0_3237_20169">
<rect width="16" height="16" fill="white" transform="translate(0.445312)"/>
</clipPath>
</defs>
</svg>
