<svg width="19" height="18" viewBox="0 0 19 18" fill="none" xmlns="http://www.w3.org/2000/svg">
<path d="M4.56648 7.2622C6.37674 4.05899 7.28186 2.45738 8.52392 2.04511C9.20717 1.8183 9.94322 1.8183 10.6265 2.04511C11.8685 2.45738 12.7736 4.05899 14.5839 7.2622C16.3942 10.4654 17.2993 12.067 17.0278 13.372C16.8784 14.09 16.5104 14.7411 15.9764 15.2323C15.0059 16.125 13.1957 16.125 9.5752 16.125C5.95469 16.125 4.14443 16.125 3.17392 15.2323C2.64001 14.7411 2.27199 14.09 2.12261 13.372C1.85109 12.067 2.75622 10.4654 4.56648 7.2622Z" stroke="#D5BF00" stroke-width="1.5"/>
<path d="M9.56909 12H9.57584" stroke="#D5BF00" stroke-width="2" stroke-linecap="round" stroke-linejoin="round"/>
<path d="M9.5752 9.75002V6.75" stroke="#D5BF00" stroke-width="1.5" stroke-linecap="round" stroke-linejoin="round"/>
</svg>
