<svg width="26" height="27" viewBox="0 0 26 27" fill="none" xmlns="http://www.w3.org/2000/svg">
<g clip-path="url(#clip0_3237_20228)">
<path d="M0.681666 13.3454C0.681062 15.5245 1.25044 17.6522 2.33309 19.5276L0.578125 25.9353L7.13557 24.2159C8.94927 25.2032 10.9814 25.7206 13.0464 25.7208H13.0519C19.869 25.7208 25.4182 20.1735 25.4211 13.3552C25.4225 10.0512 24.1369 6.94441 21.8013 4.60701C19.4662 2.2698 16.3604 0.981977 13.0514 0.980469C6.23346 0.980469 0.684581 6.52743 0.681766 13.3454" fill="url(#paint0_linear_3237_20228)"/>
<path d="M0.240374 13.3417C0.23967 15.5992 0.82945 17.803 1.9507 19.7455L0.132812 26.3829L6.92538 24.6019C8.79695 25.6223 10.9042 26.1603 13.0484 26.1611H13.0539C20.1156 26.1611 25.8642 20.4143 25.8672 13.3519C25.8684 9.92927 24.5366 6.71076 22.1176 4.28962C19.6983 1.86878 16.4815 0.53461 13.0539 0.533203C5.991 0.533203 0.243189 6.27921 0.240374 13.3417ZM4.2856 19.411L4.03197 19.0084C2.96581 17.3131 2.40307 15.3541 2.40387 13.3425C2.40608 7.47234 7.18343 2.6965 13.0579 2.6965C15.9028 2.69771 18.5763 3.8067 20.5872 5.8188C22.598 7.83111 23.7045 10.5061 23.7038 13.3511C23.7012 19.2213 18.9237 23.9977 13.0539 23.9977H13.0497C11.1384 23.9967 9.26389 23.4834 7.62916 22.5135L7.24012 22.2828L3.20928 23.3396L4.2856 19.411Z" fill="url(#paint1_linear_3237_20228)"/>
<path d="M9.85124 7.98642C9.61139 7.45334 9.35897 7.44258 9.13088 7.43323C8.94411 7.42519 8.73059 7.42579 8.51728 7.42579C8.30376 7.42579 7.95685 7.50611 7.66362 7.82628C7.37009 8.14676 6.54297 8.9212 6.54297 10.4963C6.54297 12.0714 7.69026 13.5938 7.85019 13.8076C8.01033 14.021 10.0651 17.3568 13.3193 18.6401C16.0238 19.7066 16.5741 19.4945 17.1611 19.441C17.7482 19.3878 19.0554 18.6668 19.3221 17.9192C19.589 17.1717 19.589 16.5309 19.509 16.397C19.429 16.2636 19.2154 16.1835 18.8953 16.0235C18.5751 15.8634 17.001 15.0888 16.7075 14.9819C16.414 14.8752 16.2006 14.8219 15.9871 15.1425C15.7736 15.4626 15.1605 16.1835 14.9736 16.397C14.7869 16.6111 14.6 16.6377 14.28 16.4776C13.9596 16.3169 12.9285 15.9793 11.7052 14.8887C10.7535 14.04 10.1109 12.9921 9.92412 12.6715C9.73735 12.3514 9.90412 12.1779 10.0647 12.0184C10.2085 11.8749 10.3849 11.6445 10.5452 11.4576C10.7048 11.2707 10.7581 11.1373 10.8648 10.9238C10.9717 10.71 10.9182 10.5231 10.8383 10.3629C10.7581 10.2028 10.1359 8.61942 9.85124 7.98642Z" fill="white"/>
</g>
<defs>
<linearGradient id="paint0_linear_3237_20228" x1="1242.73" y1="2496.46" x2="1242.73" y2="0.980469" gradientUnits="userSpaceOnUse">
<stop stop-color="#1FAF38"/>
<stop offset="1" stop-color="#60D669"/>
</linearGradient>
<linearGradient id="paint1_linear_3237_20228" x1="1286.85" y1="2585.5" x2="1286.85" y2="0.533203" gradientUnits="userSpaceOnUse">
<stop stop-color="#F9F9F9"/>
<stop offset="1" stop-color="white"/>
</linearGradient>
<clipPath id="clip0_3237_20228">
<rect width="25.7344" height="25.9354" fill="white" transform="translate(0.132812 0.533203)"/>
</clipPath>
</defs>
</svg>
